<?xml version="1.0" encoding="utf-8"?>
<!-- Generator: Adobe Illustrator 16.0.0, SVG Export Plug-In . SVG Version: 6.00 Build 0)  -->
<!DOCTYPE svg PUBLIC "-//W3C//DTD SVG 1.1//EN" "http://www.w3.org/Graphics/SVG/1.1/DTD/svg11.dtd">
<svg version="1.1" id="Layer_1" xmlns="http://www.w3.org/2000/svg" xmlns:xlink="http://www.w3.org/1999/xlink" x="0px" y="0px"
	 width="91px" height="90px" viewBox="0 0 91 90" enable-background="new 0 0 91 90" xml:space="preserve">
<circle fill="none" stroke="#36434D" stroke-miterlimit="10" cx="45.082" cy="45.383" r="27.203"/>
<circle fill="none" stroke="#36434D" stroke-miterlimit="10" cx="45.082" cy="45.383" r="24.971"/>
<path fill="#36434D" d="M87.169,36.66c-0.862-1.549-1.679-3.013-2.16-4.497c-0.509-1.571-0.733-3.369-0.952-5.107
	c-0.367-2.917-0.746-5.934-2.455-8.285c-1.73-2.376-4.492-3.667-7.164-4.916c-1.65-0.771-3.209-1.499-4.524-2.457
	c-1.293-0.94-2.45-2.186-3.677-3.505c-2.02-2.172-4.106-4.418-6.944-5.339c-0.949-0.309-1.978-0.46-3.144-0.46
	c-1.77,0-3.609,0.353-5.391,0.694C49.009,3.123,47.2,3.47,45.5,3.47c-1.699,0-3.508-0.347-5.258-0.682
	c-1.78-0.341-3.62-0.694-5.388-0.694c-1.166,0-2.194,0.151-3.145,0.46c-2.837,0.921-4.925,3.167-6.944,5.339
	c-1.226,1.319-2.383,2.565-3.676,3.505c-1.316,0.958-2.874,1.686-4.525,2.457c-2.671,1.248-5.434,2.539-7.164,4.916
	c-1.711,2.352-2.089,5.368-2.455,8.285c-0.218,1.739-0.443,3.537-0.954,5.107c-0.481,1.484-1.297,2.948-2.16,4.497
	c-1.45,2.604-2.95,5.297-2.95,8.34s1.5,5.736,2.951,8.341c0.862,1.55,1.678,3.013,2.16,4.495c0.51,1.572,0.735,3.37,0.954,5.107
	c0.366,2.916,0.744,5.935,2.455,8.285c1.729,2.377,4.492,3.668,7.164,4.916c1.651,0.771,3.209,1.498,4.525,2.457
	c1.292,0.939,2.45,2.187,3.676,3.504c2.019,2.174,4.107,4.42,6.944,5.34c0.951,0.31,1.979,0.459,3.145,0.459
	c1.768,0,3.608-0.353,5.388-0.691c1.75-0.335,3.559-0.684,5.258-0.684c1.7,0,3.511,0.349,5.258,0.684
	c1.78,0.34,3.621,0.691,5.39,0.691c1.166,0,2.194-0.149,3.145-0.459c2.838-0.92,4.926-3.166,6.945-5.34
	c1.226-1.317,2.383-2.563,3.676-3.504c1.314-0.959,2.874-1.686,4.523-2.457c2.672-1.248,5.435-2.539,7.164-4.916
	c1.711-2.352,2.09-5.369,2.455-8.285c0.219-1.737,0.444-3.535,0.953-5.107c0.481-1.482,1.297-2.945,2.16-4.495
	c1.45-2.604,2.95-5.298,2.95-8.341S88.619,39.264,87.169,36.66 M85.688,52.516c-0.864,1.553-1.758,3.156-2.291,4.797
	c-0.562,1.725-0.797,3.604-1.024,5.422c-0.354,2.828-0.688,5.5-2.144,7.498c-1.473,2.022-3.92,3.164-6.511,4.377
	c-1.651,0.771-3.356,1.568-4.805,2.623c-1.425,1.035-2.692,2.4-3.92,3.722c-1.959,2.106-3.808,4.096-6.226,4.881
	c-0.781,0.253-1.639,0.376-2.621,0.376c-1.608,0-3.289-0.322-5.071-0.664c-1.826-0.35-3.716-0.711-5.576-0.711
	c-1.86,0-3.75,0.361-5.576,0.711c-1.781,0.342-3.464,0.664-5.07,0.664c-0.984,0-1.842-0.123-2.621-0.376
	c-2.418-0.785-4.268-2.774-6.227-4.881c-1.227-1.32-2.496-2.687-3.92-3.722c-1.448-1.055-3.155-1.854-4.804-2.623
	c-2.592-1.213-5.039-2.354-6.511-4.377c-1.454-1.998-1.789-4.67-2.144-7.498c-0.228-1.817-0.463-3.697-1.022-5.422
	c-0.534-1.641-1.427-3.244-2.292-4.797C3.967,50.102,2.576,47.602,2.576,45c0-2.602,1.391-5.1,2.736-7.514
	c0.865-1.552,1.759-3.158,2.292-4.8c0.56-1.724,0.795-3.602,1.023-5.418c0.355-2.83,0.69-5.5,2.144-7.499
	c1.472-2.024,3.919-3.167,6.511-4.378c1.649-0.771,3.355-1.568,4.804-2.622c1.424-1.036,2.693-2.402,3.92-3.721
	c1.958-2.107,3.808-4.095,6.227-4.882c0.779-0.253,1.637-0.376,2.621-0.376c1.607,0,3.29,0.323,5.07,0.664
	c1.827,0.35,3.716,0.712,5.576,0.712c1.859,0,3.75-0.362,5.576-0.712c1.781-0.341,3.463-0.664,5.07-0.664
	c0.983,0,1.842,0.123,2.621,0.376c2.418,0.787,4.268,2.775,6.227,4.882c1.227,1.319,2.494,2.685,3.92,3.721
	c1.447,1.054,3.152,1.851,4.805,2.622c2.592,1.211,5.038,2.354,6.51,4.378c1.455,1.998,1.791,4.669,2.145,7.499
	c0.229,1.817,0.464,3.695,1.023,5.418c0.533,1.642,1.428,3.248,2.293,4.8c1.344,2.414,2.735,4.912,2.735,7.514
	C88.425,47.602,87.032,50.102,85.688,52.516"/>
<path fill="#36434D" d="M76.896,73.641c0.736-1.613,1.434-3.139,2.345-4.404c0.964-1.342,2.278-2.588,3.55-3.793
	c2.135-2.021,4.342-4.113,5.223-6.885c0.893-2.8,0.297-5.793-0.281-8.685c-0.354-1.785-0.69-3.472-0.698-5.1
	c-0.007-1.599,0.312-3.268,0.647-5.038c0.555-2.913,1.129-5.926,0.19-8.758c-0.313-0.949-0.804-1.867-1.49-2.807
	c-1.049-1.423-2.423-2.698-3.751-3.931c-1.307-1.211-2.656-2.464-3.663-3.834c-1.006-1.37-1.799-3.032-2.563-4.641
	c-0.779-1.635-1.586-3.328-2.631-4.752c-0.689-0.939-1.422-1.679-2.232-2.262c-2.423-1.741-5.469-2.093-8.414-2.434
	c-1.79-0.207-3.479-0.403-5.002-0.887c-1.551-0.493-3.063-1.317-4.66-2.191c-2.587-1.415-5.264-2.875-8.203-2.863
	c-2.909,0.015-5.563,1.496-8.13,2.928c-1.53,0.854-3.112,1.737-4.68,2.256c-1.482,0.49-3.145,0.7-4.904,0.921
	c-2.958,0.374-6.015,0.759-8.467,2.562c-2.453,1.802-3.734,4.605-4.974,7.316c-0.737,1.613-1.433,3.138-2.344,4.404
	c-0.963,1.342-2.279,2.588-3.551,3.792c-2.134,2.022-4.342,4.114-5.223,6.885c-0.89,2.8-0.295,5.791,0.282,8.683
	c0.355,1.786,0.691,3.474,0.699,5.101c0.007,1.598-0.311,3.269-0.648,5.037c-0.554,2.914-1.128,5.927-0.191,8.759
	c0.315,0.949,0.803,1.866,1.493,2.807c1.046,1.424,2.42,2.699,3.75,3.933c1.306,1.209,2.657,2.464,3.663,3.832
	c1.007,1.371,1.798,3.033,2.564,4.642c0.78,1.636,1.585,3.328,2.632,4.754c0.69,0.938,1.421,1.679,2.232,2.262
	c2.423,1.74,5.469,2.094,8.415,2.436c1.789,0.207,3.479,0.401,5.001,0.887c1.552,0.494,3.061,1.318,4.659,2.189
	c2.588,1.414,5.265,2.875,8.203,2.862c2.909-0.013,5.563-1.495,8.13-2.929c1.529-0.854,3.111-1.735,4.682-2.256
	c1.48-0.488,3.143-0.699,4.901-0.922c2.958-0.373,6.017-0.76,8.468-2.561C74.375,79.152,75.654,76.35,76.896,73.641 M63.241,81.834
	c-1.763,0.225-3.587,0.453-5.224,0.996c-1.723,0.568-3.375,1.49-4.975,2.383c-2.488,1.391-4.841,2.703-7.313,2.714
	c-2.5,0.011-4.871-1.284-7.381-2.655c-1.598-0.873-3.251-1.774-4.958-2.318C31.712,82.42,29.86,82.206,28.07,82
	c-2.856-0.332-5.555-0.645-7.62-2.128c-0.666-0.479-1.273-1.099-1.855-1.89c-0.952-1.297-1.688-2.84-2.468-4.479
	c-0.799-1.68-1.627-3.417-2.728-4.915c-1.102-1.499-2.513-2.808-3.877-4.073c-1.328-1.232-2.584-2.397-3.536-3.691
	c-0.583-0.795-0.991-1.559-1.25-2.336c-0.798-2.413-0.291-5.082,0.248-7.906c0.337-1.771,0.685-3.602,0.678-5.363
	c-0.009-1.791-0.377-3.638-0.732-5.424c-0.558-2.806-1.087-5.454-0.328-7.839c0.749-2.354,2.703-4.207,4.772-6.167
	c1.33-1.26,2.704-2.563,3.761-4.034c1.007-1.401,1.771-3.072,2.51-4.688c1.149-2.513,2.337-5.113,4.436-6.655
	c2.097-1.541,4.933-1.898,7.675-2.245c1.763-0.223,3.586-0.452,5.225-0.995c1.72-0.569,3.374-1.492,4.973-2.385
	c2.489-1.388,4.84-2.7,7.311-2.712c2.5-0.01,4.874,1.283,7.383,2.655c1.6,0.874,3.252,1.776,4.957,2.318
	c1.681,0.535,3.529,0.749,5.32,0.955c2.856,0.331,5.555,0.643,7.62,2.126c0.665,0.479,1.272,1.098,1.854,1.891
	c0.951,1.295,1.688,2.84,2.468,4.478c0.801,1.68,1.627,3.417,2.729,4.916c1.101,1.499,2.51,2.807,3.875,4.073
	c1.328,1.232,2.584,2.397,3.537,3.692c0.583,0.793,0.991,1.556,1.248,2.335c0.801,2.414,0.29,5.082-0.246,7.908
	c-0.338,1.769-0.687,3.599-0.678,5.361c0.008,1.791,0.375,3.637,0.73,5.425c0.56,2.804,1.086,5.453,0.328,7.837
	c-0.75,2.355-2.705,4.208-4.772,6.168c-1.329,1.26-2.703,2.563-3.763,4.035c-1.006,1.4-1.77,3.072-2.508,4.688
	c-1.15,2.514-2.34,5.112-4.438,6.654C68.818,81.131,65.984,81.488,63.241,81.834"/>
<path fill="#FFFFFF" d="M45.699,89.908c-2.998,0-5.693-1.473-8.299-2.896c-1.583-0.865-3.078-1.683-4.609-2.169
	c-1.5-0.478-3.174-0.672-4.947-0.875c-2.981-0.346-6.065-0.702-8.549-2.487c-0.837-0.603-1.588-1.361-2.296-2.324
	c-1.06-1.443-1.87-3.143-2.654-4.786c-0.765-1.606-1.549-3.257-2.542-4.606c-0.991-1.351-2.332-2.592-3.626-3.793
	c-1.338-1.242-2.722-2.525-3.786-3.972c-0.708-0.965-1.208-1.909-1.533-2.888c-0.96-2.901-0.38-5.95,0.181-8.899
	c0.335-1.759,0.65-3.416,0.644-4.983c-0.008-1.602-0.341-3.275-0.694-5.047c-0.583-2.927-1.186-5.955-0.272-8.826
	c0.903-2.842,3.137-4.958,5.297-7.006c1.262-1.195,2.567-2.431,3.516-3.752c0.892-1.24,1.581-2.748,2.311-4.343
	c1.262-2.759,2.559-5.595,5.071-7.44c2.51-1.845,5.604-2.235,8.594-2.613c1.751-0.221,3.399-0.429,4.855-0.911
	c1.538-0.509,3.104-1.381,4.618-2.227c2.613-1.458,5.3-2.957,8.282-2.972h0.04c2.999,0,5.694,1.473,8.301,2.897
	c1.584,0.865,3.08,1.682,4.609,2.169c1.499,0.477,3.174,0.67,4.947,0.875c2.982,0.345,6.064,0.701,8.549,2.486
	c0.839,0.603,1.589,1.363,2.297,2.326c1.061,1.443,1.871,3.146,2.655,4.791c0.764,1.605,1.55,3.254,2.54,4.604
	c0.992,1.35,2.332,2.591,3.627,3.792c1.339,1.242,2.724,2.526,3.785,3.972c0.707,0.964,1.209,1.907,1.533,2.887
	c0.961,2.901,0.381,5.949-0.181,8.896c-0.336,1.762-0.651,3.418-0.646,4.987c0.01,1.603,0.343,3.275,0.695,5.046
	c0.582,2.929,1.186,5.957,0.272,8.826c-0.904,2.844-3.14,4.959-5.3,7.006c-1.262,1.195-2.566,2.434-3.514,3.752
	c-0.894,1.24-1.582,2.748-2.312,4.342c-1.263,2.762-2.56,5.596-5.071,7.441c-2.511,1.846-5.604,2.235-8.596,2.612
	c-1.75,0.222-3.396,0.431-4.854,0.912c-1.537,0.509-3.104,1.382-4.617,2.226c-2.611,1.459-5.301,2.957-8.281,2.973h-0.043V89.908z
	 M45.299,0.664h-0.037c-2.834,0.014-5.456,1.476-7.991,2.891c-1.552,0.865-3.142,1.752-4.73,2.278
	c-1.51,0.499-3.186,0.71-4.959,0.934c-2.924,0.37-5.942,0.751-8.333,2.507c-2.393,1.757-3.658,4.525-4.881,7.201
	c-0.749,1.638-1.45,3.17-2.375,4.456c-0.981,1.365-2.306,2.62-3.586,3.833c-2.108,1.997-4.288,4.063-5.146,6.764
	c-0.869,2.731-0.281,5.684,0.288,8.54c0.358,1.8,0.697,3.499,0.706,5.156c0.007,1.625-0.313,3.307-0.653,5.088
	c-0.548,2.883-1.115,5.857-0.201,8.619c0.305,0.918,0.78,1.812,1.451,2.727c1.033,1.402,2.396,2.668,3.714,3.892
	c1.315,1.22,2.675,2.479,3.699,3.873s1.821,3.067,2.592,4.687c0.778,1.634,1.577,3.309,2.604,4.707
	c0.671,0.914,1.381,1.635,2.168,2.199c2.364,1.698,5.372,2.047,8.281,2.383c1.801,0.209,3.502,0.403,5.056,0.898
	c1.583,0.502,3.101,1.333,4.709,2.212c2.544,1.392,5.174,2.827,8.025,2.827h0.04c2.835-0.016,5.455-1.479,7.992-2.893
	c1.55-0.863,3.141-1.752,4.729-2.277c1.508-0.499,3.186-0.71,4.957-0.934c2.925-0.369,5.943-0.752,8.334-2.508
	c2.393-1.758,3.656-4.523,4.881-7.199c0.75-1.641,1.45-3.172,2.374-4.457c0.979-1.363,2.306-2.619,3.586-3.834
	c2.108-1.996,4.287-4.062,5.147-6.764c0.869-2.729,0.279-5.685-0.289-8.539c-0.359-1.8-0.696-3.498-0.704-5.157
	c-0.009-1.624,0.313-3.306,0.649-5.086c0.552-2.886,1.117-5.859,0.203-8.62c-0.306-0.92-0.781-1.813-1.451-2.727
	c-1.031-1.402-2.396-2.667-3.713-3.892c-1.315-1.218-2.676-2.479-3.699-3.873c-1.021-1.392-1.82-3.067-2.592-4.687
	c-0.776-1.63-1.576-3.307-2.604-4.708c-0.672-0.913-1.38-1.632-2.169-2.198c-2.362-1.698-5.37-2.045-8.28-2.383
	c-1.802-0.208-3.503-0.404-5.055-0.897c-1.583-0.504-3.103-1.334-4.71-2.212C50.781,2.101,48.15,0.664,45.299,0.664 M45.702,88.214
	c-2.563,0-4.956-1.308-7.489-2.69c-1.586-0.867-3.226-1.763-4.908-2.297c-1.649-0.524-3.483-0.736-5.256-0.942
	c-2.906-0.336-5.64-0.652-7.764-2.179c-0.691-0.498-1.319-1.138-1.919-1.955c-0.968-1.315-1.71-2.873-2.496-4.522
	c-0.793-1.666-1.614-3.392-2.701-4.869c-1.089-1.481-2.487-2.778-3.84-4.032c-1.341-1.244-2.604-2.418-3.573-3.731
	c-0.601-0.817-1.022-1.608-1.289-2.415c-0.823-2.484-0.308-5.188,0.238-8.051c0.333-1.756,0.68-3.572,0.672-5.308
	c-0.008-1.761-0.373-3.594-0.725-5.366c-0.568-2.848-1.102-5.531-0.321-7.984c0.771-2.425,2.751-4.301,4.848-6.288
	c1.318-1.25,2.682-2.54,3.726-3.994c0.989-1.377,1.748-3.034,2.48-4.637c1.166-2.55,2.37-5.183,4.527-6.77
	c2.157-1.584,5.028-1.946,7.805-2.297c1.767-0.223,3.569-0.451,5.175-0.984c1.701-0.563,3.339-1.478,4.924-2.362
	c2.522-1.408,4.904-2.737,7.45-2.749h0.032c2.565,0,4.956,1.306,7.488,2.689c1.585,0.866,3.224,1.761,4.907,2.297
	c1.654,0.526,3.49,0.739,5.267,0.944c2.901,0.336,5.632,0.652,7.755,2.179c0.689,0.497,1.318,1.136,1.919,1.953
	c0.97,1.317,1.71,2.875,2.495,4.525c0.795,1.668,1.616,3.392,2.7,4.868c1.091,1.483,2.487,2.779,3.841,4.033
	c1.344,1.246,2.605,2.418,3.573,3.733c0.603,0.817,1.022,1.607,1.289,2.415c0.823,2.483,0.308,5.188-0.237,8.051
	c-0.335,1.756-0.68,3.573-0.672,5.307c0.009,1.763,0.371,3.597,0.727,5.368c0.564,2.844,1.101,5.527,0.319,7.981
	c-0.771,2.427-2.752,4.304-4.849,6.289c-1.318,1.249-2.684,2.541-3.728,3.993c-0.989,1.38-1.749,3.038-2.481,4.641
	c-1.164,2.547-2.366,5.18-4.525,6.767c-2.156,1.585-5.029,1.948-7.809,2.299c-1.76,0.223-3.563,0.45-5.172,0.981
	c-1.699,0.563-3.338,1.479-4.924,2.364c-2.521,1.407-4.904,2.736-7.449,2.749h-0.031V88.214z M45.299,2.36h-0.03
	c-2.397,0.012-4.717,1.306-7.173,2.675c-1.608,0.898-3.272,1.827-5.023,2.407c-1.658,0.551-3.489,0.781-5.259,1.005
	c-2.728,0.344-5.524,0.697-7.561,2.194c-2.038,1.498-3.211,4.063-4.344,6.543c-0.746,1.631-1.515,3.314-2.538,4.736
	c-1.077,1.498-2.459,2.808-3.797,4.076c-2.042,1.934-3.97,3.761-4.697,6.045c-0.736,2.314-0.215,4.926,0.335,7.692
	c0.359,1.806,0.73,3.665,0.738,5.483c0.007,1.79-0.343,3.636-0.683,5.418c-0.531,2.787-1.032,5.419-0.256,7.765
	c0.248,0.748,0.643,1.485,1.207,2.254c0.936,1.271,2.181,2.429,3.499,3.65c1.375,1.273,2.793,2.59,3.914,4.115
	c1.12,1.521,1.952,3.27,2.757,4.963c0.774,1.623,1.504,3.156,2.44,4.43c0.564,0.77,1.15,1.366,1.792,1.828
	c2.004,1.439,4.667,1.747,7.485,2.074c1.811,0.209,3.672,0.426,5.375,0.967c1.735,0.551,3.399,1.461,5.008,2.34
	c2.467,1.349,4.797,2.621,7.215,2.621c2.427-0.013,4.747-1.306,7.201-2.677c1.609-0.897,3.272-1.827,5.023-2.407
	c1.66-0.55,3.493-0.781,5.266-1.006c2.721-0.344,5.518-0.695,7.555-2.191c2.039-1.5,3.212-4.064,4.346-6.545
	c0.743-1.627,1.514-3.311,2.538-4.735c1.076-1.496,2.459-2.808,3.796-4.074c2.043-1.935,3.971-3.763,4.697-6.047
	c0.736-2.313,0.215-4.929-0.335-7.696c-0.358-1.8-0.729-3.66-0.739-5.479c-0.007-1.79,0.344-3.633,0.684-5.416
	c0.533-2.788,1.033-5.421,0.258-7.764c-0.248-0.749-0.645-1.487-1.208-2.257c-0.935-1.271-2.177-2.425-3.494-3.646
	c-1.377-1.277-2.798-2.592-3.919-4.119c-1.117-1.521-1.949-3.269-2.756-4.961c-0.773-1.623-1.504-3.157-2.44-4.431
	c-0.563-0.768-1.149-1.366-1.792-1.827c-2.001-1.439-4.66-1.747-7.477-2.073c-1.813-0.209-3.676-0.425-5.383-0.968
	c-1.737-0.552-3.4-1.461-5.008-2.34C50.047,3.633,47.718,2.36,45.299,2.36"/>
<path fill="#36434D" d="M53.814,50.721L34.546,31.453l-0.96,0.96l0.693,0.693l-3.925,3.925l0.862,0.863l0.96-0.961l1.207,1.207
	l1.379-1.379l-0.886-0.887l0.739-0.739l0.887,0.887l0.846-0.847l0.69,0.69l-0.847,0.847l0.886,0.886l-0.739,0.738l-0.886-0.886
	l-1.379,1.379l1.207,1.207l-0.961,0.96l0.862,0.862l3.925-3.925L52.824,51.65c-1.316,1.693-1.198,4.143,0.357,5.697
	c1.687,1.688,4.422,1.688,6.107,0c1.688-1.686,1.688-4.422,0-6.106C57.802,49.752,55.494,49.579,53.814,50.721 M58.052,56.109
	c-1.003,1.002-2.628,1.002-3.629,0c-1.004-1.002-1.004-2.627,0-3.629c1.001-1.004,2.626-1.004,3.629,0
	C59.055,53.482,59.055,55.107,58.052,56.109"/>
<path fill="#36434D" d="M31.619,51.241c-1.687,1.686-1.687,4.422,0,6.106c1.687,1.688,4.421,1.688,6.107,0
	c1.557-1.556,1.676-4.004,0.359-5.697l13.717-13.717l3.927,3.925l0.861-0.862l-0.961-0.96l1.206-1.207l-1.379-1.379l-0.886,0.886
	l-0.739-0.738l0.888-0.887l-0.847-0.846l0.688-0.69l0.847,0.847l0.887-0.887l0.739,0.739l-0.887,0.887l1.379,1.379l1.207-1.207
	l0.959,0.961l0.863-0.862l-3.927-3.927l0.692-0.693l-0.961-0.96L37.095,50.721C35.414,49.579,33.108,49.752,31.619,51.241
	 M32.857,52.48c1.003-1.004,2.627-1.004,3.63,0c1.002,1.002,1.002,2.627,0,3.629s-2.627,1.002-3.63,0
	C31.855,55.107,31.855,53.482,32.857,52.48"/>
<g>
	<g>
		<path fill="#36434D" d="M14.678,36.718L13.1,36.24l0.491-1.628l1.578,0.477l0.133-0.439l-3.367-1.018l-0.133,0.439l1.41,0.426
			l-0.492,1.629L11.311,35.7l-0.131,0.435l3.366,1.017L14.678,36.718z M16.931,30.858l-3.155-1.554l-0.2,0.407l3.154,1.554
			L16.931,30.858z M19.028,27.271l-1.154-0.809c0.081-0.07,0.157-0.171,0.235-0.282c0.255-0.362,0.373-0.758,0.301-1.101
			c-0.047-0.25-0.199-0.471-0.46-0.653c-0.256-0.181-0.53-0.232-0.778-0.171c-0.273,0.063-0.548,0.272-0.805,0.641
			c-0.211,0.298-0.35,0.552-0.446,0.751l2.847,1.996L19.028,27.271z M17.571,26.25l-1.12-0.784c0.027-0.076,0.102-0.209,0.215-0.371
			c0.288-0.411,0.66-0.551,1.041-0.285c0.397,0.279,0.424,0.705,0.109,1.154C17.728,26.088,17.648,26.184,17.571,26.25z
			 M21.597,21.066c-0.477,0.21-0.742,0.247-0.975,0.015c-0.17-0.169-0.245-0.501,0.094-0.841c0.225-0.226,0.465-0.317,0.59-0.355
			l-0.174-0.35c-0.173,0.049-0.416,0.175-0.671,0.429c-0.482,0.484-0.515,1.093-0.127,1.479c0.352,0.351,0.813,0.31,1.362,0.046
			c0.464-0.207,0.73-0.207,0.963,0.025c0.252,0.25,0.234,0.615-0.094,0.944c-0.222,0.222-0.506,0.358-0.738,0.415l0.189,0.35
			c0.221-0.044,0.552-0.238,0.791-0.478c0.586-0.588,0.537-1.204,0.153-1.587C22.595,20.795,22.179,20.806,21.597,21.066z
			 M26.314,15.755l-0.223-0.315l-2.125,1.506l0.225,0.315l0.872-0.618l1.811,2.555l0.374-0.266l-1.811-2.555L26.314,15.755z
			 M31.214,16.141l-0.547-1.145l1.234-0.589l-0.162-0.34l-1.233,0.59l-0.479-1.004l1.305-0.623l-0.164-0.344l-1.715,0.818
			l1.516,3.176l1.785-0.854l-0.164-0.343L31.214,16.141z M37,12.604l-0.004-0.016c0.322-0.22,0.522-0.595,0.398-1.041
			c-0.072-0.262-0.232-0.467-0.445-0.57c-0.264-0.133-0.59-0.135-1.057-0.005c-0.303,0.084-0.611,0.196-0.82,0.304L36,14.62
			l0.438-0.121l-0.408-1.469l0.412-0.113c0.402-0.096,0.633,0.03,0.862,0.471c0.212,0.396,0.368,0.665,0.45,0.745l0.453-0.126
			c-0.107-0.11-0.277-0.414-0.52-0.857C37.509,12.82,37.287,12.622,37,12.604z M36.384,12.575l-0.447,0.123l-0.344-1.236
			c0.066-0.04,0.211-0.102,0.422-0.16c0.465-0.124,0.834-0.021,0.955,0.417C37.078,12.105,36.852,12.444,36.384,12.575z
			 M47.122,11.34v-0.011c0.375-0.123,0.609-0.413,0.621-0.752c0.008-0.276-0.096-0.489-0.273-0.631
			c-0.213-0.184-0.502-0.271-0.955-0.287c-0.318-0.01-0.632,0.012-0.833,0.047l-0.112,3.458c0.15,0.025,0.39,0.054,0.704,0.064
			c0.571,0.019,0.972-0.073,1.226-0.289c0.182-0.167,0.311-0.392,0.32-0.694C47.835,11.724,47.452,11.434,47.122,11.34z
			 M46.126,10.028c0.074-0.014,0.194-0.025,0.4-0.019c0.461,0.015,0.768,0.187,0.754,0.6c-0.01,0.339-0.299,0.579-0.779,0.564
			l-0.412-0.014L46.126,10.028z M46.416,12.878c-0.162-0.006-0.294-0.015-0.382-0.033l0.043-1.34l0.378,0.012
			c0.493,0.017,0.899,0.228,0.884,0.707C47.323,12.735,46.884,12.894,46.416,12.878z M52.849,10.401
			c-0.307-0.064-0.633-0.107-0.867-0.109l-0.727,3.393L51.7,13.78l0.318-1.49l0.418,0.089c0.4,0.102,0.547,0.319,0.547,0.815
			c0.006,0.449,0.02,0.762,0.053,0.871l0.461,0.098c-0.045-0.147-0.055-0.497-0.064-1c-0.004-0.375-0.111-0.654-0.357-0.803
			l0.004-0.015c0.389-0.045,0.738-0.285,0.836-0.739c0.057-0.266,0.01-0.521-0.131-0.711C53.61,10.655,53.323,10.504,52.849,10.401z
			 M53.46,11.563c-0.084,0.393-0.439,0.589-0.914,0.487l-0.455-0.097l0.268-1.256c0.076-0.005,0.232,0.007,0.447,0.053
			C53.274,10.855,53.556,11.118,53.46,11.563z M57.696,14.386l1.15,0.481l-0.082,1.165l0.449,0.188l0.248-3.709L58.956,12.3
			l-2.457,2.785l0.434,0.181L57.696,14.386z M58.628,13.288c0.146-0.171,0.281-0.346,0.41-0.519l0.01,0.004
			c-0.031,0.208-0.063,0.421-0.078,0.662l-0.072,1.068l-0.979-0.409L58.628,13.288z M65.165,17.364
			c-0.305,0.455-0.533,0.816-0.76,1.23l-0.012-0.002c0.063-0.392,0.1-0.813,0.111-1.301l0.053-2.105l-0.412-0.276l-1.957,2.924
			l0.355,0.237l0.836-1.249c0.326-0.485,0.551-0.843,0.777-1.226l0.016,0.004c-0.064,0.416-0.094,0.881-0.107,1.342l-0.064,2.104
			l0.383,0.255l1.955-2.923l-0.355-0.238L65.165,17.364z M69.661,19.167l-2.447,2.445c0.143,0.181,0.324,0.384,0.553,0.612
			c0.482,0.484,0.992,0.743,1.457,0.744c0.463,0.004,0.92-0.203,1.324-0.608c0.404-0.402,0.563-0.818,0.545-1.243
			c-0.016-0.421-0.236-0.856-0.695-1.317C70.142,19.544,69.886,19.334,69.661,19.167z M70.202,22.035
			c-0.672,0.671-1.428,0.682-2.113-0.005c-0.125-0.125-0.24-0.247-0.307-0.344l1.965-1.962c0.104,0.067,0.244,0.178,0.408,0.344
			C70.835,20.747,70.794,21.452,70.202,22.035z M74.54,24.71l-0.266-0.368l-2.859,2.047l0.266,0.369L74.54,24.71z M73.839,30.257
			l1.35-0.664c0.523-0.258,0.898-0.453,1.285-0.672l0.012,0.011c-0.264,0.328-0.521,0.716-0.764,1.108l-1.107,1.79l0.203,0.412
			l3.156-1.554l-0.189-0.383l-1.32,0.649c-0.492,0.242-0.871,0.44-1.275,0.686l-0.008-0.007c0.25-0.31,0.49-0.655,0.746-1.072
			l1.1-1.797l-0.221-0.445l-3.154,1.554L73.839,30.257z M76.581,35.822c-0.229,0.417-0.246,0.875-0.109,1.39
			c0.123,0.459,0.342,0.816,0.465,0.993l1.633-0.435l-0.297-1.119l-0.354,0.094l0.184,0.691l-1.014,0.27
			c-0.076-0.088-0.17-0.273-0.246-0.562c-0.211-0.791,0.16-1.446,1.021-1.676c0.854-0.228,1.512,0.176,1.73,1.002
			c0.092,0.344,0.088,0.588,0.055,0.791l0.387,0.011c0.031-0.165,0.035-0.496-0.07-0.889c-0.303-1.141-1.23-1.638-2.244-1.374
			C77.192,35.151,76.786,35.454,76.581,35.822z M14.145,54.831l-1.417,0.396l-0.459-1.638l1.418-0.396l-0.122-0.438l-3.388,0.947
			l0.123,0.438l1.588-0.444l0.457,1.638l-1.588,0.444l0.124,0.442l3.388-0.947L14.145,54.831z M15.659,58.782l-3.188,1.483
			l0.191,0.412l3.188-1.483L15.659,58.782z M17.607,62.528l-2.893,1.927l0.252,0.378l1.172-0.781
			c0.037,0.102,0.102,0.209,0.177,0.322c0.246,0.368,0.571,0.622,0.917,0.681c0.252,0.046,0.512-0.015,0.776-0.191
			c0.261-0.174,0.409-0.411,0.442-0.664c0.041-0.277-0.055-0.608-0.304-0.982C17.945,62.912,17.759,62.691,17.607,62.528z
			 M17.74,64.497c-0.404,0.269-0.811,0.14-1.115-0.317c-0.084-0.125-0.145-0.235-0.178-0.333l1.139-0.758
			c0.061,0.054,0.157,0.171,0.268,0.336C18.13,63.842,18.126,64.239,17.74,64.497z M20.378,67.643
			c-0.359,0.341-0.33,0.804-0.084,1.359c0.195,0.471,0.188,0.737-0.051,0.963c-0.257,0.244-0.621,0.216-0.94-0.121
			c-0.216-0.227-0.345-0.515-0.394-0.749l-0.356,0.18c0.039,0.223,0.222,0.56,0.456,0.806c0.57,0.602,1.188,0.57,1.582,0.197
			c0.374-0.356,0.374-0.773,0.131-1.363c-0.197-0.48-0.229-0.748,0.011-0.975c0.175-0.165,0.509-0.229,0.839,0.119
			c0.219,0.23,0.305,0.473,0.338,0.6l0.355-0.165c-0.043-0.174-0.162-0.421-0.41-0.683C21.384,67.314,20.777,67.266,20.378,67.643z
			 M24.591,70.971l0.855,0.641l-1.879,2.506l0.367,0.275l1.879-2.506l0.859,0.645l0.232-0.309l-2.083-1.562L24.591,70.971z
			 M28.173,77.107l1.758,0.902l0.174-0.338l-1.355-0.695l0.58-1.129l1.217,0.624l0.172-0.334l-1.217-0.624l0.507-0.989l1.286,0.66
			l0.174-0.339l-1.689-0.867L28.173,77.107z M35.689,76.456c-0.301-0.093-0.623-0.165-0.854-0.188l-1.027,3.315l0.434,0.134
			l0.45-1.455l0.408,0.127c0.39,0.137,0.516,0.366,0.473,0.861c-0.037,0.448-0.051,0.76-0.025,0.872l0.449,0.139
			c-0.03-0.151-0.009-0.5,0.026-1.003c0.028-0.373-0.053-0.66-0.283-0.831l0.005-0.015c0.391-0.01,0.76-0.217,0.897-0.661
			c0.081-0.259,0.057-0.518-0.065-0.72C36.423,76.777,36.152,76.6,35.689,76.456z M36.193,77.667
			c-0.119,0.384-0.492,0.547-0.956,0.403l-0.443-0.138l0.38-1.226c0.076,0.001,0.23,0.027,0.441,0.093
			C36.071,76.946,36.327,77.233,36.193,77.667z M46.05,79.611v-0.011c0.368-0.142,0.586-0.441,0.582-0.781
			c-0.006-0.276-0.117-0.483-0.302-0.616c-0.224-0.173-0.516-0.247-0.969-0.239c-0.318,0.005-0.632,0.041-0.829,0.086l0.056,3.459
			c0.152,0.019,0.393,0.035,0.705,0.03c0.575-0.01,0.969-0.12,1.21-0.349c0.174-0.175,0.291-0.406,0.285-0.709
			C46.78,79.96,46.385,79.688,46.05,79.611z M44.991,78.351c0.073-0.017,0.192-0.034,0.401-0.037
			c0.459-0.008,0.775,0.148,0.781,0.561c0.006,0.34-0.271,0.593-0.751,0.601l-0.412,0.007L44.991,78.351z M45.417,81.183
			c-0.162,0.003-0.292-0.001-0.381-0.016l-0.021-1.341l0.375-0.006c0.496-0.008,0.912,0.184,0.918,0.664
			C46.318,80.995,45.886,81.175,45.417,81.183z M52.128,79.204l-0.002-0.016c0.342-0.188,0.576-0.543,0.494-1
			c-0.047-0.267-0.188-0.486-0.389-0.608c-0.25-0.158-0.574-0.189-1.051-0.104c-0.311,0.056-0.629,0.138-0.846,0.224l0.607,3.417
			l0.445-0.08l-0.266-1.499l0.422-0.074c0.408-0.058,0.625,0.089,0.813,0.549c0.174,0.414,0.305,0.697,0.379,0.785l0.461-0.082
			c-0.096-0.12-0.236-0.439-0.436-0.902C52.614,79.467,52.411,79.248,52.128,79.204z M51.519,79.116l-0.457,0.081l-0.225-1.265
			c0.068-0.032,0.219-0.08,0.436-0.118c0.473-0.079,0.832,0.059,0.91,0.506C52.253,78.715,51.997,79.031,51.519,79.116z
			 M56.849,75.985l0.121,3.713l0.439-0.165l-0.049-1.164l1.168-0.44l0.744,0.903l0.451-0.171l-2.361-2.869L56.849,75.985z
			 M58.315,77.63l-0.99,0.374l-0.037-1.074c-0.012-0.224-0.033-0.444-0.059-0.658l0.01-0.004c0.121,0.172,0.242,0.35,0.396,0.537
			L58.315,77.63z M63.493,72.654l0.773,1.253c0.289,0.467,0.521,0.827,0.803,1.203l-0.006,0.011
			c-0.332-0.219-0.699-0.428-1.137-0.642l-1.895-0.924l-0.422,0.26l1.846,2.995l0.365-0.225l-0.789-1.279
			c-0.307-0.498-0.537-0.852-0.793-1.216l0.01-0.013c0.352,0.23,0.764,0.45,1.178,0.654l1.887,0.934l0.391-0.24l-1.846-2.996
			L63.493,72.654z M68.89,68.831c-0.422-0.001-0.865,0.204-1.344,0.647c-0.264,0.245-0.482,0.491-0.658,0.709l2.352,2.538
			c0.188-0.137,0.396-0.31,0.633-0.529c0.502-0.465,0.779-0.964,0.797-1.429c0.021-0.461-0.168-0.926-0.557-1.347
			C69.724,69.004,69.313,68.829,68.89,68.831z M69.69,71.868c-0.131,0.12-0.256,0.229-0.355,0.292l-1.887-2.036
			c0.07-0.1,0.186-0.236,0.357-0.396c0.705-0.652,1.408-0.585,1.969,0.026C70.419,70.451,70.401,71.208,69.69,71.868z
			 M71.308,65.488l2.777,2.161l0.279-0.357l-2.777-2.161L71.308,65.488z M74.794,60.079l1.291,0.705
			c0.48,0.262,0.861,0.458,1.293,0.646v0.012c-0.396-0.026-0.818-0.024-1.305,0.007l-2.102,0.137l-0.238,0.436l3.088,1.685
			l0.203-0.376l-1.318-0.719c-0.512-0.28-0.889-0.474-1.291-0.664l0.004-0.016c0.418,0.027,0.887,0.014,1.346-0.015l2.1-0.126
			l0.221-0.402l-3.086-1.686L74.794,60.079z M80.478,54.688l-1.613-0.507l-0.346,1.105l0.348,0.109l0.213-0.682l1.002,0.314
			c0.02,0.114-0.002,0.321-0.092,0.605c-0.244,0.781-0.91,1.137-1.762,0.869c-0.84-0.264-1.182-0.957-0.924-1.772
			c0.105-0.339,0.24-0.543,0.377-0.697l-0.32-0.215c-0.115,0.122-0.295,0.399-0.418,0.788c-0.354,1.125,0.162,2.042,1.162,2.36
			c0.523,0.164,1.027,0.126,1.396-0.075c0.416-0.23,0.68-0.607,0.838-1.116C80.479,55.324,80.489,54.905,80.478,54.688z"/>
	</g>
</g>
</svg>
