<?xml version="1.0" encoding="utf-8"?>
<!-- Generator: Adobe Illustrator 16.0.0, SVG Export Plug-In . SVG Version: 6.00 Build 0)  -->
<!DOCTYPE svg PUBLIC "-//W3C//DTD SVG 1.1//EN" "http://www.w3.org/Graphics/SVG/1.1/DTD/svg11.dtd">
<svg version="1.1" id="Layer_1" xmlns="http://www.w3.org/2000/svg" xmlns:xlink="http://www.w3.org/1999/xlink" x="0px" y="0px"
	 width="120px" height="89.954px" viewBox="0 0 120 89.954" enable-background="new 0 0 120 89.954" xml:space="preserve">
<g>
	<g>
		<path fill="#18B870" d="M26.785,68.123l-0.379,0.235l0.469,0.76l0.379-0.234L26.785,68.123z M30.896,69.488l-0.35-0.481
			l-3.358,2.461l0.963,1.324l0.36-0.264l-0.613-0.843L30.896,69.488z M33.662,73.341c0.054-0.289-0.055-0.585-0.325-0.889
			c-0.139-0.156-0.28-0.27-0.425-0.341s-0.291-0.101-0.439-0.086s-0.296,0.061-0.444,0.14c-0.147,0.078-0.303,0.19-0.466,0.336
			l-1.124,1.01c-0.163,0.146-0.292,0.289-0.388,0.429c-0.096,0.141-0.16,0.284-0.192,0.433c-0.032,0.147-0.022,0.298,0.029,0.452
			c0.053,0.154,0.148,0.31,0.288,0.466c0.138,0.155,0.28,0.267,0.428,0.335c0.147,0.069,0.297,0.096,0.447,0.079
			s0.301-0.064,0.45-0.144c0.15-0.08,0.306-0.191,0.466-0.336l1.125-1.009C33.419,73.922,33.609,73.631,33.662,73.341z M31.46,74.88
			c-0.182,0.164-0.347,0.258-0.493,0.282c-0.146,0.023-0.289-0.042-0.429-0.198c-0.139-0.156-0.188-0.306-0.147-0.449
			c0.04-0.144,0.151-0.297,0.333-0.461l1.346-1.207c0.18-0.162,0.341-0.253,0.482-0.273c0.141-0.021,0.282,0.048,0.422,0.205
			c0.141,0.157,0.192,0.306,0.156,0.444s-0.144,0.288-0.324,0.45L31.46,74.88z M35.422,75.002c-0.262,0.007-0.496,0.124-0.701,0.352
			c-0.142,0.157-0.237,0.323-0.288,0.501c-0.05,0.177-0.061,0.352-0.031,0.522l0.152,0.942c0.015,0.088,0.023,0.159,0.028,0.215
			c0.004,0.056,0.004,0.123-0.002,0.203c-0.005,0.08-0.024,0.155-0.057,0.228s-0.078,0.141-0.138,0.207
			c-0.199,0.221-0.409,0.231-0.629,0.031c-0.272-0.247-0.22-0.602,0.157-1.063l-0.54-0.289c-0.238,0.299-0.358,0.597-0.359,0.893
			s0.138,0.57,0.415,0.822c0.235,0.214,0.479,0.319,0.734,0.318s0.484-0.115,0.688-0.342c0.299-0.332,0.409-0.75,0.33-1.255
			l-0.151-0.941c-0.041-0.251,0.017-0.463,0.173-0.637c0.096-0.106,0.199-0.163,0.31-0.17c0.111-0.007,0.22,0.037,0.325,0.133
			c0.132,0.12,0.193,0.253,0.186,0.399s-0.065,0.299-0.173,0.457c-0.03,0.044-0.055,0.075-0.07,0.096l0.54,0.29
			c0.033-0.047,0.06-0.084,0.078-0.111c0.168-0.256,0.233-0.512,0.196-0.769c-0.037-0.256-0.18-0.498-0.43-0.725
			C35.933,75.098,35.685,74.996,35.422,75.002z M38.078,82.192l0.5,0.32l0.748-0.758l0.626,0.401l-0.373,0.999l0.501,0.321
			l1.49-3.997l-0.501-0.32L38.078,82.192z M40.13,81.739l-0.501-0.32l1.211-1.347L40.13,81.739z M44.033,83.804l0.223-2.773
			l-0.397-0.201l-1.865,3.729l0.531,0.268l1.24-2.48l-0.29,2.959l0.377,0.189l1.865-3.729l-0.531-0.267L44.033,83.804z
			 M49.072,83.187c-0.113-0.104-0.261-0.19-0.441-0.259c-0.757-0.282-1.313,0.055-1.668,1.013l-0.368,0.99
			c-0.072,0.195-0.126,0.371-0.163,0.528c-0.037,0.156-0.056,0.312-0.057,0.465c-0.001,0.154,0.023,0.29,0.074,0.408
			c0.05,0.118,0.131,0.228,0.244,0.327c0.112,0.1,0.257,0.184,0.436,0.25c0.263,0.098,0.505,0.015,0.727-0.25L47.84,87.13
			l0.417,0.156l0.724-1.951l-1.113-0.416l-0.153,0.415l0.557,0.207l-0.052,0.141c-0.042,0.111-0.083,0.21-0.123,0.294
			c-0.041,0.084-0.089,0.167-0.145,0.247c-0.057,0.08-0.115,0.141-0.177,0.184c-0.061,0.043-0.132,0.069-0.214,0.08
			s-0.169-0.001-0.262-0.035c-0.078-0.029-0.143-0.067-0.194-0.114c-0.051-0.046-0.088-0.1-0.111-0.16
			c-0.022-0.062-0.037-0.125-0.043-0.191s-0.001-0.142,0.015-0.225c0.015-0.083,0.033-0.163,0.056-0.24
			c0.021-0.077,0.05-0.162,0.084-0.255l0.467-1.258c0.047-0.126,0.097-0.233,0.149-0.322s0.114-0.165,0.186-0.229
			c0.07-0.063,0.152-0.102,0.245-0.114s0.196,0.002,0.31,0.045c0.082,0.03,0.149,0.069,0.2,0.116
			c0.052,0.046,0.088,0.096,0.109,0.149s0.03,0.116,0.028,0.188c-0.003,0.071-0.013,0.143-0.029,0.211
			c-0.017,0.069-0.041,0.15-0.074,0.242l-0.043,0.118l0.557,0.208c0.02-0.054,0.034-0.095,0.042-0.121
			c0.062-0.188,0.097-0.359,0.107-0.515c0.01-0.156-0.007-0.303-0.051-0.438C49.264,83.412,49.186,83.292,49.072,83.187z
			 M50.495,87.969l1.581,0.415l0.112-0.433l-1.006-0.264l0.376-1.442l0.719,0.188l0.112-0.433l-0.718-0.188l0.338-1.297l1.006,0.264
			l0.112-0.433l-1.58-0.415L50.495,87.969z M55.525,84.822l-0.586-0.099l-0.687,4.116l1.611,0.271l0.073-0.441l-1.025-0.172
			L55.525,84.822z M57.99,89.357l1.629,0.125l0.034-0.446l-1.037-0.079l0.113-1.486l0.74,0.057l0.034-0.445l-0.74-0.057l0.102-1.338
			l1.037,0.08l0.033-0.446l-1.629-0.125L57.99,89.357z M63.324,87.428l-0.755-0.58c-0.201-0.154-0.304-0.349-0.309-0.583
			c-0.003-0.143,0.033-0.255,0.109-0.337c0.075-0.081,0.185-0.123,0.327-0.127c0.178-0.003,0.313,0.051,0.408,0.163
			c0.094,0.112,0.156,0.263,0.187,0.452c0.007,0.052,0.012,0.092,0.014,0.118l0.591-0.161c-0.007-0.058-0.014-0.103-0.019-0.135
			c-0.053-0.302-0.18-0.533-0.382-0.694s-0.472-0.238-0.81-0.231c-0.313,0.007-0.563,0.103-0.751,0.288
			c-0.186,0.186-0.276,0.432-0.27,0.739c0.004,0.211,0.049,0.398,0.133,0.562c0.085,0.164,0.196,0.298,0.335,0.402l0.754,0.58
			c0.071,0.055,0.127,0.101,0.168,0.138s0.087,0.087,0.138,0.148c0.051,0.063,0.089,0.131,0.114,0.205
			c0.025,0.075,0.039,0.156,0.041,0.245c0.006,0.298-0.14,0.45-0.437,0.456c-0.366,0.008-0.57-0.286-0.612-0.882l-0.591,0.161
			c0.031,0.382,0.147,0.681,0.35,0.896c0.201,0.217,0.489,0.32,0.863,0.313c0.317-0.006,0.568-0.098,0.753-0.273
			s0.273-0.417,0.267-0.723C63.933,88.122,63.727,87.742,63.324,87.428z M66.651,88.675l-0.591,0.063l0.063,0.593l0.295-0.031
			c0.012,0.104-0.004,0.183-0.044,0.234c-0.041,0.051-0.114,0.082-0.22,0.093l0.179,0.281c0.073-0.008,0.135-0.024,0.185-0.05
			c0.05-0.026,0.088-0.057,0.115-0.094c0.027-0.036,0.047-0.083,0.06-0.142s0.019-0.116,0.02-0.174c0-0.059-0.003-0.129-0.009-0.213
			C66.692,89.084,66.675,88.897,66.651,88.675z M73.523,86.4l-0.575,0.15l0.038,0.145c0.025,0.1,0.045,0.188,0.059,0.264
			c0.014,0.077,0.021,0.157,0.021,0.242c0,0.085-0.011,0.158-0.032,0.218c-0.022,0.061-0.06,0.115-0.112,0.164
			c-0.053,0.05-0.121,0.085-0.207,0.107c-0.085,0.022-0.164,0.025-0.236,0.01c-0.071-0.016-0.134-0.044-0.186-0.087
			s-0.1-0.1-0.144-0.171c-0.044-0.07-0.081-0.145-0.109-0.22c-0.028-0.076-0.055-0.162-0.08-0.259l-0.375-1.441
			c-0.029-0.111-0.05-0.206-0.063-0.283c-0.015-0.077-0.021-0.158-0.021-0.243c-0.001-0.085,0.012-0.156,0.036-0.213
			c0.025-0.058,0.067-0.109,0.126-0.157s0.135-0.083,0.228-0.107c0.072-0.02,0.137-0.027,0.195-0.026
			c0.058,0.002,0.108,0.015,0.152,0.04c0.044,0.024,0.083,0.054,0.116,0.087c0.034,0.034,0.064,0.079,0.092,0.136
			c0.027,0.058,0.051,0.113,0.07,0.169c0.02,0.055,0.04,0.122,0.063,0.201l0.033,0.129l0.574-0.151
			c-0.016-0.06-0.027-0.104-0.036-0.132c-0.058-0.188-0.125-0.35-0.203-0.481c-0.079-0.132-0.173-0.241-0.282-0.328
			c-0.109-0.086-0.24-0.14-0.391-0.16c-0.15-0.02-0.319-0.005-0.507,0.044c-0.169,0.045-0.312,0.107-0.428,0.189
			s-0.205,0.176-0.266,0.281c-0.06,0.105-0.1,0.229-0.118,0.369s-0.02,0.285-0.003,0.435c0.017,0.15,0.048,0.315,0.096,0.498
			l0.299,1.15c0.048,0.183,0.101,0.343,0.159,0.481s0.13,0.265,0.215,0.378c0.084,0.113,0.179,0.201,0.283,0.265
			s0.228,0.103,0.368,0.117c0.142,0.014,0.297-0.001,0.466-0.045c0.197-0.052,0.358-0.128,0.482-0.228
			c0.123-0.1,0.21-0.221,0.26-0.363c0.051-0.143,0.073-0.297,0.069-0.464c-0.005-0.168-0.034-0.355-0.089-0.564L73.523,86.4z
			 M75.182,83.016l0.622,4.221l0.556-0.208l-0.155-1.056l0.696-0.261l0.572,0.898l0.557-0.209l-2.291-3.595L75.182,83.016z
			 M76.674,85.32l-0.556,0.208l-0.347-1.779L76.674,85.32z M80.374,84.848l-1.625-3.35l-0.534,0.261l1.82,3.752l1.469-0.718
			l-0.195-0.402L80.374,84.848z M81.27,80.155l2.117,3.592l0.512-0.304l-2.117-3.592L81.27,80.155z M85.979,79.737l-0.258-0.365
			l-0.605,0.431l-0.772-1.096l0.849-0.602l-0.257-0.365l-1.334,0.946l2.401,3.406l0.485-0.344l-1.115-1.582L85.979,79.737z
			 M89.817,77.357l-0.988-1.144c-0.288-0.333-0.576-0.528-0.864-0.586c-0.287-0.058-0.584,0.046-0.891,0.313
			c-0.157,0.138-0.272,0.278-0.346,0.422c-0.073,0.145-0.104,0.291-0.092,0.439c0.012,0.148,0.056,0.298,0.132,0.447
			c0.075,0.15,0.186,0.308,0.328,0.473l0.988,1.144c0.144,0.165,0.284,0.297,0.422,0.396c0.139,0.099,0.281,0.165,0.428,0.199
			c0.146,0.035,0.298,0.027,0.452-0.022c0.154-0.051,0.31-0.145,0.468-0.281c0.156-0.137,0.271-0.278,0.341-0.425
			s0.1-0.296,0.085-0.447c-0.014-0.151-0.06-0.303-0.136-0.454C90.067,77.677,89.958,77.52,89.817,77.357z M89.535,78.787
			c-0.158,0.137-0.308,0.185-0.45,0.142s-0.294-0.156-0.454-0.342l-1.183-1.368c-0.158-0.184-0.246-0.346-0.265-0.488
			c-0.019-0.142,0.052-0.282,0.211-0.42c0.158-0.139,0.307-0.188,0.444-0.15s0.286,0.149,0.443,0.332l1.184,1.368
			c0.16,0.186,0.251,0.352,0.272,0.499C89.761,78.506,89.693,78.649,89.535,78.787z M91.952,73.622
			c-0.062-0.179-0.184-0.354-0.364-0.522c-0.292-0.273-0.578-0.386-0.856-0.339s-0.568,0.233-0.87,0.558l-0.507,0.545l3.042,2.846
			l0.405-0.437l-1.412-1.32l0.304-0.327l1.82,0.882l0.402-0.433l-1.977-0.933C92.01,73.974,92.015,73.801,91.952,73.622z
			 M91.165,74.538l-0.102,0.109l-0.978-0.915l0.102-0.109c0.168-0.182,0.333-0.282,0.494-0.301c0.16-0.02,0.328,0.052,0.501,0.214
			c0.173,0.161,0.256,0.323,0.247,0.486C91.422,74.184,91.334,74.356,91.165,74.538z M92.903,69.666l2.052,1.554l-2.678-0.721
			l-0.269,0.356l3.319,2.514l0.357-0.476l-2.208-1.672l2.849,0.82l0.254-0.338l-3.319-2.514L92.903,69.666z M94.425,67.433
			l3.529,2.208l0.313-0.506l-3.528-2.208L94.425,67.433z M96.101,64.507l3.305,2.688l0.269-0.532l-0.826-0.671l0.337-0.665
			l1.027,0.273l0.269-0.531l-4.11-1.093L96.101,64.507z M98.753,65.191l-0.269,0.531l-1.454-1.075L98.753,65.191z M99.863,62.767
			l0.412,0.168l0.336-0.828l-0.412-0.168L99.863,62.767z M26.46,24.105l0.407-0.578l-1.5-2.046l0.013-0.018l2.422,0.738l0.424-0.602
			l-2.956-4.228l-0.157-0.111L24.38,18.3l1.17,1.61l0.564,0.673l-0.013,0.018l-2.654-0.843c-0.115,0.164-0.197,0.28-0.313,0.444
			l1.683,2.22l-0.013,0.018l-0.819-0.311l-1.906-0.565l-0.745,1.057l0.156,0.111L26.46,24.105z M28.763,14.984l1.952,1.957
			l-0.448,0.45l0.792,0.794l1.789-1.797l-0.792-0.794l-0.448,0.45l-1.953-1.957l0.414-0.415l-0.787-0.789l-1.719,1.727l0.787,0.789
			L28.763,14.984z M36.294,13.468l-1.447-1.986l3.482,0.502l0.368-0.271l-2.949-4.047c-0.352,0.258-0.702,0.515-1.054,0.772
			l1.443,1.98l-3.492-0.503l-0.374,0.274l2.958,4.059C35.58,13.992,35.938,13.73,36.294,13.468z M40.762,6.077l1.725,3.455
			c0.376-0.189,0.752-0.378,1.129-0.567l-1.725-3.455l1.09-0.548c-0.172-0.346-0.342-0.685-0.511-1.023l-3.315,1.666
			c0.169,0.34,0.338,0.679,0.511,1.024L40.762,6.077z M50.663,6.27c-0.115-0.36-0.233-0.729-0.347-1.083
			c-0.713,0.229-1.12,0.361-1.819,0.586c-0.092-0.286-0.179-0.559-0.268-0.838l1.615-0.521c-0.115-0.36-0.23-0.722-0.347-1.083
			l-1.615,0.521l-0.216-0.675c0.699-0.225,1.053-0.339,1.759-0.566c-0.118-0.367-0.235-0.735-0.349-1.09
			c-1.114,0.358-1.867,0.602-2.968,0.956c0.506,1.58,1.016,3.174,1.525,4.769C48.735,6.891,49.55,6.629,50.663,6.27z M55.28,5.288
			L55.067,3.83l0.656-0.096l1.059,1.333l1.41-0.206l-0.026-0.185l-1.195-1.429c1.125-1.032,0.432-3.323-1.51-3.046
			c-0.719,0.105-1.452,0.213-2.165,0.317c0.241,1.656,0.481,3.305,0.722,4.954C54.427,5.413,54.857,5.35,55.28,5.288z M55.626,1.334
			c0.721-0.099,0.865,1.138,0.181,1.238l-0.902,0.132c-0.059-0.396-0.122-0.835-0.181-1.238C55.02,1.423,55.329,1.371,55.626,1.334z
			 M69.479,3.868c0.152-1.242-0.791-1.511-1.762-1.738c-0.439-0.104-0.798-0.228-0.724-0.601c0.114-0.584,1.452-0.477,1.371,0.184
			c0.431,0.053,0.757,0.093,1.202,0.148c0.291-2.141-3.558-2.615-3.777-0.466c-0.118,1.08,0.544,1.537,1.609,1.747
			c0.492,0.09,0.893,0.219,0.851,0.566c-0.071,0.582-1.62,0.384-1.543-0.248c-0.431-0.053-0.799-0.099-1.224-0.151
			C65.187,5.493,69.223,5.954,69.479,3.868z M74.113,5.151l0.882,0.265c2.289,0.686,3.35-2.88,1.063-3.572
			c-0.704-0.211-1.414-0.424-2.104-0.63c-0.477,1.604-0.952,3.201-1.428,4.799c0.403,0.121,0.813,0.243,1.224,0.366L74.113,5.151z
			 M74.85,2.676c0.28,0.084,0.59,0.169,0.875,0.262c0.709,0.22,0.262,1.572-0.408,1.371l-0.874-0.262
			C74.559,3.657,74.733,3.067,74.85,2.676z M84.859,8.371c1.572-3.081-2.983-5.42-4.555-2.339
			C78.729,9.119,83.285,11.458,84.859,8.371z M81.472,6.631c0.818-1.604,3.045-0.461,2.227,1.144
			C82.874,9.391,80.647,8.248,81.472,6.631z M88.408,12.042l0.525,0.405l-0.216,1.69l1.13,0.871l0.113-0.146l0.189-1.856
			c1.521,0.091,2.676-2.004,1.126-3.208C90.7,9.353,90.112,8.9,89.541,8.459c-1.016,1.327-2.027,2.648-3.039,3.97
			c0.328,0.253,0.673,0.519,1.012,0.78L88.408,12.042z M89.858,10.147c0.237,0.184,0.49,0.369,0.724,0.558
			c0.572,0.45-0.212,1.415-0.76,0.993l-0.724-0.559C89.342,10.822,89.611,10.47,89.858,10.147z M93.487,18.637l2.802-2.646
			l0.836,0.891c0.28-0.265,0.555-0.524,0.83-0.784l-2.539-2.708c-0.275,0.26-0.551,0.52-0.831,0.784l0.84,0.896l-2.803,2.646
			C92.91,18.023,93.199,18.331,93.487,18.637z M97.353,20.85c-1.829,1.219,0.491,4.566,2.223,3.38
			c1.03-0.706,0.606-1.594,0.137-2.476c-0.212-0.4-0.356-0.752-0.028-0.942c0.513-0.299,1.315,0.779,0.768,1.154
			c0.246,0.36,0.431,0.632,0.684,1.005c1.795-1.195-0.393-4.409-2.146-3.155c-0.887,0.625-0.791,1.426-0.245,2.368
			c0.258,0.43,0.427,0.816,0.138,1.014c-0.482,0.331-1.357-0.967-0.833-1.326C97.803,21.511,97.594,21.205,97.353,20.85z
			 M55.187,71.322c0-0.97-1.038-1.101-1.038-1.799c0-0.242,0.096-0.334,0.266-0.334c0.169,0,0.266,0.092,0.266,0.334v0.141h0.502
			v-0.106c0-0.543-0.266-0.853-0.782-0.853s-0.782,0.31-0.782,0.853c0,0.97,1.038,1.101,1.038,1.799
			c0,0.242-0.106,0.329-0.275,0.329s-0.275-0.087-0.275-0.329v-0.243h-0.502v0.209c0,0.543,0.271,0.853,0.792,0.853
			S55.187,71.865,55.187,71.322z M55.49,72.136h0.531v-3.394H55.49V72.136z M58.089,68.743h-0.474v2.031l-0.546-2.031h-0.666v3.394
			h0.478v-2.458l0.662,2.458h0.546V68.743z M59.219,68.705c-0.521,0-0.793,0.31-0.793,0.853v1.765c0,0.543,0.271,0.853,0.793,0.853
			s0.792-0.31,0.792-0.853v-0.451h-0.503v0.485c0,0.242-0.105,0.329-0.274,0.329c-0.17,0-0.275-0.087-0.275-0.329v-1.833
			c0-0.242,0.105-0.334,0.275-0.334c0.169,0,0.274,0.092,0.274,0.334v0.364h0.503v-0.33C60.011,69.014,59.74,68.705,59.219,68.705z
			 M61.783,71.651h-0.918v-0.993h0.729v-0.484h-0.729v-0.945h0.918v-0.485h-1.449v3.394h1.449V71.651z M63.651,68.705
			c-0.521,0-0.792,0.31-0.792,0.853v0.33h0.502v-0.364c0-0.242,0.106-0.334,0.275-0.334c0.17,0,0.275,0.082,0.275,0.388
			c0,0.979-1.053,1.144-1.053,2.143v0.417h1.536v-0.485h-1.005c-0.102-0.596,1.053-0.979,1.053-2.094
			C64.443,69.014,64.173,68.705,63.651,68.705z M66.342,71.322v-1.765c0-0.543-0.285-0.853-0.807-0.853
			c-0.522,0-0.807,0.31-0.807,0.853v1.765c0,0.543,0.284,0.853,0.807,0.853C66.057,72.174,66.342,71.865,66.342,71.322z
			 M65.811,71.356c0,0.242-0.106,0.334-0.275,0.334c-0.17,0-0.275-0.092-0.275-0.334v-1.833c0-0.242,0.105-0.334,0.275-0.334
			c0.169,0,0.275,0.092,0.275,0.334V71.356z M67.013,69.169v0.378h0.41v2.589h0.531v-3.394h-0.357
			C67.515,68.971,67.423,69.169,67.013,69.169z M70.017,68.743h-0.58l-0.966,2.293v0.484h1.015v0.616h0.531V71.52h0.251v-0.484
			h-0.251V68.743z M69.485,71.036h-0.527l0.527-1.256V71.036z M29.469,57.41c0-0.156-0.146-0.382-0.44-0.676
			c-0.238-0.221-0.531-0.57-0.88-1.049c-0.293-0.433-0.601-1.054-0.921-1.863c-0.303-0.91-0.532-1.807-0.688-2.69
			c-0.238-1.582-0.357-3.256-0.357-5.021c0-0.699,0.037-1.877,0.11-3.532c0.019-0.285,0.027-0.553,0.027-0.801
			c0-0.322-0.071-0.528-0.213-0.621c-0.143-0.092-0.483-0.138-1.024-0.138c-1.045,0-1.897,0.143-2.557,0.427
			c-0.229,0.092-0.415,0.184-0.558,0.275c-0.142,0.093-0.268,0.195-0.378,0.311c-0.11,0.114-0.243,0.273-0.398,0.475
			c-0.972,1.47-2.539,4.651-4.702,9.546l-0.275,0.62c-0.193-0.257-0.341-0.557-0.442-0.901c-0.102-0.344-0.249-1.107-0.442-2.291
			c0-0.082-0.027-0.252-0.083-0.509c0-0.073-0.005-0.133-0.014-0.179c-0.01-0.046-0.019-0.099-0.027-0.158
			c-0.01-0.06-0.023-0.145-0.042-0.255c-0.286-1.945-0.571-3.431-0.855-4.456s-0.592-1.713-0.922-2.063
			c-0.532-0.562-1.427-0.842-2.685-0.842c-0.624,0-1.202,0.09-1.734,0.27c-0.532,0.179-0.799,0.37-0.799,0.572
			c0,0.129,0.106,0.28,0.319,0.455c0.277,0.239,0.416,0.455,0.416,0.648c0,0.175-0.271,0.808-0.812,1.897s-1.583,3.116-3.124,6.077
			l-0.66,1.242c-1,1.904-1.748,3.225-2.243,3.96l-0.798,1.242c-0.459,0.681-0.757,1.104-0.895,1.269C0.124,58.909,0,59.116,0,59.272
			c0,0.175,0.083,0.317,0.247,0.428c0.165,0.11,0.357,0.166,0.577,0.166c0.577,0,1.186-0.145,1.827-0.436
			c0.641-0.29,1.231-0.692,1.771-1.209c0.348-0.387,0.591-0.686,0.728-0.897c0.303-0.451,0.579-0.907,0.831-1.368
			c0.252-0.46,0.585-1.118,0.998-1.974s0.809-1.701,1.186-2.539c0.046-0.101,0.211-0.469,0.496-1.104
			c0.284-0.634,0.496-1.104,0.634-1.407c0.138-0.303,0.345-0.759,0.62-1.365h0.056c0.129,1.666,0.278,3.076,0.448,4.231
			c0.171,1.155,0.368,2.154,0.595,2.996c0.225,0.842,0.517,1.668,0.875,2.478c0.349,0.764,0.754,1.387,1.218,1.869
			c0.463,0.483,0.888,0.725,1.272,0.725c0.138,0,0.306-0.039,0.503-0.117s0.373-0.191,0.529-0.338
			c0.046-0.037,0.097-0.088,0.151-0.152s0.092-0.105,0.11-0.124c0.321-0.45,1.004-1.762,2.05-3.933
			c0.33-0.681,0.617-1.265,0.86-1.752s0.558-1.104,0.942-1.849c0.386-0.745,0.867-1.675,1.445-2.787h0.055
			c0.009,0.184,0.046,0.993,0.11,2.428c0.046,1.325,0.138,2.417,0.274,3.277c0.138,0.86,0.347,1.582,0.626,2.166
			s0.657,1.115,1.135,1.594c0.935,0.984,1.976,1.477,3.121,1.477c0.815,0,1.632-0.396,2.448-1.187
			C29.226,58.082,29.469,57.695,29.469,57.41z M43.756,49.083c-0.284-0.4-0.612-0.708-0.983-0.924
			c-0.371-0.217-0.763-0.324-1.176-0.324c-0.357,0-0.798,0.096-1.32,0.289s-0.994,0.433-1.416,0.718
			c-0.376,0.267-0.563,0.465-0.563,0.593c0,0.093,0.133,0.244,0.398,0.456c0.623,0.469,1.098,1.046,1.424,1.731
			c0.324,0.686,0.487,1.419,0.487,2.2c0,0.957-0.261,1.794-0.783,2.512s-1.133,1.076-1.829,1.076c-0.752,0-1.361-0.306-1.829-0.918
			c-0.468-0.611-0.701-1.418-0.701-2.421c0-0.911,0.14-1.775,0.419-2.594c0.28-0.819,0.67-1.555,1.169-2.208
			c0.5-0.653,1.07-1.168,1.712-1.545c0.642-0.378,1.334-0.589,2.077-0.635c0.614-0.028,0.921-0.226,0.921-0.594
			c0-0.322-0.683-0.482-2.049-0.482c-1.1,0-2.188,0.25-3.266,0.752c-1.077,0.501-2.063,1.187-2.957,2.056
			c-0.894,0.869-1.602,1.837-2.124,2.904s-0.784,2.134-0.784,3.201c0,1.352,0.367,2.396,1.101,3.132
			c0.55,0.543,1.295,0.979,2.234,1.311s1.886,0.497,2.84,0.497c0.98,0,2.015-0.236,3.101-0.711c1.086-0.474,2.015-1.083,2.784-1.828
			c0.596-0.588,1.077-1.359,1.444-2.311c0.366-0.952,0.55-1.916,0.55-2.891c0-0.589-0.075-1.144-0.227-1.663
			S44.04,49.483,43.756,49.083z M54.303,55.575c-0.019,0.331-0.037,0.6-0.055,0.807c-0.019,0.207-0.028,0.353-0.028,0.435
			c0,0.663,0.11,1.224,0.33,1.684c0.221,0.46,0.544,0.808,0.97,1.042s0.938,0.352,1.533,0.352c0.65,0,1.224-0.105,1.719-0.317
			c0.495-0.211,0.742-0.455,0.742-0.731l-0.096-0.786c-0.027-0.331-0.073-0.805-0.138-1.421c0-0.239-0.002-0.435-0.007-0.587
			c-0.005-0.151-0.012-0.319-0.021-0.503c0-0.92,0.055-2.043,0.165-3.367c0.064-0.681,0.096-1.154,0.096-1.421
			c0-1.278-0.367-1.918-1.102-1.918c-0.385,0-0.872,0.205-1.459,0.614c-0.588,0.409-1.346,1.074-2.272,1.993l-0.44,0.47l-0.51,0.51
			c-0.523,0.524-0.927,0.962-1.212,1.312c-0.459,0.515-0.798,0.869-1.019,1.063c-0.22,0.192-0.398,0.289-0.536,0.289
			c-0.146,0-0.22-0.105-0.22-0.317c0-0.359,0.395-1.377,1.183-3.053l0.165-0.4c0.304-0.625,0.524-1.163,0.662-1.613
			c0.139-0.451,0.21-0.878,0.215-1.282c0-0.588-0.179-1.062-0.536-1.42s-0.825-0.537-1.402-0.537c-0.422,0-0.789,0.069-1.101,0.207
			c-0.889,0.35-1.641,1.315-2.255,2.897c-0.56,1.426-1.004,2.872-1.334,4.339c-0.33,1.468-0.495,2.753-0.495,3.856
			c0,0.653,0.149,1.185,0.447,1.594s0.694,0.614,1.189,0.614c0.293,0,0.678-0.117,1.154-0.352c0.477-0.235,1.073-0.603,1.788-1.104
			c0.715-0.501,1.623-1.184,2.723-2.049c0.568-0.441,0.876-0.676,0.921-0.703L54.303,55.575z M67.95,54.981
			c0.243-0.257,0.562-0.606,0.956-1.049l0.055,0.056c-0.11,0.727-0.165,1.356-0.165,1.891c0,0.8,0.117,1.518,0.351,2.152
			c0.234,0.635,0.564,1.131,0.99,1.49c0.426,0.358,0.9,0.538,1.423,0.538c0.321,0,0.716-0.093,1.183-0.276
			c0.468-0.184,0.844-0.4,1.128-0.648c0.11-0.083,0.165-0.197,0.165-0.345c0-0.119-0.046-0.345-0.138-0.676
			c-0.128-0.35-0.225-0.699-0.289-1.049c-0.091-0.57-0.137-1.315-0.137-2.235c0-0.818,0.055-1.692,0.165-2.622
			c0.073-0.698,0.109-1.228,0.109-1.586c0-0.865-0.133-1.472-0.398-1.821s-0.724-0.524-1.374-0.524
			c-0.402,0-0.799,0.102-1.188,0.304c-0.389,0.203-0.828,0.532-1.318,0.988s-1.154,1.15-1.992,2.082l-0.829,0.968l-0.055-0.055
			c0.38-1.699,0.569-3.004,0.569-3.915c0-1.241-0.477-1.862-1.431-1.862c-0.587,0-1.086,0.207-1.499,0.621
			c-0.604,0.635-1.118,1.518-1.54,2.648c-0.274,0.681-0.529,1.398-0.763,2.152c-0.234,0.755-0.436,1.488-0.605,2.201
			s-0.305,1.382-0.405,2.008c-0.102,0.625-0.151,1.154-0.151,1.586c0,0.699,0.184,1.27,0.55,1.711
			c0.366,0.442,0.844,0.663,1.431,0.663c0.431,0,0.815-0.171,1.154-0.511c0.229-0.276,0.481-0.598,0.757-0.966
			c0.715-0.947,1.586-2.01,2.612-3.188C67.48,55.483,67.707,55.239,67.95,54.981z M76.222,51.242
			c-0.34,1.251-0.589,2.249-0.75,2.994c-0.16,0.745-0.24,1.348-0.24,1.808c0,1.076,0.301,1.941,0.902,2.594
			c0.602,0.653,1.385,0.98,2.349,0.98c0.386,0,0.817-0.083,1.295-0.249c0.478-0.165,0.918-0.386,1.321-0.662
			c0.376-0.267,0.72-0.574,1.031-0.925c0.312-0.349,0.468-0.598,0.468-0.744c0-0.056-0.082-0.083-0.248-0.083h-0.123
			c-1.403,0-2.104-0.727-2.104-2.179c0-0.313,0.027-0.648,0.083-1.007c0.1-0.975,0.19-1.739,0.271-2.291
			c0.146-0.626,0.276-1.118,0.395-1.478c0.678-0.046,1.168-0.138,1.471-0.275c0.402-0.193,0.728-0.497,0.976-0.911
			c0.247-0.414,0.371-0.865,0.371-1.353c0-0.276-0.088-0.467-0.262-0.573c-0.175-0.105-0.537-0.2-1.088-0.283
			c-0.147-0.036-0.299-0.063-0.454-0.082c0.23-0.947,0.58-1.964,1.051-3.049c0.277-0.652,0.416-1.084,0.416-1.296
			c0-0.313-0.097-0.553-0.29-0.719c-0.192-0.165-0.473-0.248-0.839-0.248c-0.625,0-1.29,0.226-1.997,0.676
			c-0.376,0.258-0.67,0.552-0.881,0.883c-0.44,0.699-0.964,1.904-1.569,3.615l-0.055,0.166c-0.597,0.129-1.116,0.45-1.562,0.966
			c-0.444,0.515-0.667,1.062-0.667,1.642c0,0.331,0.078,0.57,0.234,0.718c0.155,0.146,0.417,0.226,0.783,0.234
			c-0.009,0.046-0.046,0.19-0.109,0.435C76.336,50.79,76.276,51.021,76.222,51.242z M96.312,60.086c0.522,0,1.036-0.127,1.54-0.38
			s1.031-0.65,1.581-1.193c-0.165-0.423-0.284-0.851-0.357-1.283c-0.027-0.165-0.055-0.386-0.082-0.662
			c-0.028-0.276-0.046-0.52-0.056-0.731c-0.009-0.211-0.014-0.524-0.014-0.938c0-0.791,0.027-1.643,0.083-2.553
			c0.046-0.414,0.068-0.603,0.068-0.566c0-0.386-0.064-0.632-0.192-0.738c-0.129-0.105-0.44-0.158-0.936-0.158
			c0.376-0.607,0.564-1.182,0.564-1.725c0-0.736-0.378-1.346-1.135-1.828c-0.756-0.483-1.721-0.725-2.895-0.725
			c-1.394,0-2.842,0.502-4.345,1.504c-1.458,0.976-2.668,2.162-3.631,3.56c-0.577,0.855-1.031,1.729-1.361,2.622
			s-0.495,1.665-0.495,2.318c0,1.058,0.335,1.932,1.004,2.621s1.518,1.035,2.544,1.035c0.504,0,1.057-0.161,1.657-0.483
			c0.601-0.321,1.256-0.803,1.967-1.441c0.71-0.64,1.491-1.461,2.344-2.463l0.052,0.051c-0.016,0.152-0.024,0.347-0.024,0.598
			C94.193,58.9,94.899,60.086,96.312,60.086z M92.275,55.34c-0.729,0.57-1.226,0.855-1.492,0.855c-0.312,0-0.57-0.166-0.776-0.497
			s-0.31-0.75-0.31-1.256c0-0.763,0.25-1.633,0.749-2.607c0.5-0.975,1.176-1.927,2.028-2.856c0.303-0.313,0.527-0.469,0.674-0.469
			c0.165,0,0.316,0.163,0.454,0.49c0.138,0.326,0.206,0.688,0.206,1.083c0,0.689-0.257,1.426-0.77,2.207
			c-0.147,0.276-0.221,0.446-0.221,0.511c0,0.184,0.179,0.276,0.537,0.276c0.293,0,0.77-0.093,1.43-0.276l0.262-0.083l0.055,0.056
			l-0.371,0.304C93.822,54.015,93.004,54.77,92.275,55.34z M105.112,40.88c-0.267,0-0.483,0.036-0.653,0.11
			c-0.17,0.073-0.337,0.197-0.502,0.372c-0.321,0.322-0.607,0.816-0.859,1.483s-0.378,1.254-0.378,1.759
			c0,1.013,0.431,1.532,1.292,1.56h0.041c0.395,0,0.779-0.182,1.155-0.545s0.676-0.837,0.901-1.421
			c0.225-0.584,0.336-1.203,0.336-1.856c0-0.524-0.107-0.898-0.322-1.124C105.907,40.993,105.57,40.88,105.112,40.88z
			 M104.245,46.786c-0.504,0-0.898,0.179-1.183,0.538c-0.715,0.855-1.354,2.237-1.918,4.146c-0.563,1.909-0.846,3.622-0.846,5.141
			c0,0.681,0.071,1.234,0.213,1.662s0.383,0.826,0.722,1.193c0.338,0.35,0.714,0.538,1.126,0.565h0.027
			c0.32,0,0.6-0.073,0.838-0.221c0.348-0.239,0.641-0.699,0.879-1.381c0.606-1.692,1.077-3.322,1.412-4.891s0.503-2.937,0.503-4.104
			c0-0.791-0.163-1.43-0.488-1.917S104.776,46.786,104.245,46.786z M120.526,58.114c-0.128-0.35-0.225-0.699-0.288-1.049
			c-0.092-0.57-0.138-1.315-0.138-2.235c0-0.818,0.055-1.692,0.165-2.622c0.073-0.698,0.109-1.228,0.109-1.586
			c0-0.865-0.133-1.472-0.398-1.821s-0.724-0.524-1.373-0.524c-0.403,0-0.8,0.102-1.188,0.304c-0.39,0.203-0.829,0.532-1.319,0.988
			s-1.154,1.15-1.992,2.082l-0.828,0.968l-0.056-0.055c0.38-1.699,0.569-3.004,0.569-3.915c0-1.241-0.477-1.862-1.43-1.862
			c-0.587,0-1.087,0.207-1.499,0.621c-0.605,0.635-1.119,1.518-1.54,2.648c-0.275,0.681-0.53,1.398-0.764,2.152
			c-0.234,0.755-0.436,1.488-0.605,2.201s-0.305,1.382-0.405,2.008c-0.101,0.625-0.151,1.154-0.151,1.586
			c0,0.699,0.184,1.27,0.55,1.711c0.367,0.442,0.844,0.663,1.431,0.663c0.431,0,0.815-0.171,1.155-0.511
			c0.229-0.276,0.48-0.598,0.756-0.966c0.715-0.947,1.586-2.01,2.612-3.188c0.211-0.229,0.438-0.474,0.681-0.731
			c0.243-0.257,0.562-0.606,0.956-1.049l0.055,0.056c-0.109,0.727-0.165,1.356-0.165,1.891c0,0.8,0.117,1.518,0.351,2.152
			c0.234,0.635,0.564,1.131,0.99,1.49c0.427,0.358,0.901,0.538,1.424,0.538c0.32,0,0.715-0.093,1.183-0.276
			c0.467-0.184,0.843-0.4,1.127-0.648c0.11-0.083,0.165-0.197,0.165-0.345C120.664,58.67,120.618,58.445,120.526,58.114z
			 M39.029,21.279c-0.046,0.218-0.568,0.912-0.568,0.912s0.336-0.012,0.244,0.256c-0.093,0.268-0.836,1.119-0.836,1.119h0.418
			l-0.743,0.949h1.851v2.065l-0.053,0.053l-3.027-2.42L23.646,36.113l13.104-9.6l7.179,3.916l0.219,9.349l9.96-25.925l5.557,6.23
			l1.37-1.566l16.606,20.1l-5.451-13.229l5.328-5.237l13.686,13.013l-2.815-7.024l12.14,8.979L88.618,23.49l-0.377,0.241
			l-0.406-0.519h0.251c0,0-0.446-0.513-0.502-0.674s0.146-0.153,0.146-0.153s-0.313-0.417-0.342-0.549s0.16-0.168,0.16-0.168
			s-0.469-0.513-0.469-0.781c-0.082,0.28-0.223,0.604-0.508,0.781c0,0,0.188,0.036,0.16,0.168c-0.027,0.132-0.342,0.549-0.342,0.549
			s0.202-0.008,0.146,0.153s-0.502,0.674-0.502,0.674h0.251l-0.447,0.57h1.112v0.773l-1.344,0.858l-8.535-7.347l-5.44,4.306
			l-0.999-1.275h0.604c0,0-1.073-1.232-1.208-1.62c-0.135-0.387,0.353-0.37,0.353-0.37s-0.755-1.003-0.822-1.319
			c-0.067-0.317,0.387-0.404,0.387-0.404s-1.13-1.233-1.13-1.882c-0.196,0.677-0.535,1.452-1.222,1.882c0,0,0.453,0.087,0.386,0.404
			c-0.067,0.316-0.822,1.319-0.822,1.319s0.486-0.017,0.352,0.37c-0.133,0.388-1.208,1.62-1.208,1.62h0.604l-0.693,0.885
			l-5.177-5.854l-1.777,1.004l-5.047-5.555L41.53,24.417l-0.667-0.852h0.418c0,0-0.743-0.852-0.836-1.119
			c-0.092-0.268,0.244-0.256,0.244-0.256s-0.521-0.694-0.568-0.912C40.074,21.059,40.388,21,40.388,21s-0.78-0.853-0.78-1.301
			c-0.136,0.468-0.37,1.004-0.845,1.301C38.763,21,39.076,21.059,39.029,21.279z M87.169,23.782h0.992l-0.992,0.634V23.782z
			 M69.031,22.471h2.478l-2.478,1.961V22.471z M68.508,22.471v2.107l-1.863-2.107H68.508z M39.757,24.515h1.677l-1.677,1.698V24.515
			z M71.854,71.064h17.38v-0.479h-17.38V71.064z M71.854,69.451h10.521v-0.479H71.854V69.451z M34.939,71.064h17.379v-0.479H34.939
			V71.064z M52.318,68.971H41.797v0.479h10.521V68.971z"/>
	</g>
</g>
</svg>
