<?xml version="1.0" encoding="utf-8"?>
<!-- Generator: Adobe Illustrator 16.0.0, SVG Export Plug-In . SVG Version: 6.00 Build 0)  -->
<!DOCTYPE svg PUBLIC "-//W3C//DTD SVG 1.1//EN" "http://www.w3.org/Graphics/SVG/1.1/DTD/svg11.dtd">
<svg version="1.1" id="Layer_1" xmlns="http://www.w3.org/2000/svg" xmlns:xlink="http://www.w3.org/1999/xlink" x="0px" y="0px"
	 width="77px" height="91px" viewBox="0 0 77 91" enable-background="new 0 0 77 91" xml:space="preserve">
<g>
	<g>
		<path fill="#18B870" d="M62.183,22.646l-8.26,0.551l8.26,0.189V22.646z M63.022,24.477l-8.259,0.552l8.259,0.19V24.477z
			 M64.012,26.389l-8.259,0.552l8.259,0.188V26.389z M64.927,28.223l-8.259,0.551l8.259,0.188V28.223z M65.817,30.133l-8.259,0.551
			l8.259,0.189V30.133z M66.832,31.965l-8.259,0.552l8.259,0.188V31.965z M67.986,33.878l-8.26,0.55l8.26,0.19V33.878z
			 M68.778,36.45v-0.741l-8.26,0.552L68.778,36.45z M69.535,38.275v-0.74l-8.259,0.551L69.535,38.275z M70.657,40.187v-0.741
			l-8.26,0.552L70.657,40.187z M71.481,42.02v-0.74l-8.259,0.55L71.481,42.02z M72.472,43.931v-0.74l-8.26,0.551L72.472,43.931z
			 M73.229,45.763v-0.74l-8.26,0.551L73.229,45.763z M72.933,47.674v-0.74l-8.26,0.551L72.933,47.674z M71.877,49.506v-0.739
			l-8.26,0.551L71.877,49.506z M70.987,51.462v-0.74l-8.26,0.552L70.987,51.462z M70.014,53.288v-0.739L61.755,53.1L70.014,53.288z
			 M69.059,55.199v-0.74l-8.26,0.552L69.059,55.199z M68.15,57.032v-0.74l-8.259,0.551L68.15,57.032z M67.211,58.942v-0.739
			l-8.26,0.552L67.211,58.942z M66.263,60.775v-0.74l-8.26,0.551L66.263,60.775z M65.225,62.688v-0.741l-8.259,0.551L65.225,62.688z
			 M64.243,64.521v-0.742l-8.26,0.553L64.243,64.521z M63.468,66.258v-0.741l-8.26,0.552L63.468,66.258z M62.43,68.169v-0.741
			l-8.259,0.553L62.43,68.169z M15.581,22.646v0.74l8.26-0.189L15.581,22.646z M14.74,24.477v0.742l8.26-0.19L14.74,24.477z
			 M13.751,26.389v0.74l8.259-0.188L13.751,26.389z M12.835,28.223v0.739l8.26-0.188L12.835,28.223z M11.946,30.133v0.74
			l8.259-0.189L11.946,30.133z M10.932,31.965v0.74l8.259-0.188L10.932,31.965z M9.777,33.878v0.74l8.259-0.19L9.777,33.878z
			 M8.985,35.709v0.741l8.26-0.189L8.985,35.709z M8.228,37.535v0.74l8.259-0.189L8.228,37.535z M7.106,39.445v0.741l8.259-0.189
			L7.106,39.445z M6.281,41.279v0.74l8.26-0.19L6.281,41.279z M5.292,43.19v0.74l8.26-0.189L5.292,43.19z M4.534,45.022v0.74
			l8.259-0.189L4.534,45.022z M4.83,46.934v0.74l8.26-0.189L4.83,46.934z M5.886,48.767v0.739l8.26-0.188L5.886,48.767z
			 M6.776,50.722v0.74l8.259-0.188L6.776,50.722z M7.749,52.549v0.739l8.259-0.188L7.749,52.549z M8.705,54.459v0.74l8.26-0.188
			L8.705,54.459z M9.612,57.032l8.259-0.189l-8.259-0.551V57.032z M10.553,58.942l8.259-0.188l-8.259-0.552V58.942z M11.501,60.775
			l8.259-0.189l-8.259-0.551V60.775z M12.539,62.688l8.259-0.19l-8.259-0.551V62.688z M13.52,64.521l8.26-0.189l-8.26-0.553V64.521z
			 M14.295,66.258l8.259-0.189l-8.259-0.552V66.258z M15.334,68.169l8.259-0.188l-8.259-0.553V68.169z M76.545,43.642L65.563,22.015
			c-0.622-1.224-2.128-2.147-3.502-2.147H34.898l-0.353-0.16c-2.281-1.037-5.256-3.476-7.028-5.028
			c3.849,0.289,8.005,0.718,10.82,1.117c0.063,0.055,0.139,0.095,0.223,0.109c0.462,0.079,0.931,0.154,1.401,0.224
			c11.054,1.633,23.983,0.603,26.58,0.051l0.177-0.037c0.157-0.033,0.29-0.154,0.35-0.323c0.062-0.168,0.047-0.36-0.043-0.512
			l-0.1-0.172c-0.804-1.37-1.29-4.94,0.946-14.171l0.072-0.298c0.051-0.21-0.012-0.432-0.158-0.568
			c-0.146-0.134-0.348-0.159-0.517-0.06l-0.24,0.142C58.07,5.477,38.422,2.626,28.973,1.258c-0.928-0.136-1.767-0.256-2.491-0.356
			C17.6-0.411,14.256,3.095,14.117,3.244l-0.031,0.034c-0.084,0.09-0.135,0.209-0.148,0.336l-1.238,13.085
			c-0.019,0.202,0.063,0.39,0.196,0.5c0.029,1.013,0.477,2.006,1.01,2.843c-1.021,0.322-1.97,1.064-2.431,1.973L0.43,43.77
			c-0.285,0.562-0.442,1.286-0.442,2.043c0,0.756,0.157,1.48,0.442,2.042l10.982,21.627c0.621,1.223,2.128,2.146,3.501,2.146h28.642
			c2.15,1.171,4.695,3.265,6.281,4.651c-3.851-0.289-8.007-0.717-10.823-1.115c-0.061-0.057-0.137-0.095-0.222-0.11
			c-0.464-0.08-0.931-0.153-1.402-0.224c-11.053-1.634-23.983-0.603-26.579-0.052l-0.177,0.037c-0.156,0.034-0.29,0.155-0.351,0.323
			c-0.062,0.17-0.044,0.36,0.045,0.513l0.099,0.171c0.804,1.371,1.291,4.942-0.946,14.171l-0.072,0.301
			c-0.051,0.208,0.011,0.429,0.158,0.564c0.146,0.136,0.35,0.16,0.517,0.061l0.241-0.142c8.957-5.295,28.605-2.445,38.057-1.076
			c0.927,0.134,1.766,0.256,2.49,0.356c8.881,1.311,12.227-2.195,12.365-2.344l0.03-0.034c0.084-0.089,0.134-0.208,0.146-0.336
			l1.238-13.084c0.021-0.201-0.061-0.39-0.195-0.501c-0.025-0.888-0.374-1.763-0.819-2.531c0.794-0.383,1.489-1.009,1.864-1.745
			l11.045-21.754c0.285-0.563,0.442-1.289,0.442-2.043C76.987,44.929,76.83,44.202,76.545,43.642z M14.224,13.208
			c0.974-0.887,2.551-1.593,4.452-1.992c0.054-0.011,0.076-0.043,0.054-0.076c-0.024-0.03-0.087-0.049-0.141-0.041
			c-1.651,0.232-3.123,0.681-4.288,1.298l0.097-1.03c0.967-0.871,2.504-1.568,4.36-1.967c0.053-0.012,0.076-0.045,0.052-0.076
			s-0.087-0.051-0.141-0.043c-1.611,0.237-3.051,0.683-4.195,1.291l0.098-1.035c0.964-0.875,2.517-1.576,4.386-1.977
			c0.052-0.011,0.075-0.044,0.052-0.077c-0.023-0.03-0.085-0.049-0.141-0.041c-1.623,0.234-3.07,0.679-4.221,1.286L14.744,7.7
			c0.961-0.87,2.5-1.569,4.357-1.969c0.052-0.011,0.075-0.045,0.051-0.076c-0.023-0.032-0.085-0.051-0.14-0.042
			c-1.609,0.234-3.047,0.678-4.192,1.283l0.098-1.034c0.979-0.881,2.544-1.584,4.437-1.98c0.053-0.01,0.076-0.045,0.053-0.075
			c-0.023-0.031-0.085-0.05-0.141-0.043c-1.643,0.233-3.109,0.683-4.272,1.3l0.092-0.975c0.751-0.636,4.015-2.911,11.249-1.841
			c0.728,0.101,1.563,0.221,2.496,0.355c9.146,1.326,27.865,4.038,37.565-0.592c-0.14,0.608-0.266,1.193-0.383,1.765
			c-1.013,0.902-2.582,1.577-4.452,1.907c-0.053,0.01-0.077,0.045-0.056,0.082c0.022,0.035,0.084,0.061,0.138,0.056
			c1.589-0.159,3.023-0.547,4.188-1.126C65.747,5.132,65.67,5.558,65.6,5.972c-1.003,0.815-2.469,1.427-4.193,1.738
			c-0.053,0.011-0.077,0.048-0.054,0.084c0.021,0.036,0.084,0.061,0.139,0.054c1.497-0.159,2.856-0.527,3.978-1.067
			c-0.067,0.439-0.127,0.867-0.179,1.277c-1.001,0.794-2.455,1.392-4.156,1.698c-0.054,0.009-0.077,0.046-0.057,0.083
			c0.023,0.036,0.085,0.061,0.139,0.055c1.503-0.155,2.864-0.518,3.987-1.054c-0.043,0.421-0.077,0.826-0.101,1.216
			c-1,0.812-2.464,1.424-4.188,1.738c-0.053,0.009-0.077,0.045-0.055,0.081c0.023,0.038,0.083,0.062,0.139,0.056
			c1.537-0.163,2.931-0.542,4.068-1.104c-0.012,0.38-0.013,0.741-0.003,1.089c-1.015,0.915-2.592,1.6-4.478,1.93
			c-0.053,0.01-0.078,0.046-0.055,0.084c0.021,0.034,0.082,0.06,0.138,0.055c1.704-0.173,3.228-0.612,4.433-1.27
			c0.068,0.876,0.211,1.633,0.429,2.269c-3.717,0.541-14.584,1.2-24.156-0.025c-0.005-0.001-0.01-0.001-0.015-0.005
			c-0.543-0.132-1.364-0.281-2.436-0.439c-5.316-0.785-17.125-1.805-20.581-1.484c-1.919,0.275-3.342,0.794-4.25,1.553
			L14.224,13.208z M14.913,69.447c-0.549,0-1.305-0.463-1.553-0.951L2.377,46.869c-0.129-0.255-0.206-0.65-0.206-1.057
			c0-0.407,0.077-0.803,0.206-1.058l11.045-21.754c0.249-0.49,1.004-0.952,1.554-0.952h13.103L17.05,43.77
			c-0.285,0.562-0.442,1.286-0.442,2.043c0,0.756,0.157,1.48,0.443,2.042l10.964,21.593H14.913z M45.378,69.447H31.533
			c-0.55,0-1.305-0.463-1.553-0.951L18.998,46.869c-0.13-0.255-0.207-0.65-0.207-1.057c0-0.407,0.077-0.803,0.207-1.058
			l11.044-21.754c0.249-0.49,1.005-0.952,1.554-0.952h13.844c0.551,0,1.306,0.462,1.555,0.952l10.981,21.627
			c0.131,0.256,0.208,0.65,0.208,1.057s-0.077,0.801-0.208,1.057L46.932,68.496C46.683,68.984,45.927,69.447,45.378,69.447z
			 M63.137,77.666c-0.983,0.905-2.566,1.613-4.469,1.995c-0.054,0.01-0.076,0.044-0.054,0.077s0.085,0.054,0.14,0.046
			c1.653-0.212,3.13-0.653,4.303-1.276l-0.101,1.065c-0.976,0.897-2.524,1.6-4.391,1.982c-0.052,0.012-0.075,0.046-0.051,0.079
			c0.023,0.034,0.086,0.054,0.14,0.046c1.62-0.218,3.068-0.66,4.223-1.278l-0.101,1.068c-0.973,0.906-2.542,1.616-4.428,2.003
			c-0.054,0.009-0.075,0.044-0.054,0.077c0.024,0.035,0.086,0.054,0.14,0.046c1.639-0.216,3.101-0.657,4.261-1.278l-0.1,1.057
			c-0.969,0.905-2.528,1.616-4.411,2.005c-0.053,0.009-0.076,0.046-0.053,0.077c0.024,0.035,0.085,0.054,0.14,0.047
			c1.631-0.219,3.087-0.662,4.243-1.283l-0.1,1.058c-0.985,0.923-2.577,1.642-4.504,2.027c-0.052,0.01-0.076,0.045-0.053,0.079
			c0.022,0.032,0.084,0.053,0.14,0.046c1.669-0.217,3.158-0.668,4.337-1.306l-0.07,0.743c-0.751,0.637-4.014,2.912-11.247,1.841
			c-0.729-0.099-1.563-0.219-2.495-0.355c-9.147-1.325-27.867-4.038-37.567,0.593c0.176-0.769,0.335-1.507,0.476-2.216
			c1.021-0.663,2.501-1.104,4.237-1.255c0.054-0.006,0.079-0.037,0.056-0.072c-0.022-0.035-0.085-0.063-0.141-0.063
			c-1.51,0.026-2.877,0.252-4.011,0.653c0.079-0.422,0.153-0.834,0.22-1.233c0.999-0.605,2.389-1.015,4.013-1.164
			c0.055-0.006,0.078-0.038,0.055-0.073c-0.022-0.037-0.086-0.063-0.142-0.062c-1.429,0.031-2.729,0.247-3.82,0.622
			c0.064-0.424,0.122-0.837,0.171-1.233c0.998-0.594,2.382-0.996,3.993-1.144c0.054-0.004,0.077-0.035,0.055-0.071
			c-0.023-0.036-0.086-0.063-0.141-0.063c-1.435,0.029-2.738,0.24-3.833,0.61c0.043-0.41,0.078-0.811,0.104-1.192
			c0.996-0.605,2.389-1.017,4.015-1.168c0.054-0.004,0.079-0.038,0.055-0.072c-0.022-0.036-0.085-0.063-0.14-0.063
			c-1.462,0.033-2.789,0.256-3.896,0.645c0.015-0.391,0.017-0.761,0.012-1.117c1.022-0.68,2.519-1.132,4.281-1.283
			c0.054-0.006,0.078-0.038,0.055-0.072c-0.022-0.036-0.084-0.063-0.14-0.063c-1.602,0.028-3.049,0.282-4.221,0.734
			c-0.058-0.998-0.204-1.854-0.445-2.557c3.713-0.541,14.582-1.199,24.154,0.026c0.005,0,0.01,0.002,0.014,0.003
			c0.543,0.134,1.364,0.282,2.436,0.44c5.316,0.787,17.127,1.807,20.581,1.483c1.922-0.273,3.342-0.795,4.252-1.552L63.137,77.666z
			 M74.597,46.741L63.552,68.496c-0.248,0.488-1.004,0.951-1.554,0.951H48.896l11.028-21.72c0.284-0.563,0.442-1.289,0.442-2.043
			c0-0.756-0.158-1.482-0.443-2.043L48.959,22.049h13.102c0.55,0,1.305,0.462,1.554,0.952l10.982,21.627
			c0.13,0.256,0.207,0.65,0.207,1.057S74.727,46.485,74.597,46.741z M25.893,79.435l-0.519,0.024
			c-0.055,0.003-0.081,0.031-0.078,0.086l0.089,1.864l-0.696-1.841c-0.009-0.02-0.024-0.036-0.046-0.051
			c-0.022-0.015-0.046-0.021-0.069-0.02l-0.385,0.018c-0.054,0.003-0.08,0.031-0.077,0.086l0.188,3.915
			c0.003,0.055,0.03,0.08,0.085,0.078l0.52-0.025c0.055-0.002,0.08-0.031,0.078-0.086l-0.093-1.922l0.712,1.898
			c0.008,0.02,0.023,0.036,0.046,0.051c0.021,0.015,0.045,0.021,0.068,0.021l0.373-0.019c0.055-0.002,0.081-0.031,0.078-0.085
			l-0.188-3.915C25.976,79.458,25.947,79.433,25.893,79.435z M29.2,82.76l-0.666,0.009l-0.018-1.195l0.578-0.009
			c0.055,0,0.082-0.027,0.081-0.083l-0.007-0.519c-0.001-0.055-0.029-0.081-0.083-0.081l-0.579,0.009l-0.012-0.84l0.666-0.009
			c0.055-0.001,0.081-0.029,0.081-0.084l-0.008-0.519c-0.001-0.055-0.028-0.081-0.083-0.08l-1.268,0.018
			c-0.055,0-0.082,0.028-0.081,0.083l0.056,3.919c0.001,0.055,0.028,0.081,0.083,0.08l1.269-0.018
			c0.054-0.001,0.081-0.028,0.08-0.082l-0.007-0.52C29.282,82.785,29.254,82.759,29.2,82.76z M33.364,79.416
			c-0.05-0.002-0.08,0.024-0.089,0.079l-0.326,2.372l-0.023-0.001l-0.136-2.385c-0.006-0.055-0.035-0.082-0.085-0.084l-0.474-0.012
			c-0.051-0.002-0.08,0.024-0.09,0.079l-0.262,2.374l-0.023-0.001l-0.199-2.386c-0.007-0.055-0.035-0.083-0.086-0.084l-0.631-0.017
			c-0.055-0.002-0.078,0.024-0.072,0.079l0.585,3.937c0.007,0.055,0.037,0.083,0.092,0.084l0.514,0.014
			c0.055,0.002,0.087-0.024,0.096-0.079l0.243-1.446h0.006l0.166,1.458c0.006,0.055,0.036,0.082,0.091,0.084l0.515,0.014
			c0.054,0.001,0.086-0.025,0.095-0.08l0.794-3.899c0.009-0.055-0.014-0.082-0.068-0.084L33.364,79.416z M38.948,79.807
			c-0.055-0.006-0.088,0.019-0.102,0.071l-0.38,1.439l-0.023-0.003l-0.085-1.485c-0.002-0.055-0.03-0.085-0.085-0.091l-0.616-0.062
			c-0.023-0.003-0.041,0.004-0.055,0.021s-0.018,0.034-0.012,0.055l0.426,2.47l-0.15,1.497c-0.006,0.055,0.019,0.084,0.073,0.09
			l0.523,0.053c0.055,0.005,0.084-0.019,0.09-0.073l0.15-1.497l0.91-2.336c0.011-0.019,0.01-0.037,0-0.056s-0.026-0.029-0.049-0.031
			L38.948,79.807z M42.658,80.473c-0.056-0.075-0.125-0.139-0.207-0.19c-0.083-0.052-0.175-0.085-0.274-0.101l-0.22-0.033
			c-0.101-0.016-0.197-0.01-0.292,0.015c-0.094,0.025-0.18,0.064-0.254,0.12c-0.076,0.056-0.14,0.124-0.191,0.207
			c-0.053,0.083-0.086,0.174-0.102,0.273l-0.406,2.665c-0.015,0.1-0.01,0.197,0.016,0.291c0.024,0.095,0.065,0.18,0.121,0.255
			c0.055,0.075,0.124,0.139,0.207,0.19c0.082,0.052,0.174,0.085,0.273,0.101l0.22,0.033c0.101,0.016,0.198,0.011,0.292-0.015
			c0.095-0.024,0.18-0.064,0.255-0.12s0.139-0.125,0.191-0.207c0.052-0.083,0.085-0.174,0.101-0.274l0.406-2.664
			c0.015-0.1,0.01-0.197-0.015-0.291C42.754,80.633,42.714,80.548,42.658,80.473z M41.716,83.551
			c-0.006,0.039-0.023,0.07-0.055,0.093s-0.066,0.031-0.104,0.025l-0.046-0.007c-0.039-0.007-0.07-0.024-0.092-0.056
			c-0.023-0.031-0.032-0.065-0.026-0.104l0.397-2.606c0.006-0.038,0.024-0.069,0.056-0.092s0.065-0.031,0.104-0.025l0.046,0.007
			c0.038,0.006,0.068,0.024,0.092,0.056c0.022,0.031,0.031,0.065,0.025,0.104L41.716,83.551z M45.946,81.044
			c-0.056-0.075-0.125-0.139-0.207-0.191c-0.083-0.052-0.174-0.086-0.274-0.102L44.6,80.617c-0.055-0.009-0.086,0.014-0.094,0.068
			l-0.602,3.873c-0.009,0.055,0.015,0.085,0.068,0.094l0.514,0.079c0.042,0.007,0.072-0.008,0.09-0.045l0.224-1.436l0.201,1.478
			c0.004,0.024,0.016,0.046,0.034,0.064c0.019,0.02,0.04,0.03,0.063,0.033l0.525,0.081c0.051,0.009,0.074-0.016,0.071-0.071
			l-0.259-1.722c0.128-0.043,0.238-0.115,0.329-0.218s0.147-0.224,0.169-0.367l0.146-0.939c0.016-0.1,0.011-0.196-0.015-0.291
			C46.041,81.204,46.001,81.12,45.946,81.044z M45.263,82.396c-0.006,0.038-0.024,0.069-0.056,0.092s-0.066,0.031-0.104,0.025
			l-0.185-0.029l0.18-1.158l0.186,0.028c0.038,0.006,0.068,0.024,0.091,0.056c0.023,0.031,0.031,0.066,0.025,0.104L45.263,82.396z
			 M49.095,81.275c-0.054-0.007-0.094,0.011-0.119,0.055l-0.704,1.182l0.17-1.242c0.007-0.055-0.017-0.085-0.07-0.093l-0.515-0.07
			c-0.055-0.007-0.085,0.017-0.092,0.07l-0.532,3.884c-0.007,0.054,0.017,0.085,0.07,0.092l0.516,0.07
			c0.054,0.008,0.084-0.016,0.092-0.069l0.144-1.053l0.132-0.229l0.244,1.363c0.005,0.021,0.017,0.039,0.033,0.055
			c0.018,0.017,0.038,0.025,0.062,0.029l0.572,0.078c0.023,0.003,0.042-0.004,0.057-0.019c0.014-0.017,0.019-0.034,0.013-0.055
			L48.7,83.041l1.009-1.6c0.011-0.018,0.013-0.036,0.008-0.055c-0.005-0.018-0.02-0.028-0.043-0.032L49.095,81.275z M33.207,61.408
			c-0.039-0.039-0.085-0.07-0.137-0.093c-0.053-0.023-0.109-0.034-0.169-0.034h-0.515c-0.032,0-0.048,0.016-0.048,0.048v2.303
			c0,0.032,0.016,0.048,0.048,0.048h0.306c0.032,0,0.048-0.016,0.048-0.048v-0.929h0.161c0.06,0,0.116-0.012,0.169-0.034
			c0.052-0.023,0.098-0.054,0.137-0.093c0.039-0.038,0.07-0.084,0.093-0.137c0.023-0.053,0.034-0.108,0.034-0.168v-0.559
			c0-0.06-0.011-0.115-0.034-0.168C33.277,61.492,33.246,61.447,33.207,61.408z M32.933,62.255c0,0.022-0.008,0.042-0.023,0.058
			c-0.017,0.017-0.036,0.024-0.059,0.024h-0.11v-0.689h0.11c0.022,0,0.042,0.009,0.059,0.024c0.016,0.017,0.023,0.035,0.023,0.059
			V62.255z M35.171,62.499c0.043-0.067,0.064-0.143,0.064-0.228v-0.559c0-0.06-0.011-0.115-0.034-0.168
			c-0.022-0.053-0.054-0.098-0.093-0.137s-0.084-0.07-0.137-0.093c-0.053-0.023-0.109-0.034-0.168-0.034h-0.516
			c-0.031,0-0.048,0.016-0.048,0.048v2.303c0,0.032,0.017,0.048,0.048,0.048h0.306c0.025,0,0.041-0.012,0.048-0.034v-0.854
			l0.251,0.84c0.005,0.014,0.013,0.025,0.025,0.034s0.026,0.014,0.04,0.014h0.313c0.029,0,0.041-0.016,0.034-0.048l-0.306-0.977
			C35.069,62.619,35.127,62.566,35.171,62.499z M34.834,62.255c0,0.022-0.008,0.042-0.024,0.058
			c-0.016,0.017-0.035,0.024-0.058,0.024h-0.11v-0.689h0.11c0.022,0,0.042,0.009,0.058,0.024c0.017,0.017,0.024,0.035,0.024,0.059
			V62.255z M36.269,61.281c-0.032,0-0.048,0.016-0.048,0.048v2.303c0,0.032,0.016,0.048,0.048,0.048h0.745
			c0.031,0,0.048-0.016,0.048-0.048v-0.305c0-0.032-0.017-0.049-0.048-0.049h-0.392v-0.702h0.34c0.032,0,0.048-0.016,0.048-0.048
			v-0.305c0-0.032-0.016-0.048-0.048-0.048h-0.34v-0.493h0.392c0.031,0,0.048-0.017,0.048-0.049v-0.305
			c0-0.032-0.017-0.048-0.048-0.048H36.269z M39.038,61.281c-0.014,0-0.025,0.005-0.036,0.016c-0.01,0.01-0.018,0.021-0.021,0.032
			l-0.271,1.227l-0.271-1.227c-0.004-0.011-0.012-0.022-0.022-0.032c-0.01-0.011-0.021-0.016-0.035-0.016h-0.292
			c-0.032,0-0.048,0.016-0.048,0.048v2.303c0,0.032,0.016,0.048,0.048,0.048h0.329c0.032,0,0.049-0.016,0.049-0.048v-1.083
			l0.226,0.885c0.005,0.011,0.011,0.017,0.018,0.017s0.013-0.006,0.018-0.017l0.227-0.885v1.083c0,0.032,0.016,0.048,0.048,0.048
			h0.329c0.032,0,0.048-0.016,0.048-0.048v-2.303c0-0.032-0.016-0.048-0.048-0.048H39.038z M40.421,61.281
			c-0.031,0-0.047,0.016-0.047,0.048v2.303c0,0.032,0.016,0.048,0.047,0.048h0.307c0.031,0,0.047-0.016,0.047-0.048v-2.303
			c0-0.032-0.016-0.048-0.047-0.048H40.421z M42.378,61.281c-0.032,0-0.048,0.016-0.048,0.048v1.926
			c0,0.022-0.009,0.042-0.024,0.059c-0.016,0.016-0.035,0.023-0.059,0.023H42.22c-0.023,0-0.042-0.008-0.059-0.023
			c-0.016-0.017-0.023-0.036-0.023-0.059v-1.926c0-0.032-0.016-0.048-0.048-0.048h-0.306c-0.032,0-0.048,0.016-0.048,0.048v1.943
			c0,0.059,0.011,0.115,0.034,0.167c0.022,0.053,0.054,0.099,0.092,0.138c0.039,0.039,0.085,0.069,0.138,0.093
			c0.053,0.022,0.108,0.034,0.168,0.034h0.131c0.06,0,0.115-0.012,0.168-0.034c0.053-0.023,0.099-0.054,0.138-0.093
			s0.069-0.085,0.093-0.138c0.022-0.052,0.034-0.108,0.034-0.167v-1.943c0-0.032-0.017-0.048-0.048-0.048H42.378z M44.691,61.281
			c-0.014,0-0.026,0.005-0.036,0.016c-0.011,0.01-0.018,0.021-0.022,0.032l-0.271,1.227l-0.271-1.227
			c-0.005-0.011-0.013-0.022-0.022-0.032c-0.011-0.011-0.022-0.016-0.036-0.016H43.74c-0.032,0-0.048,0.016-0.048,0.048v2.303
			c0,0.032,0.016,0.048,0.048,0.048h0.329c0.032,0,0.049-0.016,0.049-0.048v-1.083l0.227,0.885c0.004,0.011,0.01,0.017,0.017,0.017
			s0.013-0.006,0.018-0.017l0.227-0.885v1.083c0,0.032,0.016,0.048,0.048,0.048h0.33c0.031,0,0.048-0.016,0.048-0.048v-2.303
			c0-0.032-0.017-0.048-0.048-0.048H44.691z M29.224,54.021v-3.5c0-0.069-0.034-0.104-0.104-0.104h-0.665
			c-0.069,0-0.104,0.035-0.104,0.104v4.269c0,0.069,0.035,0.104,0.104,0.104h1.696c0.07,0,0.104-0.035,0.104-0.104v-0.664
			c0-0.069-0.034-0.104-0.104-0.104H29.224z M30.883,50.416c-0.069,0-0.104,0.035-0.104,0.104v4.269
			c0,0.069,0.035,0.104,0.104,0.104h0.665c0.07,0,0.105-0.035,0.105-0.104v-4.269c0-0.069-0.035-0.104-0.105-0.104H30.883z
			 M32.43,50.416c-0.069,0-0.104,0.035-0.104,0.104v4.269c0,0.069,0.035,0.104,0.104,0.104h0.665c0.07,0,0.105-0.035,0.105-0.104
			v-1.776h0.739c0.07,0,0.104-0.034,0.104-0.104v-0.664c0-0.069-0.034-0.104-0.104-0.104H33.2v-0.851h0.852
			c0.069,0,0.104-0.034,0.104-0.104v-0.664c0-0.069-0.035-0.104-0.104-0.104H32.43z M36.443,51.289c0.069,0,0.104-0.034,0.104-0.104
			v-0.664c0-0.069-0.035-0.104-0.104-0.104h-1.622c-0.069,0-0.104,0.035-0.104,0.104v4.269c0,0.069,0.035,0.104,0.104,0.104h1.622
			c0.069,0,0.104-0.035,0.104-0.104v-0.664c0-0.069-0.035-0.104-0.104-0.104h-0.852v-1.008h0.739c0.07,0,0.105-0.034,0.105-0.104
			v-0.664c0-0.069-0.035-0.104-0.105-0.104h-0.739v-0.851H36.443z M38.589,54.871c0.114-0.05,0.214-0.117,0.299-0.201
			c0.085-0.085,0.152-0.185,0.202-0.299c0.049-0.114,0.074-0.236,0.074-0.365v-0.762c-0.01-0.089-0.026-0.17-0.049-0.242
			s-0.073-0.144-0.153-0.213l-0.979-0.731c-0.04-0.039-0.067-0.079-0.082-0.119c-0.016-0.04-0.025-0.087-0.03-0.142v-0.455
			c0-0.05,0.018-0.092,0.052-0.127c0.035-0.035,0.078-0.052,0.128-0.052h0.06c0.05,0,0.092,0.017,0.127,0.052
			s0.053,0.077,0.053,0.127v0.484c0,0.07,0.032,0.095,0.097,0.075l0.681-0.179c0.064-0.021,0.097-0.065,0.097-0.135v-0.283
			c0-0.13-0.025-0.252-0.074-0.366c-0.05-0.114-0.117-0.214-0.202-0.299c-0.085-0.084-0.185-0.151-0.299-0.201
			c-0.115-0.05-0.237-0.074-0.366-0.074h-0.284c-0.13,0-0.252,0.024-0.366,0.074s-0.215,0.117-0.299,0.201
			c-0.085,0.085-0.152,0.185-0.202,0.299s-0.074,0.236-0.074,0.366v0.671c0,0.115,0.016,0.207,0.048,0.276s0.086,0.14,0.161,0.209
			l0.964,0.738c0.045,0.04,0.075,0.085,0.09,0.135s0.024,0.106,0.03,0.172v0.463c0,0.05-0.018,0.092-0.053,0.126
			c-0.035,0.035-0.077,0.053-0.127,0.053h-0.06c-0.05,0-0.093-0.018-0.128-0.053c-0.034-0.034-0.052-0.076-0.052-0.126v-0.62
			c0-0.069-0.032-0.095-0.097-0.074l-0.681,0.179c-0.064,0.021-0.097,0.065-0.097,0.135v0.418c0,0.129,0.024,0.251,0.074,0.365
			s0.117,0.214,0.202,0.299c0.084,0.084,0.185,0.151,0.299,0.201s0.236,0.074,0.366,0.074h0.284
			C38.352,54.945,38.474,54.921,38.589,54.871z M39.567,50.416c-0.07,0-0.104,0.035-0.104,0.104v0.664
			c0,0.07,0.034,0.104,0.104,0.104h0.523v3.5c0,0.03,0.011,0.055,0.033,0.074c0.022,0.021,0.046,0.03,0.071,0.03h0.665
			c0.069,0,0.104-0.035,0.104-0.104v-3.5h0.53c0.07,0,0.105-0.034,0.105-0.104v-0.664c0-0.069-0.035-0.104-0.105-0.104H39.567z
			 M44.463,50.45c-0.015-0.022-0.037-0.034-0.067-0.034h-0.792c-0.07,0-0.109,0.035-0.12,0.104l-0.299,1.433h-0.029l-0.3-1.433
			c-0.01-0.069-0.05-0.104-0.119-0.104h-0.792c-0.03,0-0.053,0.012-0.067,0.034s-0.018,0.046-0.008,0.07l0.86,2.642v1.627
			c0,0.069,0.034,0.104,0.104,0.104h0.674c0.069,0,0.104-0.035,0.104-0.104v-1.627l0.86-2.642
			C44.48,50.496,44.478,50.473,44.463,50.45z M45.801,54.021v-3.5c0-0.069-0.035-0.104-0.104-0.104h-0.665
			c-0.07,0-0.105,0.035-0.105,0.104v4.269c0,0.069,0.035,0.104,0.105,0.104h1.696c0.069,0,0.104-0.035,0.104-0.104v-0.664
			c0-0.069-0.035-0.104-0.104-0.104H45.801z M47.46,50.416c-0.07,0-0.104,0.035-0.104,0.104v4.269c0,0.069,0.034,0.104,0.104,0.104
			h1.622c0.069,0,0.104-0.035,0.104-0.104v-0.664c0-0.069-0.035-0.104-0.104-0.104h-0.853v-1.008h0.74
			c0.069,0,0.104-0.034,0.104-0.104v-0.664c0-0.069-0.035-0.104-0.104-0.104h-0.74v-0.851h0.853c0.069,0,0.104-0.034,0.104-0.104
			v-0.664c0-0.069-0.035-0.104-0.104-0.104H47.46z M34.417,48.571l-1.607-6.597l1.607-6.558c0.026-0.064,0.017-0.127-0.029-0.186
			s-0.107-0.088-0.187-0.088h-1.823c-0.183,0-0.287,0.092-0.313,0.273l-0.745,3.876l-0.745-3.876
			c-0.026-0.182-0.131-0.273-0.313-0.273h-1.823c-0.079,0-0.141,0.029-0.187,0.088s-0.056,0.121-0.029,0.186l1.607,6.558
			l-1.607,6.597c-0.026,0.078-0.017,0.144,0.029,0.195c0.046,0.053,0.107,0.078,0.187,0.078h1.823c0.183,0,0.287-0.091,0.313-0.273
			l0.745-3.876l0.745,3.876c0.026,0.183,0.131,0.273,0.313,0.273h1.823C34.384,48.845,34.456,48.754,34.417,48.571z M37.867,48.845
			h1.726c0.183,0,0.287-0.091,0.313-0.273l2.313-13.154c0.026-0.182-0.053-0.273-0.235-0.273h-2.117
			c-0.17,0-0.269,0.092-0.294,0.273l-0.805,8.3H38.69l-0.804-8.3c-0.026-0.182-0.124-0.273-0.294-0.273h-2.117
			c-0.184,0-0.262,0.092-0.235,0.273l2.313,13.154C37.579,48.754,37.684,48.845,37.867,48.845z M43.317,35.417v13.154
			c0,0.183,0.092,0.273,0.274,0.273h1.745c0.183,0,0.274-0.091,0.274-0.273V35.417c0-0.182-0.092-0.273-0.274-0.273h-1.745
			C43.409,35.144,43.317,35.235,43.317,35.417z M49.396,35.144H47.65c-0.184,0-0.274,0.092-0.274,0.273v13.154
			c0,0.183,0.091,0.273,0.274,0.273h1.745c0.183,0,0.273-0.091,0.273-0.273V35.417C49.669,35.235,49.578,35.144,49.396,35.144z
			 M33.462,31.603c0.031,0,0.048-0.016,0.048-0.048V31.25c0-0.032-0.017-0.048-0.048-0.048H33.07v-0.703h0.34
			c0.032,0,0.048-0.016,0.048-0.048v-0.305c0-0.032-0.016-0.048-0.048-0.048h-0.34v-0.494h0.392c0.031,0,0.048-0.016,0.048-0.048
			v-0.305c0-0.032-0.017-0.048-0.048-0.048h-0.745c-0.032,0-0.048,0.016-0.048,0.048v2.303c0,0.032,0.016,0.048,0.048,0.048H33.462z
			 M34.186,31.5c0.039,0.039,0.085,0.069,0.138,0.093c0.053,0.022,0.108,0.034,0.168,0.034h0.131c0.06,0,0.115-0.012,0.168-0.034
			c0.053-0.023,0.099-0.054,0.137-0.093c0.039-0.039,0.07-0.085,0.093-0.138c0.023-0.052,0.034-0.107,0.034-0.167v-0.59
			c-0.004-0.041-0.012-0.078-0.021-0.111c-0.011-0.033-0.034-0.065-0.07-0.098l-0.45-0.336c-0.019-0.019-0.031-0.036-0.038-0.055
			s-0.011-0.04-0.014-0.065v-0.312c0-0.022,0.008-0.042,0.024-0.059c0.016-0.016,0.036-0.023,0.059-0.023h0.027
			c0.022,0,0.042,0.008,0.058,0.023c0.017,0.017,0.024,0.036,0.024,0.059v0.223c0,0.032,0.015,0.044,0.045,0.034l0.313-0.082
			c0.029-0.009,0.044-0.029,0.044-0.062v-0.131c0-0.059-0.011-0.115-0.034-0.167c-0.022-0.053-0.054-0.099-0.093-0.138
			c-0.038-0.038-0.084-0.069-0.137-0.093c-0.053-0.022-0.108-0.033-0.168-0.033h-0.131c-0.06,0-0.115,0.011-0.168,0.033
			c-0.053,0.023-0.099,0.055-0.138,0.093c-0.039,0.039-0.069,0.085-0.093,0.138c-0.022,0.052-0.034,0.108-0.034,0.167v0.411
			c0,0.053,0.008,0.096,0.022,0.127c0.015,0.032,0.04,0.064,0.074,0.097l0.442,0.339c0.021,0.019,0.034,0.039,0.041,0.062
			c0.007,0.023,0.012,0.05,0.014,0.079v0.452c0,0.022-0.008,0.042-0.024,0.059c-0.016,0.016-0.035,0.023-0.058,0.023h-0.027
			c-0.022,0-0.043-0.008-0.059-0.023c-0.017-0.017-0.024-0.036-0.024-0.059v-0.421c0-0.032-0.015-0.044-0.044-0.035l-0.313,0.082
			c-0.03,0.01-0.045,0.03-0.045,0.063v0.329c0,0.06,0.012,0.115,0.034,0.167C34.116,31.415,34.146,31.461,34.186,31.5z
			 M35.823,29.604v1.95c0,0.014,0.005,0.025,0.016,0.034c0.01,0.009,0.021,0.014,0.032,0.014h0.306c0.031,0,0.048-0.016,0.048-0.048
			v-1.95h0.243c0.032,0,0.049-0.016,0.049-0.048v-0.305c0-0.032-0.017-0.048-0.049-0.048h-0.885c-0.032,0-0.049,0.016-0.049,0.048
			v0.305c0,0.032,0.017,0.048,0.049,0.048H35.823z M37.13,31.627c0.06,0,0.111-0.022,0.155-0.065
			c0.043-0.043,0.065-0.095,0.065-0.154s-0.022-0.11-0.065-0.154c-0.044-0.043-0.096-0.064-0.155-0.064
			c-0.059,0-0.11,0.021-0.153,0.064c-0.044,0.044-0.065,0.095-0.065,0.154s0.021,0.111,0.065,0.154
			C37.02,31.604,37.071,31.627,37.13,31.627z M38.75,29.948c0.039-0.008,0.081-0.022,0.126-0.045
			c0.044-0.023,0.082-0.046,0.111-0.068v1.72c0,0.032,0.016,0.048,0.048,0.048h0.306c0.032,0,0.048-0.016,0.048-0.048v-2.303
			c0-0.027-0.015-0.043-0.044-0.048H39.09c-0.019,0-0.03,0.01-0.038,0.027c-0.009,0.066-0.029,0.123-0.063,0.17
			s-0.069,0.085-0.108,0.114c-0.044,0.037-0.092,0.065-0.145,0.086c-0.011,0.002-0.021,0.008-0.028,0.018
			c-0.009,0.009-0.013,0.019-0.013,0.03v0.257c0,0.017,0.006,0.027,0.018,0.034C38.722,29.95,38.734,29.952,38.75,29.948z
			 M40.134,31.5c0.038,0.039,0.084,0.069,0.137,0.093c0.053,0.022,0.109,0.034,0.168,0.034h0.131c0.06,0,0.115-0.012,0.168-0.034
			c0.053-0.023,0.099-0.054,0.138-0.093s0.069-0.085,0.093-0.138c0.022-0.052,0.034-0.107,0.034-0.167v-1.584
			c0-0.059-0.012-0.115-0.034-0.167c-0.023-0.053-0.054-0.099-0.093-0.138c-0.039-0.038-0.085-0.069-0.138-0.093
			c-0.053-0.022-0.108-0.033-0.168-0.033h-0.131c-0.059,0-0.115,0.011-0.168,0.033c-0.053,0.023-0.099,0.055-0.137,0.093
			c-0.039,0.039-0.07,0.085-0.093,0.138c-0.023,0.052-0.034,0.108-0.034,0.167v0.758c0,0.181,0.08,0.292,0.24,0.336
			c0.041,0.011,0.084,0.017,0.13,0.017c0.078,0,0.152-0.016,0.224-0.048v0.504c0,0.022-0.008,0.042-0.024,0.059
			c-0.016,0.016-0.035,0.023-0.059,0.023H40.49c-0.022,0-0.042-0.008-0.058-0.023c-0.017-0.017-0.024-0.036-0.024-0.059v-0.233
			c0-0.031-0.015-0.043-0.045-0.034l-0.312,0.082c-0.03,0.01-0.045,0.03-0.045,0.063v0.141c0,0.06,0.011,0.115,0.034,0.167
			C40.063,31.415,40.095,31.461,40.134,31.5z M40.58,30.352c-0.005,0.005-0.013,0.011-0.022,0.02
			c-0.011,0.008-0.023,0.012-0.04,0.012H40.49c-0.016,0-0.028-0.004-0.039-0.01c-0.011-0.008-0.018-0.013-0.022-0.018
			c-0.014-0.014-0.021-0.039-0.021-0.075v-0.651c0-0.022,0.008-0.042,0.024-0.059c0.016-0.016,0.035-0.023,0.058-0.023h0.027
			c0.023,0,0.043,0.008,0.059,0.023c0.017,0.017,0.024,0.036,0.024,0.059v0.651C40.601,30.314,40.594,30.338,40.58,30.352z
			 M41.747,31.5c0.038,0.039,0.084,0.069,0.137,0.093c0.053,0.022,0.109,0.034,0.168,0.034h0.131c0.06,0,0.115-0.012,0.168-0.034
			c0.053-0.023,0.099-0.054,0.138-0.093s0.069-0.085,0.093-0.138c0.022-0.052,0.034-0.107,0.034-0.167v-0.781
			c0.002-0.083-0.018-0.153-0.059-0.213s-0.102-0.101-0.182-0.123c-0.041-0.012-0.085-0.018-0.131-0.018
			c-0.08,0-0.154,0.017-0.223,0.048v-0.518h0.47c0.032,0,0.049-0.016,0.049-0.048v-0.291c0-0.032-0.017-0.048-0.049-0.048h-0.823
			c-0.032,0-0.048,0.016-0.048,0.048v1.244c0,0.022,0.013,0.039,0.037,0.048l0.326,0.086c0.012,0.004,0.021,0.003,0.027-0.004
			s0.011-0.016,0.011-0.027v-0.096c0-0.034,0.007-0.059,0.021-0.072c0.005-0.005,0.012-0.011,0.022-0.019
			c0.01-0.008,0.023-0.012,0.039-0.012h0.027c0.017,0,0.029,0.003,0.04,0.01c0.01,0.007,0.018,0.013,0.022,0.018
			c0.014,0.014,0.021,0.038,0.021,0.075v0.675c0,0.022-0.008,0.042-0.024,0.059c-0.016,0.016-0.035,0.023-0.059,0.023h-0.027
			c-0.022,0-0.042-0.008-0.058-0.023c-0.017-0.017-0.024-0.036-0.024-0.059v-0.233c0-0.031-0.015-0.043-0.045-0.034l-0.313,0.082
			c-0.029,0.01-0.044,0.03-0.044,0.063v0.141c0,0.06,0.011,0.115,0.034,0.167C41.677,31.415,41.708,31.461,41.747,31.5z
			 M43.593,29.917c0.03-0.01,0.045-0.029,0.045-0.062v-0.227c0-0.022,0.008-0.042,0.024-0.059c0.016-0.016,0.035-0.023,0.059-0.023
			h0.027c0.022,0,0.042,0.008,0.058,0.023c0.017,0.017,0.024,0.036,0.024,0.059v0.404c-0.003,0.046-0.003,0.08,0,0.103
			c0.002,0.023-0.003,0.047-0.014,0.072c-0.041,0.05-0.086,0.109-0.134,0.179c-0.041,0.059-0.088,0.13-0.141,0.212
			s-0.109,0.177-0.168,0.284c-0.017,0.03-0.031,0.063-0.045,0.1c-0.012,0.032-0.023,0.067-0.034,0.106
			c-0.012,0.038-0.02,0.08-0.024,0.123c-0.007,0.037-0.012,0.075-0.014,0.117c-0.002,0.033-0.003,0.072-0.002,0.114
			s0.006,0.085,0.013,0.129c0.004,0.021,0.015,0.03,0.03,0.03h0.906c0.021,0,0.031-0.01,0.031-0.03v-0.326
			c0-0.021-0.011-0.03-0.031-0.03h-0.532c0.012-0.039,0.025-0.079,0.041-0.12c0.014-0.037,0.032-0.079,0.056-0.127
			c0.022-0.048,0.051-0.1,0.086-0.154c0.006-0.012,0.014-0.022,0.021-0.032c0.007-0.011,0.014-0.021,0.021-0.033
			c0.036-0.055,0.074-0.11,0.114-0.168c0.04-0.057,0.078-0.112,0.112-0.167c0.039-0.06,0.066-0.123,0.084-0.188
			c0.017-0.066,0.025-0.135,0.025-0.206v-0.408c0-0.059-0.012-0.115-0.034-0.167c-0.022-0.053-0.054-0.099-0.093-0.138
			c-0.039-0.038-0.085-0.069-0.137-0.093c-0.053-0.022-0.109-0.033-0.169-0.033h-0.13c-0.06,0-0.116,0.011-0.168,0.033
			c-0.053,0.023-0.099,0.055-0.138,0.093c-0.039,0.039-0.069,0.085-0.093,0.138c-0.022,0.052-0.034,0.108-0.034,0.167v0.354
			c0,0.032,0.015,0.043,0.045,0.034L43.593,29.917z M26.276,10.195c0.055,0.003,0.083-0.022,0.086-0.077l0.114-1.922l0.504,1.964
			c0.007,0.021,0.021,0.038,0.04,0.056c0.021,0.017,0.043,0.025,0.066,0.027l0.373,0.021c0.055,0.004,0.083-0.021,0.087-0.076
			l0.231-3.913c0.004-0.055-0.021-0.083-0.076-0.086l-0.52-0.031c-0.055-0.003-0.083,0.022-0.086,0.077l-0.111,1.863L26.49,6.193
			c-0.007-0.02-0.021-0.038-0.041-0.056c-0.021-0.016-0.042-0.025-0.065-0.026l-0.385-0.023c-0.055-0.003-0.083,0.023-0.087,0.077
			l-0.232,3.913c-0.003,0.054,0.022,0.083,0.077,0.086L26.276,10.195z M30.579,10.48c0.055,0.005,0.084-0.021,0.088-0.075
			l0.038-0.518c0.004-0.055-0.021-0.084-0.076-0.087l-0.664-0.049l0.087-1.192l0.578,0.042c0.054,0.004,0.083-0.021,0.087-0.075
			l0.038-0.519c0.004-0.054-0.021-0.083-0.076-0.087l-0.576-0.042l0.061-0.838l0.665,0.049c0.054,0.004,0.083-0.021,0.087-0.076
			l0.038-0.518c0.004-0.054-0.021-0.083-0.075-0.087l-1.265-0.093c-0.055-0.004-0.083,0.021-0.088,0.076l-0.286,3.908
			c-0.004,0.055,0.021,0.084,0.076,0.088L30.579,10.48z M32.899,10.67l0.512,0.048c0.055,0.005,0.088-0.02,0.101-0.072l0.339-1.427
			h0.006l0.068,1.465c0.002,0.056,0.031,0.085,0.085,0.091l0.513,0.047c0.054,0.006,0.087-0.019,0.101-0.072l1.053-3.838
			c0.013-0.054-0.008-0.083-0.063-0.088l-0.628-0.059c-0.051-0.005-0.082,0.02-0.095,0.072l-0.484,2.346l-0.023-0.002l0.024-2.389
			c-0.003-0.055-0.029-0.084-0.079-0.09l-0.472-0.044c-0.051-0.004-0.082,0.021-0.095,0.074l-0.42,2.351l-0.023-0.002l-0.04-2.395
			c-0.002-0.055-0.028-0.085-0.079-0.089l-0.628-0.06c-0.055-0.005-0.08,0.021-0.078,0.075l0.32,3.967
			C32.816,10.635,32.845,10.665,32.899,10.67z M39.659,11.445c0.1,0.015,0.197,0.01,0.292-0.016
			c0.094-0.025,0.179-0.066,0.254-0.122c0.075-0.057,0.139-0.125,0.19-0.208c0.051-0.083,0.084-0.175,0.1-0.274l0.125-0.854
			c0.013-0.089,0.012-0.171-0.005-0.248s-0.048-0.146-0.094-0.209c-0.046-0.061-0.108-0.113-0.189-0.157
			c0.087-0.025,0.163-0.066,0.23-0.119c0.126-0.104,0.201-0.243,0.228-0.421l0.084-0.577c0.016-0.1,0.01-0.196-0.016-0.291
			c-0.025-0.094-0.066-0.179-0.122-0.254C40.68,7.62,40.61,7.557,40.528,7.505c-0.084-0.051-0.176-0.084-0.275-0.1l-0.867-0.126
			c-0.054-0.009-0.085,0.015-0.093,0.068l-0.569,3.878c-0.009,0.055,0.015,0.085,0.068,0.093L39.659,11.445z M39.891,7.983
			l0.185,0.027c0.039,0.006,0.069,0.023,0.093,0.055c0.022,0.031,0.032,0.065,0.026,0.104l-0.104,0.705
			c-0.006,0.038-0.024,0.068-0.056,0.092c-0.03,0.023-0.065,0.031-0.104,0.025l-0.186-0.026L39.891,7.983z M39.654,9.594
			l0.185,0.026c0.038,0.006,0.069,0.024,0.092,0.056c0.023,0.03,0.032,0.065,0.026,0.104l-0.135,0.918
			c-0.006,0.038-0.024,0.069-0.055,0.092c-0.031,0.023-0.065,0.032-0.104,0.026l-0.186-0.027L39.654,9.594z M42.561,11.956
			c0.042,0.006,0.072-0.01,0.089-0.047l0.198-1.439l0.228,1.475c0.005,0.023,0.017,0.045,0.035,0.063
			c0.02,0.019,0.041,0.028,0.063,0.032l0.526,0.072c0.051,0.007,0.073-0.018,0.069-0.073l-0.288-1.718
			c0.128-0.045,0.236-0.119,0.325-0.223s0.144-0.227,0.163-0.369l0.13-0.941c0.014-0.101,0.008-0.197-0.019-0.291
			c-0.026-0.095-0.067-0.179-0.125-0.254c-0.057-0.074-0.126-0.137-0.21-0.188c-0.083-0.051-0.175-0.083-0.275-0.097L42.603,7.84
			c-0.054-0.008-0.084,0.016-0.092,0.069l-0.535,3.884c-0.008,0.054,0.016,0.085,0.069,0.092L42.561,11.956z M43.114,8.54
			l0.185,0.025c0.038,0.006,0.069,0.023,0.093,0.055c0.023,0.03,0.032,0.065,0.027,0.104l-0.122,0.884
			c-0.005,0.038-0.023,0.069-0.054,0.093c-0.031,0.023-0.065,0.032-0.104,0.026l-0.185-0.025L43.114,8.54z M45.771,12.25
			c0.051,0.003,0.081-0.022,0.093-0.076l0.083-0.626l0.361,0.021l0.011,0.632c0.004,0.055,0.031,0.084,0.082,0.087l0.531,0.03
			c0.055,0.003,0.079-0.021,0.074-0.077l-0.208-3.938c-0.005-0.055-0.034-0.084-0.089-0.087L45.939,8.17
			c-0.054-0.003-0.087,0.022-0.098,0.076l-0.666,3.888c-0.011,0.054,0.011,0.082,0.065,0.085L45.771,12.25z M46.235,9.326
			l0.047,0.003l0.019,1.585l-0.269-0.017L46.235,9.326z M49.155,12.415c0.055,0.002,0.082-0.024,0.085-0.079l0.072-1.924
			l0.546,1.953c0.007,0.02,0.021,0.038,0.042,0.054c0.021,0.017,0.043,0.025,0.066,0.026l0.374,0.014
			c0.054,0.003,0.082-0.023,0.084-0.078l0.148-3.917c0.002-0.055-0.024-0.082-0.078-0.085l-0.52-0.02
			c-0.055-0.002-0.083,0.024-0.085,0.079l-0.071,1.865l-0.536-1.895c-0.007-0.02-0.021-0.038-0.042-0.054
			c-0.021-0.017-0.043-0.025-0.065-0.026L48.79,8.315c-0.055-0.003-0.083,0.023-0.085,0.078l-0.147,3.917
			c-0.003,0.054,0.023,0.082,0.078,0.085L49.155,12.415z M53.072,12.54c0.101,0.003,0.197-0.015,0.288-0.051
			c0.09-0.036,0.17-0.087,0.237-0.151c0.068-0.064,0.123-0.141,0.164-0.229c0.041-0.089,0.063-0.184,0.065-0.284l0.07-2.612
			c0.003-0.102-0.015-0.197-0.051-0.287c-0.037-0.091-0.087-0.17-0.152-0.237c-0.064-0.068-0.141-0.123-0.229-0.164
			c-0.088-0.041-0.184-0.063-0.284-0.066l-0.876-0.022c-0.055-0.002-0.083,0.024-0.084,0.079l-0.104,3.918
			c-0.001,0.055,0.025,0.083,0.08,0.084L53.072,12.54z M52.89,9.075l0.187,0.005c0.039,0.001,0.071,0.016,0.099,0.043
			c0.026,0.028,0.039,0.062,0.038,0.101l-0.067,2.554c-0.002,0.039-0.016,0.071-0.044,0.099c-0.028,0.026-0.062,0.039-0.101,0.038
			l-0.187-0.005L52.89,9.075z"/>
	</g>
</g>
</svg>
