<?xml version="1.0" encoding="utf-8"?>
<!-- Generator: Adobe Illustrator 16.0.0, SVG Export Plug-In . SVG Version: 6.00 Build 0)  -->
<!DOCTYPE svg PUBLIC "-//W3C//DTD SVG 1.1//EN" "http://www.w3.org/Graphics/SVG/1.1/DTD/svg11.dtd">
<svg version="1.1" id="Layer_1" xmlns="http://www.w3.org/2000/svg" xmlns:xlink="http://www.w3.org/1999/xlink" x="0px" y="0px"
	 width="115px" height="92px" viewBox="0 0 115 92" enable-background="new 0 0 115 92" xml:space="preserve">
<g>
	<g>
		<path fill="#36434D" d="M114.361,48.407c0.549-0.869,0.678-1.808,0.357-2.58c-0.32-0.771-1.025-1.213-1.936-1.213h-8.018v-9.982
			c0-1.876-1.32-3.446-3.082-3.849c-2.813-7.526-7.535-14.261-13.682-19.488C79.447,4.011,68.547,0.001,57.309,0.001
			c-11.239,0-22.139,4.01-30.694,11.294c-6.167,5.246-10.903,12.009-13.712,19.567c-1.608,0.504-2.777,2.003-2.777,3.77v9.982H2.025
			c-0.909,0-1.615,0.442-1.936,1.213c-0.321,0.771-0.188,1.71,0.36,2.58l2.232,3.527c0.417,0.66,0.479,1.91,0.129,2.623
			l-1.962,4.008c-0.447,0.912-0.493,1.873-0.13,2.635c0.365,0.762,1.082,1.197,1.966,1.197h10.702
			c2.855,7.051,7.404,13.355,13.226,18.309c8.556,7.283,19.456,11.293,30.693,11.293c11.238,0,22.138-4.01,30.695-11.293
			c5.822-4.953,10.369-11.258,13.225-18.309h10.896c0.885,0,1.6-0.436,1.967-1.197c0.363-0.762,0.316-1.723-0.131-2.635
			l-1.961-4.008c-0.35-0.713-0.287-1.963,0.129-2.623L114.361,48.407z M104.76,52.267l5.115,0.115
			c-0.055,0.34-0.082,0.689-0.082,1.037l-5.375,0.357C104.627,53.312,104.746,52.802,104.76,52.267z M57.309,2.802
			c18.167,0,34.652,11.169,41.339,27.879H15.97C22.658,13.971,39.141,2.802,57.309,2.802z M12.107,51.54l8.371-0.557l-8.371-0.191
			v-1.279l8.371-0.557l-8.371-0.193v-1.193l8.371-0.557l-8.371-0.191v-1.28l8.371-0.557l-8.371-0.191v-1.195l8.371-0.558
			l-8.371-0.191v-1.277l8.371-0.558l-8.371-0.192v-1.196l8.371-0.556l-8.371-0.191v-1.188l8.371-0.559l-8.371-0.19v-1.279
			l8.371-0.557l-8.371-0.191v-0.282c0-0.337,0.094-0.65,0.245-0.93l8.125-0.54l-7.488-0.171c0.315-0.212,0.692-0.334,1.099-0.334
			h86.712c0.406,0,0.781,0.122,1.096,0.33l-7.609,0.175l8.256,0.55c0.148,0.275,0.24,0.587,0.24,0.92v0.279l-8.496,0.194
			l8.496,0.565v1.268l-8.496,0.193l8.496,0.568v1.175l-8.496,0.194l8.496,0.564v1.186l-8.496,0.194l8.496,0.565v1.268l-8.496,0.193
			l8.496,0.566v1.184l-8.496,0.194l8.496,0.565v1.269l-8.496,0.194l8.496,0.564v1.184l-8.496,0.195l8.496,0.566v1.266l-8.496,0.195
			l8.496,0.564v0.619c0,0.199-0.039,0.389-0.094,0.568l-8.402,0.191l8.002,0.533c-0.363,0.414-0.893,0.684-1.488,0.684H14.089
			c-0.599,0-1.131-0.271-1.494-0.691l7.883-0.525l-8.276-0.189c-0.056-0.18-0.094-0.369-0.094-0.57V51.54z M10.468,53.769
			l-5.453-0.363c0-0.342-0.026-0.684-0.08-1.02l5.196-0.117C10.144,52.8,10.262,53.308,10.468,53.769z M2.788,48.175l5.548-0.127
			L2.46,47.655l-0.424-0.671h8.09v5.183c0,0.018,0.002,0.031,0.002,0.047L4.824,51.86c-0.086-0.338-0.201-0.658-0.344-0.955
			l5.632-0.129l-5.928-0.395l-0.537-0.85l5.576-0.129l-5.905-0.393L2.788,48.175z M2.686,60.026c-0.097,0-0.167-0.014-0.214-0.027
			c0.015-0.057,0.04-0.137,0.088-0.236L2.62,59.64l5.901-0.135l-5.65-0.377l0.413-0.846l5.917-0.133l-5.666-0.379l0.442-0.902
			l5.927-0.135l-5.676-0.379l0.292-0.6c0.058-0.117,0.109-0.244,0.157-0.371l5.764-0.131l-5.605-0.375
			c0.078-0.305,0.128-0.621,0.155-0.945l5.494-0.129c0.625,1.365,2.004,2.316,3.604,2.316h6.984l-0.029,2.705
			c-0.007,0.65-0.472,1.201-1.016,1.201H2.686z M57.307,89.198c-17.775,0-33.943-10.688-40.897-26.801h3.618
			c1.632,0,2.977-1.59,2.998-3.541l0.03-2.736h68.699l0.029,2.736c0.021,1.951,1.365,3.541,2.998,3.541h3.424
			C91.252,78.511,75.084,89.198,57.307,89.198z M111.943,59.14l-5.473,0.365l5.715,0.131l0.063,0.127
			c0.049,0.1,0.076,0.18,0.09,0.236c-0.047,0.014-0.117,0.027-0.215,0.027H94.781c-0.545,0-1.01-0.551-1.016-1.201l-0.029-2.705
			h7.064c1.602,0,2.98-0.953,3.605-2.316l5.41,0.125c0.027,0.328,0.08,0.652,0.158,0.963l-5.424,0.361l5.578,0.127
			c0.049,0.129,0.1,0.256,0.158,0.375l0.299,0.611l-5.498,0.367l5.742,0.131l0.449,0.918l-5.49,0.367l5.732,0.129L111.943,59.14z
			 M111.484,49.024l-5.715,0.379l5.396,0.125l-0.549,0.865l-5.736,0.383l5.451,0.125c-0.146,0.301-0.264,0.627-0.35,0.973
			l-5.221,0.346c0-0.016,0.004-0.033,0.004-0.053v-5.183h8.008l-0.434,0.685l-5.682,0.379l5.365,0.123L111.484,49.024z
			 M40.653,79.021l-0.589-0.293c-0.042-0.02-0.076-0.012-0.103,0.027l-1.831,2.826c-0.026,0.039-0.019,0.068,0.023,0.09l0.406,0.201
			c0.039,0.02,0.072,0.01,0.098-0.029l0.276-0.463l0.277,0.139l-0.205,0.498c-0.015,0.045-0.003,0.076,0.036,0.096l0.406,0.201
			c0.042,0.021,0.07,0.01,0.085-0.035l1.161-3.158C40.708,79.075,40.695,79.042,40.653,79.021z M39.423,81.001l-0.206-0.102
			l0.688-1.166l0.036,0.02L39.423,81.001z M42.932,80.044l-0.408-0.176c-0.042-0.018-0.073-0.006-0.092,0.037L41.8,81.366
			l0.158-1.67c0-0.018-0.005-0.037-0.017-0.057c-0.012-0.02-0.026-0.033-0.045-0.041l-0.302-0.129
			c-0.042-0.02-0.073-0.008-0.092,0.035l-1.329,3.07c-0.019,0.043-0.006,0.072,0.037,0.092l0.408,0.176
			c0.042,0.018,0.073,0.006,0.091-0.037l0.652-1.508l-0.168,1.721c-0.001,0.02,0.004,0.037,0.016,0.057s0.027,0.033,0.045,0.041
			l0.293,0.127c0.043,0.018,0.073,0.006,0.092-0.037l1.328-3.07C42.987,80.093,42.975,80.063,42.932,80.044z M44.553,80.71
			c-0.061-0.059-0.131-0.102-0.212-0.131l-0.703-0.258c-0.043-0.016-0.073-0.002-0.089,0.041l-1.155,3.141
			c-0.016,0.043-0.002,0.072,0.042,0.088l0.703,0.258c0.081,0.029,0.164,0.043,0.247,0.037c0.083-0.004,0.161-0.023,0.233-0.057
			c0.073-0.035,0.138-0.08,0.195-0.141s0.101-0.131,0.131-0.213l0.77-2.092c0.03-0.082,0.042-0.164,0.037-0.246
			c-0.005-0.084-0.024-0.162-0.058-0.234C44.66,80.831,44.613,80.767,44.553,80.71z M43.405,83.253
			c-0.012,0.031-0.032,0.053-0.063,0.066c-0.03,0.014-0.061,0.016-0.092,0.004l-0.15-0.055l0.835-2.27l0.15,0.055
			c0.031,0.01,0.054,0.031,0.068,0.061c0.014,0.031,0.015,0.061,0.004,0.092L43.405,83.253z M47.354,82.138
			c0.045,0.012,0.074-0.004,0.086-0.049l0.121-0.426c0.013-0.045-0.003-0.074-0.048-0.086l-1.042-0.293
			c-0.045-0.014-0.074,0.002-0.086,0.047l-0.912,3.219c-0.013,0.045,0.003,0.072,0.048,0.086l1.042,0.293
			c0.045,0.012,0.073-0.004,0.086-0.049l0.121-0.426c0.013-0.045-0.003-0.072-0.048-0.086l-0.548-0.154l0.278-0.98l0.476,0.133
			c0.045,0.014,0.074-0.004,0.086-0.047l0.121-0.428c0.013-0.043-0.003-0.072-0.048-0.086l-0.476-0.133l0.195-0.689L47.354,82.138z
			 M49.207,81.983c-0.045-0.01-0.073,0.008-0.083,0.053l-0.353,1.553l-0.153-1.672c-0.003-0.018-0.012-0.035-0.027-0.051
			c-0.015-0.018-0.032-0.029-0.051-0.033l-0.321-0.072c-0.045-0.01-0.073,0.008-0.083,0.053l-0.74,3.262
			c-0.01,0.045,0.007,0.072,0.053,0.082l0.434,0.098c0.045,0.012,0.073-0.006,0.083-0.053l0.363-1.602l0.152,1.723
			c0.003,0.018,0.012,0.035,0.027,0.053c0.015,0.018,0.032,0.027,0.051,0.031l0.312,0.07c0.045,0.012,0.074-0.006,0.083-0.053
			l0.74-3.26c0.01-0.047-0.007-0.074-0.053-0.084L49.207,81.983z M51.146,82.353c-0.046-0.008-0.073,0.012-0.081,0.057l-0.467,2.758
			c-0.006,0.031-0.022,0.059-0.049,0.078c-0.027,0.018-0.057,0.025-0.089,0.02l-0.04-0.008c-0.033-0.004-0.059-0.021-0.078-0.047
			c-0.019-0.027-0.026-0.057-0.021-0.09l0.128-0.756c0.008-0.045-0.011-0.064-0.056-0.059l-0.468,0.041
			c-0.045,0.006-0.071,0.031-0.079,0.078l-0.106,0.623c-0.014,0.084-0.012,0.168,0.009,0.248c0.02,0.082,0.053,0.154,0.1,0.219
			c0.046,0.064,0.104,0.121,0.174,0.166s0.147,0.074,0.233,0.09l0.187,0.031c0.085,0.014,0.168,0.012,0.249-0.008
			c0.081-0.021,0.154-0.053,0.219-0.1c0.065-0.047,0.121-0.104,0.167-0.174s0.076-0.146,0.09-0.232l0.472-2.781
			c0.007-0.047-0.011-0.072-0.057-0.08L51.146,82.353z M53.46,82.813c-0.05-0.063-0.111-0.115-0.183-0.156
			c-0.072-0.043-0.151-0.068-0.237-0.078l-0.188-0.021c-0.086-0.01-0.169-0.004-0.249,0.021c-0.08,0.023-0.151,0.061-0.213,0.109
			c-0.063,0.051-0.115,0.111-0.157,0.184c-0.042,0.07-0.068,0.15-0.078,0.236l-0.266,2.283c-0.01,0.086-0.002,0.168,0.022,0.248
			c0.024,0.078,0.061,0.15,0.11,0.213c0.05,0.063,0.111,0.115,0.183,0.156c0.072,0.041,0.151,0.066,0.237,0.078l0.189,0.021
			c0.085,0.01,0.168,0.002,0.249-0.021c0.08-0.025,0.151-0.063,0.214-0.111c0.063-0.049,0.115-0.109,0.157-0.182
			c0.042-0.072,0.068-0.15,0.078-0.236l0.266-2.283c0.01-0.086,0.003-0.17-0.021-0.248C53.546,82.946,53.509,82.876,53.46,82.813z
			 M52.75,85.466c-0.004,0.033-0.019,0.059-0.044,0.08c-0.026,0.02-0.055,0.027-0.088,0.023l-0.04-0.004
			c-0.033-0.004-0.06-0.018-0.081-0.045c-0.02-0.025-0.028-0.055-0.024-0.088l0.259-2.232c0.004-0.033,0.019-0.061,0.044-0.08
			c0.026-0.021,0.055-0.029,0.088-0.025l0.04,0.004c0.033,0.004,0.06,0.02,0.08,0.045c0.02,0.025,0.028,0.055,0.025,0.088
			L52.75,85.466z M55.694,82.829l-0.528-0.033c-0.047-0.004-0.075,0.018-0.084,0.063l-0.281,1.24l-0.02-0.002l-0.118-1.264
			c-0.004-0.047-0.029-0.072-0.075-0.074l-0.528-0.035c-0.02-0.002-0.035,0.006-0.046,0.02c-0.01,0.014-0.013,0.029-0.008,0.047
			l0.439,2.092l-0.083,1.281c-0.003,0.047,0.019,0.072,0.065,0.074l0.448,0.029c0.046,0.002,0.071-0.02,0.074-0.064l0.083-1.281
			l0.706-2.02c0.008-0.016,0.007-0.031-0.001-0.047S55.713,82.831,55.694,82.829z M58.398,82.845l-1.288,0.021
			c-0.047,0-0.07,0.023-0.069,0.07l0.007,0.443c0.001,0.045,0.024,0.068,0.071,0.068l0.35-0.006l0.046,2.83
			c0.001,0.02,0.009,0.037,0.023,0.049c0.015,0.014,0.03,0.02,0.048,0.02l0.443-0.006c0.047-0.002,0.07-0.025,0.07-0.072
			l-0.047-2.83l0.354-0.006c0.047,0,0.07-0.023,0.07-0.07l-0.008-0.443C58.467,82.866,58.443,82.845,58.398,82.845z M60.395,82.745
			l-0.443,0.027c-0.047,0.004-0.068,0.027-0.064,0.074l0.08,1.336l-0.328,0.02l-0.082-1.336c-0.002-0.047-0.027-0.068-0.074-0.066
			l-0.443,0.027c-0.047,0.004-0.068,0.027-0.064,0.074l0.201,3.338c0.004,0.045,0.027,0.068,0.074,0.064l0.443-0.027
			c0.047-0.002,0.068-0.025,0.066-0.072l-0.086-1.42l0.328-0.021l0.086,1.422c0.004,0.045,0.027,0.066,0.074,0.064l0.443-0.027
			c0.047-0.002,0.068-0.027,0.066-0.072l-0.203-3.338C60.467,82.765,60.441,82.743,60.395,82.745z M62.576,85.437l-0.564,0.064
			l-0.115-1.014l0.492-0.057c0.045-0.004,0.066-0.029,0.061-0.076L62.4,83.915c-0.006-0.047-0.031-0.068-0.078-0.063l-0.49,0.055
			l-0.08-0.711l0.564-0.064c0.047-0.004,0.066-0.029,0.063-0.076l-0.051-0.439c-0.004-0.047-0.031-0.068-0.076-0.063l-1.076,0.121
			c-0.047,0.006-0.068,0.031-0.063,0.076l0.375,3.324c0.006,0.045,0.031,0.066,0.078,0.061l1.076-0.121
			c0.047-0.006,0.066-0.031,0.063-0.076l-0.051-0.441C62.648,85.452,62.623,85.431,62.576,85.437z M65.127,82.077l-0.438,0.082
			c-0.045,0.01-0.064,0.037-0.055,0.082l0.521,2.748c0.006,0.033,0,0.063-0.02,0.09c-0.018,0.027-0.043,0.043-0.076,0.049
			l-0.039,0.008c-0.033,0.006-0.063,0-0.09-0.018c-0.027-0.02-0.043-0.045-0.051-0.078l-0.143-0.752
			c-0.008-0.045-0.033-0.059-0.072-0.037l-0.424,0.201c-0.041,0.021-0.057,0.055-0.047,0.1l0.117,0.621
			c0.016,0.086,0.047,0.162,0.094,0.23c0.047,0.07,0.104,0.127,0.17,0.172s0.141,0.076,0.221,0.094
			c0.082,0.02,0.166,0.02,0.25,0.004l0.188-0.035c0.084-0.016,0.16-0.047,0.23-0.094c0.068-0.047,0.125-0.104,0.172-0.17
			c0.045-0.064,0.076-0.139,0.094-0.221c0.02-0.08,0.02-0.164,0.004-0.248l-0.525-2.771C65.199,82.087,65.172,82.069,65.127,82.077z
			 M67.297,82.181c-0.02-0.084-0.055-0.16-0.105-0.227s-0.109-0.119-0.18-0.16c-0.066-0.043-0.143-0.07-0.225-0.084
			s-0.166-0.012-0.25,0.01l-0.184,0.045c-0.084,0.02-0.16,0.055-0.227,0.105s-0.119,0.109-0.162,0.178
			c-0.041,0.068-0.068,0.143-0.084,0.225c-0.014,0.082-0.01,0.166,0.01,0.25l0.547,2.232c0.02,0.084,0.057,0.158,0.105,0.225
			c0.051,0.066,0.111,0.121,0.18,0.162s0.143,0.068,0.225,0.084c0.082,0.014,0.166,0.01,0.25-0.01l0.184-0.045
			c0.084-0.021,0.16-0.057,0.227-0.105c0.066-0.051,0.121-0.109,0.162-0.178s0.07-0.145,0.084-0.227s0.01-0.164-0.01-0.248
			L67.297,82.181z M67.256,84.618c-0.016,0.027-0.041,0.045-0.074,0.053l-0.037,0.01c-0.033,0.008-0.064,0.004-0.092-0.014
			s-0.047-0.041-0.055-0.074l-0.533-2.186c-0.008-0.031-0.004-0.063,0.014-0.09s0.041-0.047,0.074-0.055l0.039-0.008
			c0.031-0.008,0.063-0.004,0.09,0.014c0.029,0.016,0.047,0.041,0.055,0.074l0.533,2.184C67.277,84.56,67.273,84.589,67.256,84.618z
			 M69.082,81.116c-0.012-0.045-0.041-0.061-0.086-0.047l-0.426,0.127c-0.045,0.014-0.061,0.043-0.047,0.086l0.807,2.68
			c0.01,0.031,0.006,0.063-0.01,0.09c-0.016,0.029-0.039,0.049-0.07,0.059l-0.039,0.012c-0.031,0.01-0.063,0.006-0.092-0.01
			c-0.027-0.016-0.047-0.039-0.057-0.07l-0.807-2.68c-0.014-0.043-0.043-0.059-0.088-0.045l-0.424,0.127
			c-0.045,0.014-0.061,0.041-0.047,0.086l0.813,2.703c0.025,0.082,0.064,0.154,0.117,0.219c0.055,0.063,0.117,0.113,0.188,0.152
			c0.07,0.037,0.146,0.061,0.23,0.07c0.082,0.01,0.166,0.004,0.248-0.021l0.182-0.055c0.082-0.025,0.156-0.064,0.221-0.117
			c0.063-0.055,0.113-0.115,0.152-0.186c0.037-0.07,0.061-0.146,0.07-0.23c0.01-0.082,0.004-0.164-0.021-0.248L69.082,81.116z
			 M71.482,82.079c0.027-0.113,0.02-0.229-0.023-0.344l-0.273-0.764c-0.029-0.082-0.072-0.152-0.131-0.213
			c-0.057-0.061-0.121-0.107-0.193-0.143c-0.072-0.033-0.15-0.053-0.234-0.059c-0.082-0.006-0.166,0.006-0.246,0.035l-0.705,0.254
			c-0.043,0.016-0.059,0.045-0.041,0.088l1.133,3.146c0.016,0.045,0.045,0.059,0.088,0.043l0.418-0.15
			c0.035-0.012,0.051-0.035,0.051-0.07l-0.42-1.166l0.756,1.025c0.012,0.016,0.029,0.027,0.051,0.033
			c0.021,0.008,0.043,0.008,0.061,0l0.428-0.152c0.041-0.016,0.049-0.043,0.023-0.082l-0.898-1.186
			C71.404,82.29,71.457,82.192,71.482,82.079z M70.896,81.999c-0.014,0.031-0.035,0.051-0.066,0.063l-0.15,0.053l-0.34-0.941
			l0.15-0.053c0.031-0.012,0.063-0.01,0.092,0.004s0.051,0.037,0.063,0.068l0.258,0.717C70.912,81.94,70.912,81.97,70.896,81.999z
			 M72.955,79.563l-0.408,0.174c-0.043,0.018-0.055,0.049-0.037,0.092l0.623,1.465l-1.102-1.268
			c-0.014-0.014-0.031-0.021-0.053-0.027c-0.021-0.004-0.043-0.004-0.061,0.004l-0.305,0.129c-0.041,0.018-0.055,0.049-0.035,0.092
			l1.309,3.078c0.018,0.043,0.049,0.055,0.092,0.035l0.408-0.172c0.043-0.018,0.057-0.049,0.037-0.092l-0.643-1.512l1.133,1.311
			c0.012,0.014,0.029,0.021,0.051,0.027c0.023,0.004,0.043,0.004,0.061-0.004l0.295-0.125c0.043-0.018,0.055-0.049,0.037-0.092
			l-1.311-3.078C73.029,79.558,72.998,79.546,72.955,79.563z M75.912,81.37L75.4,81.618l-0.449-0.916l0.443-0.217
			c0.043-0.02,0.053-0.051,0.033-0.092l-0.195-0.398c-0.02-0.041-0.051-0.053-0.094-0.031l-0.443,0.215l-0.316-0.643l0.512-0.25
			c0.043-0.02,0.053-0.051,0.033-0.094l-0.195-0.396c-0.021-0.043-0.053-0.053-0.094-0.033l-0.973,0.475
			c-0.043,0.021-0.053,0.053-0.033,0.094l1.473,3.004c0.021,0.041,0.053,0.053,0.094,0.031l0.973-0.473
			c0.043-0.021,0.053-0.053,0.033-0.094l-0.195-0.398C75.984,81.36,75.953,81.349,75.912,81.37z M76.654,77.755
			c-0.004-0.02-0.012-0.031-0.027-0.039c-0.018-0.01-0.033-0.008-0.051,0.002l-0.463,0.254c-0.041,0.023-0.053,0.057-0.037,0.1
			l0.436,1.193l-0.018,0.01l-0.785-1c-0.027-0.037-0.063-0.045-0.104-0.023l-0.463,0.256c-0.018,0.01-0.025,0.023-0.027,0.041
			s0.004,0.033,0.018,0.045l1.504,1.525l0.623,1.123c0.023,0.041,0.055,0.049,0.096,0.027l0.393-0.217
			c0.041-0.023,0.049-0.055,0.027-0.096l-0.623-1.123L76.654,77.755z M35.911,67.269h0.66v-0.986l2.395,5.422h0.613l2.394-5.473
			v-0.217h-1.387l-1.29,3.182h-0.041l-1.322-3.182h-4.111v1.254h0.661v3.109h-0.638v-0.033h-2.047c0-2.395,0-1.422,0-4.33h-1.451
			v5.625h6.28v-1.262h-0.717V67.269z M45.867,70.362h-2.16v-0.988h1.919v-1.279h-1.919V67.3h2.088v-1.285h-3.522v5.625h3.594V70.362
			z M49.367,71.64h1.426v-2.363l1.902-3.045v-0.217h-1.563l-1.023,1.871h-0.057l-1.023-1.871h-1.556v0.217l1.895,3.045V71.64z
			 M52.343,68.835c0,3.896,5.788,3.896,5.788,0C58.131,64.946,52.343,64.946,52.343,68.835z M56.655,68.835
			c0,2.041-2.829,2.041-2.829,0C53.826,66.81,56.655,66.81,56.655,68.835z M61.654,69.743c0,0.457-0.436,0.682-0.854,0.682
			c-0.42,0-0.863-0.225-0.863-0.682v-3.729h-1.379v3.752c0,1.238,1.088,1.953,2.242,1.953c1.16,0,2.232-0.715,2.232-1.953v-3.752
			h-1.379V69.743z M65.266,69.983h0.75l0.969,1.656h1.611v-0.209l-1.105-1.785c1.428-0.963,1.025-3.623-1.191-3.631h-2.475v5.625
			h1.441V69.983z M65.266,67.3c0.34,0,0.693-0.008,1.033,0c0.822,0.008,0.781,1.406,0,1.406h-1.033V67.3z M76.748,70.378h-0.719
			v-3.109h0.662v-1.254h-2.748v1.254h0.66v3.109h-0.639v-0.033h-2.047c0-2.395,0-1.422,0-4.33h-1.451v5.625h6.281V70.378z
			 M77.088,71.64h1.467v-1.824h1.813v-1.287h-1.813V67.3h2.047v-1.285h-3.514V71.64z M82.545,69.374h1.918v-1.279h-1.918V67.3h2.088
			v-1.285h-3.521v5.625h3.594v-1.277h-2.16V69.374z M41.068,61.548h0.495l-0.246-1.064L41.068,61.548z M41.197,61.446l0.12-0.514
			l0.12,0.514H41.197z M40.894,62.302H41l0.135-0.586H41.5l0.137,0.586h0.103l-0.16-0.688h-0.526L40.894,62.302z M41.286,60.319
			h0.063l0.46,1.982h0.106l-0.489-2.104h-0.215l-0.489,2.104h0.103L41.286,60.319z M44.101,62.03h-0.65v-1.834h-0.1v1.934h0.75
			V62.03z M44.101,62.198h-0.818v-2.002h-0.101v2.102h0.919V62.198z M46.183,60.31h0.06l0.346,1.701l0.343-1.813h-0.103l-0.24,1.344
			l-0.266-1.344h-0.218l-0.269,1.344l-0.241-1.344h-0.103l0.344,1.813L46.183,60.31z M45.945,62.302l0.269-1.342l0.266,1.342h0.218
			l0.409-2.104h-0.106l-0.38,1.992h-0.06l-0.347-1.701l-0.349,1.701h-0.057l-0.383-1.992h-0.106l0.409,2.104H45.945z M48.228,62.302
			h0.106l0.134-0.586h0.366l0.137,0.586h0.104l-0.16-0.688h-0.527L48.228,62.302z M48.619,60.319h0.063l0.46,1.982h0.106
			l-0.489-2.104h-0.215l-0.489,2.104h0.103L48.619,60.319z M48.402,61.548h0.495l-0.246-1.064L48.402,61.548z M48.531,61.446
			l0.12-0.514l0.12,0.514H48.531z M51.231,60.198h-0.109l-0.343,0.773l-0.341-0.773h-0.117l0.455,0.982L51.231,60.198z
			 M50.644,62.302h0.098v-1.041l-0.498-1.063h-0.114l0.515,1.088V62.302z M50.807,62.302h0.106v-1.016l0.518-1.088h-0.123
			l-0.501,1.063V62.302z M53.155,61.38l0.052,0.023c0.123,0.055,0.257,0.119,0.257,0.316c0,0.117-0.025,0.314-0.231,0.314
			c-0.106,0-0.149-0.037-0.169-0.064c-0.043-0.053-0.066-0.143-0.066-0.264v-0.135h-0.1v0.135c0,0.148,0.029,0.256,0.086,0.328
			c0.054,0.064,0.137,0.1,0.249,0.1c0.209,0,0.335-0.152,0.335-0.414c0-0.283-0.226-0.373-0.324-0.41l-0.048-0.023
			c-0.109-0.047-0.367-0.154-0.367-0.486c0-0.145,0.035-0.262,0.1-0.35c0.072-0.1,0.175-0.148,0.304-0.148
			c0.135,0,0.235,0.043,0.301,0.129c0.065,0.08,0.1,0.201,0.1,0.369v0.135h0.103V60.8c0-0.184-0.041-0.33-0.124-0.436
			c-0.06-0.076-0.174-0.166-0.38-0.166c-0.301,0-0.504,0.246-0.504,0.602c0,0.172,0.058,0.313,0.172,0.424
			C52.993,61.312,53.095,61.354,53.155,61.38z M53.233,62.302c0.163,0,0.289-0.061,0.384-0.18c0.08-0.105,0.12-0.24,0.12-0.402
			c0-0.172-0.061-0.311-0.178-0.42c-0.091-0.088-0.195-0.125-0.249-0.148l-0.046-0.02c-0.134-0.051-0.266-0.137-0.266-0.332
			c0-0.078,0.017-0.33,0.235-0.33c0.08,0,0.231,0,0.231,0.33v0.135h0.104V60.8c0-0.146-0.029-0.258-0.086-0.33
			c-0.054-0.068-0.137-0.102-0.249-0.102c-0.246,0-0.335,0.236-0.335,0.432c0,0.281,0.221,0.381,0.326,0.426l0.046,0.02
			c0.1,0.037,0.364,0.146,0.364,0.475c0,0.137-0.035,0.256-0.1,0.34c-0.069,0.094-0.175,0.143-0.301,0.143
			c-0.135,0-0.235-0.043-0.304-0.127c-0.065-0.082-0.1-0.207-0.1-0.369v-0.135h-0.1v0.135c0,0.188,0.04,0.332,0.123,0.434
			C52.938,62.247,53.064,62.302,53.233,62.302z M57.643,60.425c0.068,0.08,0.103,0.205,0.103,0.373c0,0.254-0.08,0.41-0.24,0.471
			c0.046,0.02,0.086,0.045,0.12,0.078c0.083,0.082,0.123,0.193,0.123,0.332v0.623h0.104v-0.623c0-0.174-0.058-0.311-0.16-0.41
			c0.012-0.008,0.02-0.02,0.028-0.029c0.083-0.1,0.126-0.248,0.126-0.441c0-0.197-0.043-0.342-0.126-0.439
			c-0.092-0.105-0.229-0.16-0.409-0.16h-0.438v0.104h0.438C57.462,60.302,57.571,60.341,57.643,60.425z M57.682,62.302v-0.623
			c0-0.242-0.134-0.379-0.371-0.379h-0.27v1.002h0.1v-0.898h0.169c0.18,0,0.269,0.09,0.269,0.275v0.623H57.682z M57.677,60.798
			c0-0.15-0.028-0.262-0.086-0.33c-0.058-0.066-0.151-0.1-0.28-0.1h-0.27v0.863h0.27C57.571,61.231,57.677,61.106,57.677,60.798z
			 M57.142,60.47h0.169c0.174,0,0.266,0.047,0.266,0.328c0,0.125-0.02,0.215-0.063,0.268c-0.015,0.021-0.058,0.066-0.203,0.066
			h-0.169V60.47z M56.973,60.368h-0.1v1.934h0.1V60.368z M60.01,61.386v-0.104h-0.703v0.852h0.703v-0.1h-0.604v-0.648H60.01z
			 M60.01,60.47v-0.102h-0.703v0.85h0.703v-0.104h-0.604V60.47H60.01z M60.01,62.202h-0.771v-1.9h0.771v-0.104h-0.871v2.104h0.871
			V62.202z M62.504,62.298v-1.729l-0.492,1.719l-0.494-1.719v1.729h0.1v-1.006l0.291,1.006h0.205l0.291-1.006v1.006H62.504z
			 M61.449,60.298h0.059l0.504,1.744l0.502-1.744h0.059v2h0.102v-2.102h-0.238l-0.424,1.48l-0.426-1.48h-0.238v2.102h0.102V60.298z
			 M64.908,62.202h-0.773v-1.9h0.773v-0.104h-0.873v2.104h0.873V62.202z M64.908,61.386v-0.104h-0.705v0.852h0.705v-0.1h-0.605
			v-0.648H64.908z M64.908,60.47v-0.102h-0.705v0.85h0.705v-0.104h-0.605V60.47H64.908z M67.402,62.298v-1.729l-0.492,1.719
			l-0.496-1.719v1.729h0.1v-1.006l0.293,1.006h0.203l0.291-1.006v1.006H67.402z M66.346,60.298h0.061l0.504,1.744l0.5-1.744h0.061v2
			h0.1v-2.102h-0.238l-0.422,1.48l-0.428-1.48h-0.236v2.102h0.1V60.298z M69.1,62.134h0.238c0.123,0,0.211-0.031,0.266-0.098
			c0.055-0.07,0.084-0.18,0.084-0.324c0-0.301-0.107-0.43-0.35-0.43H69.1V62.134z M69.201,61.386h0.137
			c0.135,0,0.246,0.023,0.246,0.326c0,0.299-0.105,0.322-0.246,0.322h-0.137V61.386z M69.732,62.146
			c0.084-0.102,0.123-0.244,0.123-0.434c0-0.191-0.039-0.334-0.123-0.436c-0.002-0.004-0.012-0.014-0.023-0.025l0.023-0.027
			c0.084-0.1,0.123-0.242,0.123-0.434c0-0.189-0.039-0.332-0.123-0.432c-0.086-0.105-0.217-0.16-0.395-0.16h-0.406v0.104h0.406
			c0.285,0,0.414,0.154,0.414,0.488c0,0.248-0.074,0.398-0.219,0.459c0.047,0.023,0.09,0.055,0.123,0.092
			c0.064,0.082,0.096,0.205,0.096,0.371c0,0.168-0.031,0.289-0.096,0.367c-0.07,0.082-0.176,0.123-0.318,0.123h-0.406v0.1h0.406
			C69.516,62.302,69.646,62.251,69.732,62.146z M69.031,60.368h-0.1v1.766h0.1V60.368z M69.688,60.79
			c0-0.148-0.029-0.258-0.084-0.322c-0.055-0.066-0.143-0.1-0.266-0.1H69.1v0.85h0.238C69.58,61.218,69.688,61.089,69.688,60.79z
			 M69.201,60.47h0.137c0.141,0,0.246,0.023,0.246,0.32c0,0.127-0.02,0.213-0.061,0.262c-0.02,0.031-0.063,0.063-0.186,0.063h-0.137
			V60.47z M72.027,61.386v-0.104h-0.705v0.852h0.705v-0.1h-0.605v-0.648H72.027z M72.027,60.47v-0.102h-0.705v0.85h0.705v-0.104
			h-0.605V60.47H72.027z M72.027,62.202h-0.773v-1.9h0.773v-0.104h-0.873v2.104h0.873V62.202z M74.168,60.798
			c0-0.15-0.029-0.262-0.086-0.33c-0.057-0.066-0.15-0.1-0.279-0.1h-0.27v0.863h0.27C74.063,61.231,74.168,61.106,74.168,60.798z
			 M73.633,60.47h0.17c0.174,0,0.266,0.047,0.266,0.328c0,0.125-0.02,0.215-0.063,0.268c-0.016,0.021-0.059,0.066-0.203,0.066h-0.17
			V60.47z M74.135,60.425c0.068,0.08,0.102,0.205,0.102,0.373c0,0.254-0.08,0.41-0.24,0.471c0.047,0.02,0.086,0.045,0.121,0.078
			c0.082,0.082,0.123,0.193,0.123,0.332v0.623h0.104v-0.623c0-0.174-0.059-0.311-0.162-0.41c0.012-0.008,0.021-0.02,0.029-0.029
			c0.084-0.1,0.127-0.248,0.127-0.441c0-0.197-0.043-0.342-0.127-0.439c-0.092-0.105-0.229-0.16-0.408-0.16h-0.439v0.104h0.439
			C73.953,60.302,74.063,60.341,74.135,60.425z M74.174,62.302v-0.623c0-0.242-0.135-0.379-0.371-0.379h-0.27v1.002h0.1v-0.898h0.17
			c0.18,0,0.268,0.09,0.268,0.275v0.623H74.174z M73.465,60.368h-0.102v1.934h0.102V60.368z M26.294,49.276h2.477
			c0.286,0,0.556-0.055,0.809-0.166c0.253-0.109,0.473-0.258,0.661-0.443c0.187-0.188,0.335-0.406,0.446-0.658
			c0.11-0.252,0.165-0.521,0.165-0.807v-2.436c0-0.252-0.038-0.482-0.115-0.691c-0.077-0.208-0.192-0.389-0.347-0.543
			c-0.154-0.153-0.353-0.274-0.594-0.362c0.231-0.109,0.429-0.252,0.594-0.428c0.308-0.34,0.462-0.763,0.462-1.267v-1.646
			c0-0.285-0.055-0.554-0.165-0.807c-0.11-0.252-0.259-0.471-0.446-0.658c-0.188-0.187-0.407-0.334-0.661-0.444
			c-0.253-0.109-0.522-0.164-0.809-0.164h-2.477c-0.154,0-0.231,0.077-0.231,0.23v11.06C26.063,49.198,26.14,49.276,26.294,49.276z
			 M27.994,39.516h0.529c0.109,0,0.203,0.039,0.28,0.115c0.077,0.077,0.116,0.17,0.116,0.279v2.009c0,0.109-0.039,0.203-0.116,0.279
			c-0.077,0.077-0.171,0.115-0.28,0.115h-0.529V39.516z M27.994,44.108h0.529c0.109,0,0.203,0.039,0.28,0.115
			c0.077,0.077,0.116,0.17,0.116,0.279v2.618c0,0.109-0.039,0.203-0.116,0.279s-0.171,0.115-0.28,0.115h-0.529V44.108z
			 M33.558,49.276h1.469c0.154,0,0.231-0.078,0.231-0.23v-11.06c0-0.153-0.077-0.23-0.231-0.23h-1.469
			c-0.154,0-0.231,0.077-0.231,0.23v11.06C33.327,49.198,33.404,49.276,33.558,49.276z M38.428,48.782
			c0.187,0.186,0.407,0.334,0.66,0.443s0.523,0.166,0.809,0.166h0.627c0.286,0,0.556-0.057,0.81-0.166
			c0.253-0.109,0.473-0.258,0.66-0.443c0.187-0.188,0.336-0.406,0.446-0.658s0.165-0.521,0.165-0.807V42.66
			c0-0.153-0.077-0.23-0.231-0.23h-2.162v1.876h0.462v2.93c0,0.109-0.039,0.203-0.115,0.279c-0.078,0.076-0.171,0.115-0.281,0.115
			h-0.132c-0.11,0-0.204-0.039-0.281-0.115s-0.115-0.17-0.115-0.279v-7.439c0-0.11,0.038-0.203,0.115-0.28
			c0.077-0.076,0.171-0.115,0.281-0.115h0.132c0.11,0,0.204,0.039,0.281,0.115c0.077,0.077,0.115,0.17,0.115,0.28v1.119
			c0,0.153,0.071,0.208,0.214,0.164l1.502-0.543c0.143-0.044,0.215-0.143,0.215-0.296v-0.527c0-0.285-0.055-0.554-0.165-0.807
			c-0.11-0.252-0.259-0.471-0.446-0.658c-0.188-0.187-0.407-0.334-0.66-0.444c-0.254-0.109-0.523-0.164-0.81-0.164h-0.627
			c-0.286,0-0.556,0.055-0.809,0.164c-0.253,0.11-0.473,0.258-0.66,0.444c-0.187,0.188-0.336,0.406-0.446,0.658
			c-0.11,0.253-0.165,0.521-0.165,0.807v7.604c0,0.285,0.055,0.555,0.165,0.807C38.092,48.376,38.241,48.595,38.428,48.782z
			 M48.812,49.276h3.583c0.154,0,0.231-0.078,0.231-0.23v-1.465c0-0.154-0.077-0.23-0.231-0.23h-1.882v-3.375h1.635
			c0.154,0,0.231-0.076,0.231-0.23v-1.465c0-0.153-0.077-0.23-0.231-0.23h-1.635v-2.369h1.882c0.154,0,0.231-0.077,0.231-0.23
			v-1.465c0-0.153-0.077-0.23-0.231-0.23h-3.583c-0.154,0-0.231,0.077-0.231,0.23v11.06C48.581,49.198,48.657,49.276,48.812,49.276z
			 M55.415,49.276h1.47c0.154,0,0.231-0.078,0.231-0.23v-5.432l1.75,5.448c0.021,0.055,0.064,0.105,0.123,0.148
			c0.061,0.043,0.125,0.066,0.191,0.066h1.057c0.152,0,0.23-0.078,0.23-0.23v-11.06c0-0.153-0.078-0.23-0.23-0.23h-1.471
			c-0.154,0-0.23,0.077-0.23,0.23v5.267l-1.717-5.283c-0.022-0.055-0.063-0.104-0.124-0.148c-0.061-0.044-0.124-0.065-0.19-0.065
			h-1.09c-0.154,0-0.231,0.077-0.231,0.23v11.06C55.184,49.198,55.261,49.276,55.415,49.276z M63.637,48.782
			c0.186,0.186,0.406,0.334,0.66,0.443c0.252,0.109,0.521,0.166,0.809,0.166h0.627c0.287,0,0.557-0.057,0.809-0.166
			c0.254-0.109,0.475-0.258,0.66-0.443c0.188-0.188,0.336-0.406,0.447-0.658c0.109-0.252,0.164-0.521,0.164-0.807v-7.604
			c0-0.285-0.055-0.554-0.164-0.807c-0.111-0.252-0.26-0.471-0.447-0.658c-0.186-0.187-0.406-0.334-0.66-0.444
			c-0.252-0.109-0.521-0.164-0.809-0.164h-0.627c-0.287,0-0.557,0.055-0.809,0.164c-0.254,0.11-0.475,0.258-0.66,0.444
			c-0.188,0.188-0.336,0.406-0.445,0.658c-0.111,0.253-0.166,0.521-0.166,0.807v7.604c0,0.285,0.055,0.555,0.166,0.807
			C63.301,48.376,63.449,48.595,63.637,48.782z M64.957,39.796c0-0.11,0.039-0.203,0.115-0.28c0.076-0.076,0.17-0.115,0.281-0.115
			h0.131c0.111,0,0.205,0.039,0.281,0.115c0.078,0.077,0.115,0.17,0.115,0.28v7.439c0,0.109-0.037,0.203-0.115,0.279
			c-0.076,0.076-0.17,0.115-0.281,0.115h-0.131c-0.111,0-0.205-0.039-0.281-0.115s-0.115-0.17-0.115-0.279V39.796z M70.818,48.782
			c0.186,0.186,0.406,0.334,0.66,0.443c0.252,0.109,0.521,0.166,0.809,0.166h0.627c0.285,0,0.555-0.057,0.809-0.166
			s0.473-0.258,0.66-0.443c0.188-0.188,0.336-0.406,0.447-0.658c0.109-0.252,0.164-0.521,0.164-0.807v-9.332
			c0-0.153-0.076-0.23-0.23-0.23h-1.471c-0.154,0-0.23,0.077-0.23,0.23v9.25c0,0.109-0.039,0.203-0.115,0.279
			c-0.078,0.076-0.17,0.115-0.281,0.115h-0.131c-0.111,0-0.205-0.039-0.281-0.115c-0.078-0.076-0.115-0.17-0.115-0.279v-9.25
			c0-0.153-0.078-0.23-0.232-0.23h-1.469c-0.154,0-0.23,0.077-0.23,0.23v9.332c0,0.285,0.055,0.555,0.164,0.807
			S70.631,48.595,70.818,48.782z M77.998,48.782c0.188,0.186,0.408,0.334,0.66,0.443c0.254,0.109,0.523,0.166,0.811,0.166h0.627
			c0.285,0,0.555-0.057,0.809-0.166s0.473-0.258,0.66-0.443c0.188-0.188,0.336-0.406,0.445-0.658
			c0.111-0.252,0.166-0.521,0.166-0.807V42.66c0-0.153-0.078-0.23-0.232-0.23h-2.162v1.876h0.463v2.93
			c0,0.109-0.039,0.203-0.115,0.279c-0.078,0.076-0.172,0.115-0.281,0.115h-0.133c-0.109,0-0.203-0.039-0.279-0.115
			c-0.078-0.076-0.117-0.17-0.117-0.279v-7.439c0-0.11,0.039-0.203,0.117-0.28c0.076-0.076,0.17-0.115,0.279-0.115h0.133
			c0.109,0,0.203,0.039,0.281,0.115c0.076,0.077,0.115,0.17,0.115,0.28v1.119c0,0.153,0.072,0.208,0.215,0.164l1.502-0.543
			c0.143-0.044,0.215-0.143,0.215-0.296v-0.527c0-0.285-0.055-0.554-0.166-0.807c-0.109-0.252-0.258-0.471-0.445-0.658
			c-0.188-0.187-0.406-0.334-0.66-0.444c-0.254-0.109-0.523-0.164-0.809-0.164h-0.627c-0.287,0-0.557,0.055-0.811,0.164
			c-0.252,0.11-0.473,0.258-0.66,0.444c-0.186,0.188-0.336,0.406-0.445,0.658c-0.109,0.253-0.164,0.521-0.164,0.807v7.604
			c0,0.285,0.055,0.555,0.164,0.807S77.813,48.595,77.998,48.782z M84.965,49.276h1.471c0.152,0,0.23-0.078,0.23-0.23v-4.708h1.09
			v4.708c0,0.152,0.076,0.23,0.23,0.23h1.469c0.154,0,0.232-0.078,0.232-0.23v-11.06c0-0.153-0.078-0.23-0.232-0.23h-1.469
			c-0.154,0-0.23,0.077-0.23,0.23v4.427h-1.09v-4.427c0-0.153-0.078-0.23-0.23-0.23h-1.471c-0.154,0-0.23,0.077-0.23,0.23v11.06
			C84.734,49.198,84.811,49.276,84.965,49.276z M42.159,21.943h1.233v2.852h0.654v-2.852h1.088l0.203-0.557h-2.976L42.159,21.943z
			 M47.75,22.841h-1.638v-1.45h-0.655v3.571l0.655-0.221v-1.354h1.638v1.354l0.645,0.221v-3.571H47.75V22.841z M52.546,22.461
			l-1.055-1.243l-0.413,0.209l0.018-0.042h-2.182v3.399h2.191l-0.183-0.548H49.57V23.35h1.276v-0.548H49.57v-0.859h1.281
			l0.156-0.354l1.211,1.438v1.762h0.655v-1.762l1.281-1.531l-0.554-0.269L52.546,22.461z M56.788,21.458l-1.512,3.273l0.573,0.274
			l0.568-1.23h1.218l0.558,1.221l0.588-0.265l-1.608-3.437L56.788,21.458z M56.667,23.23l0.356-0.783l0.361,0.783H56.667z
			 M61.146,22.313c0-0.118-0.021-0.233-0.064-0.346c-0.045-0.112-0.113-0.211-0.211-0.298c-0.096-0.086-0.221-0.155-0.377-0.206
			c-0.156-0.052-0.346-0.077-0.57-0.077h-0.998v3.408h0.65v-1.469h0.434l1.104,1.623l0.529-0.332l-1.031-1.464
			C60.969,22.993,61.146,22.713,61.146,22.313z M60.33,22.666c-0.098,0.075-0.248,0.113-0.451,0.113h-0.303v-0.84h0.295
			c0.211,0,0.365,0.038,0.461,0.115c0.096,0.076,0.145,0.176,0.145,0.297C60.477,22.486,60.428,22.59,60.33,22.666z M62.389,24.238
			V23.35h1.275v-0.548h-1.275v-0.859h1.281l0.244-0.557h-2.182v3.399h2.191l-0.182-0.548H62.389z M66.703,23.662l-2.014-2.246
			l-0.52-0.26v3.63h0.654v-2.29l2.027,2.261l0.502,0.255v-3.625h-0.65V23.662z M67.859,21.872c-0.004,0.055-0.012,0.103-0.021,0.146
			c-0.012,0.043-0.035,0.094-0.07,0.151v0.59c0.24-0.176,0.418-0.353,0.531-0.53c0.115-0.178,0.172-0.335,0.172-0.473v-0.644
			l-0.742,0.178L67.859,21.872z M68.504,21.943h1.232v2.852h0.654v-2.852h1.09l0.201-0.557h-2.977L68.504,21.943z M23.347,25.222
			c-0.051-0.03-0.091-0.021-0.122,0.03l-0.292,0.48c-0.031,0.051-0.021,0.091,0.03,0.122l3.643,2.203
			c0.051,0.03,0.091,0.021,0.122-0.03l0.292-0.48c0.031-0.051,0.021-0.091-0.029-0.122L23.347,25.222z M26.37,24.824l0.357-0.515
			c0.033-0.048,0.026-0.089-0.022-0.123l-0.464-0.32c-0.048-0.033-0.09-0.025-0.123,0.022l-0.357,0.515l-0.751-0.519l0.412-0.592
			c0.033-0.049,0.026-0.09-0.023-0.124l-0.463-0.32c-0.049-0.033-0.09-0.026-0.124,0.022l-0.784,1.128
			c-0.034,0.049-0.026,0.09,0.022,0.123l3.503,2.419c0.048,0.034,0.089,0.026,0.123-0.022l0.321-0.462
			c0.034-0.049,0.026-0.09-0.022-0.123L26.37,24.824z M29.432,21.458l-1.496-2.271c-0.01-0.021-0.027-0.031-0.049-0.034
			c-0.022-0.004-0.042,0.005-0.059,0.023l-0.442,0.505c-0.039,0.044-0.039,0.089,0,0.134l1.036,1.239l-0.017,0.02l-1.37-0.858
			c-0.05-0.033-0.095-0.027-0.133,0.018l-0.442,0.504c-0.017,0.02-0.022,0.04-0.016,0.062c0.006,0.022,0.02,0.037,0.041,0.045
			l2.456,1.176l1.232,1.073c0.044,0.039,0.086,0.036,0.125-0.009l0.376-0.428c0.039-0.045,0.036-0.086-0.008-0.125L29.432,21.458z
			 M32.51,19.694l-2.047-2.089c-0.077-0.078-0.165-0.138-0.263-0.178c-0.098-0.039-0.198-0.061-0.3-0.062
			c-0.102-0.001-0.202,0.018-0.301,0.055c-0.099,0.038-0.188,0.095-0.267,0.171l-0.172,0.168c-0.079,0.077-0.138,0.164-0.178,0.262
			c-0.04,0.099-0.061,0.198-0.062,0.299c-0.001,0.102,0.017,0.201,0.055,0.301c0.038,0.099,0.095,0.188,0.172,0.266l2.047,2.089
			c0.077,0.078,0.165,0.138,0.263,0.178c0.098,0.04,0.198,0.061,0.3,0.062c0.101,0.001,0.201-0.018,0.301-0.055
			c0.099-0.038,0.188-0.095,0.267-0.172l0.172-0.168c0.079-0.076,0.138-0.163,0.178-0.261c0.04-0.099,0.061-0.198,0.062-0.299
			c0.001-0.102-0.018-0.202-0.055-0.301S32.587,19.773,32.51,19.694z M31.955,20.403l-0.036,0.035
			c-0.03,0.029-0.066,0.044-0.108,0.044c-0.042-0.001-0.077-0.017-0.107-0.046L29.7,18.392c-0.03-0.03-0.044-0.066-0.043-0.108
			c0-0.041,0.016-0.077,0.046-0.106l0.037-0.035c0.03-0.029,0.066-0.044,0.108-0.044c0.042,0.001,0.078,0.017,0.107,0.046
			l2.003,2.044c0.029,0.03,0.044,0.066,0.043,0.108C32,20.337,31.985,20.374,31.955,20.403z M34.649,17.866l-2.303-2.753
			c-0.038-0.045-0.08-0.049-0.125-0.012l-0.434,0.36c-0.045,0.038-0.049,0.08-0.011,0.125l2.283,2.729
			c0.027,0.032,0.039,0.069,0.035,0.111c-0.004,0.041-0.022,0.075-0.054,0.103L34,18.561c-0.033,0.027-0.07,0.039-0.111,0.035
			s-0.076-0.022-0.103-0.055l-2.282-2.729c-0.038-0.045-0.08-0.049-0.125-0.011l-0.433,0.36c-0.045,0.037-0.049,0.079-0.011,0.124
			l2.303,2.753c0.07,0.084,0.153,0.15,0.248,0.197c0.095,0.048,0.193,0.076,0.294,0.085c0.101,0.01,0.203-0.001,0.305-0.03
			c0.101-0.03,0.195-0.08,0.279-0.15l0.185-0.153c0.085-0.07,0.15-0.153,0.198-0.247c0.048-0.095,0.076-0.192,0.085-0.293
			c0.009-0.102-0.001-0.202-0.031-0.304S34.719,17.95,34.649,17.866z M35.96,15.5c0.068-0.131,0.099-0.27,0.092-0.417
			c-0.006-0.148-0.055-0.285-0.145-0.413l-0.597-0.842c-0.063-0.089-0.14-0.161-0.231-0.216c-0.091-0.056-0.186-0.091-0.286-0.108
			s-0.202-0.016-0.306,0.006s-0.201,0.064-0.29,0.127l-0.777,0.548c-0.048,0.034-0.055,0.075-0.021,0.123l2.458,3.47
			c0.034,0.049,0.076,0.056,0.124,0.021l0.461-0.324c0.038-0.027,0.05-0.062,0.036-0.104l-0.911-1.285l1.274,0.999
			c0.022,0.016,0.047,0.023,0.076,0.024c0.029,0,0.054-0.007,0.075-0.021l0.471-0.332c0.045-0.031,0.045-0.067,0-0.109L35.96,15.5z
			 M35.247,15.282l-0.166,0.117l-0.735-1.038l0.166-0.117c0.035-0.024,0.072-0.032,0.114-0.025s0.074,0.027,0.099,0.063l0.559,0.79
			c0.024,0.034,0.034,0.072,0.026,0.113S35.281,15.257,35.247,15.282z M39.281,11.5c-0.052-0.097-0.12-0.178-0.204-0.242
			c-0.083-0.065-0.174-0.112-0.271-0.141c-0.098-0.029-0.199-0.039-0.305-0.03c-0.105,0.01-0.207,0.04-0.304,0.093l-0.835,0.451
			c-0.053,0.029-0.064,0.068-0.036,0.121l2.032,3.733c0.028,0.052,0.068,0.063,0.12,0.036l0.836-0.453
			c0.097-0.052,0.178-0.119,0.243-0.203c0.066-0.083,0.113-0.173,0.142-0.271c0.029-0.097,0.039-0.198,0.03-0.304
			c-0.009-0.104-0.04-0.206-0.093-0.302L39.281,11.5z M39.907,14.519l-0.178,0.097l-1.469-2.7l0.178-0.097
			c0.037-0.021,0.076-0.024,0.116-0.013c0.041,0.012,0.07,0.036,0.09,0.073l1.325,2.434c0.021,0.037,0.024,0.076,0.012,0.116
			S39.944,14.5,39.907,14.519z M42.546,13.903l-0.64-1.439l1.053,1.229c0.018,0.02,0.041,0.033,0.069,0.039
			c0.028,0.006,0.054,0.004,0.077-0.007l0.528-0.232c0.05-0.022,0.058-0.059,0.022-0.107l-1.249-1.418
			c0.092-0.115,0.15-0.245,0.173-0.392c0.022-0.146,0.002-0.29-0.061-0.433L42.1,10.2c-0.044-0.1-0.106-0.186-0.184-0.258
			c-0.078-0.071-0.165-0.125-0.259-0.161c-0.095-0.037-0.195-0.055-0.301-0.054s-0.209,0.023-0.31,0.067l-0.87,0.385
			c-0.054,0.023-0.069,0.063-0.045,0.117l1.728,3.883c0.024,0.054,0.063,0.069,0.117,0.045l0.516-0.228
			C42.534,13.977,42.552,13.946,42.546,13.903z M41.75,11.613l-0.186,0.082l-0.517-1.161l0.186-0.082
			c0.039-0.018,0.077-0.019,0.117-0.003c0.039,0.015,0.067,0.042,0.084,0.08l0.394,0.884c0.017,0.039,0.018,0.077,0.003,0.116
			S41.789,11.596,41.75,11.613z M44.496,13.062c0.02,0.056,0.058,0.073,0.114,0.054l1.296-0.461c0.056-0.02,0.074-0.057,0.054-0.112
			l-0.189-0.53c-0.02-0.056-0.058-0.073-0.114-0.054L44.976,12.2l-0.436-1.221l0.591-0.21c0.056-0.02,0.074-0.057,0.054-0.112
			l-0.189-0.53c-0.02-0.056-0.058-0.073-0.113-0.054l-0.591,0.21l-0.306-0.857l0.681-0.242c0.056-0.02,0.073-0.058,0.054-0.113
			L44.53,8.541c-0.02-0.056-0.058-0.074-0.113-0.054l-1.296,0.46c-0.056,0.02-0.074,0.058-0.054,0.113L44.496,13.062z M47.129,7.777
			c-0.024-0.055-0.064-0.074-0.122-0.059L46.2,7.938c-0.057,0.017-0.082,0.054-0.075,0.112l0.667,4.223
			c0.008,0.06,0.04,0.081,0.097,0.065l0.557-0.152c0.053-0.014,0.076-0.051,0.068-0.11l-0.132-0.672l0.379-0.104l0.23,0.646
			c0.024,0.055,0.062,0.075,0.115,0.061l0.557-0.152c0.057-0.016,0.074-0.051,0.05-0.105L47.129,7.777z M47.244,10.708l-0.337-1.684
			l0.049-0.014l0.57,1.621L47.244,10.708z M49.697,11.61l0.599-0.107c0.058-0.011,0.083-0.045,0.072-0.103l-0.356-1.966l0.703,1.531
			c0.012,0.019,0.024,0.027,0.037,0.025c0.012-0.003,0.021-0.015,0.025-0.037l0.122-1.679l0.356,1.966
			c0.01,0.058,0.044,0.082,0.103,0.071l0.599-0.107c0.058-0.011,0.082-0.045,0.072-0.104L51.271,6.92
			c-0.01-0.058-0.045-0.081-0.103-0.071l-0.531,0.096c-0.025,0.004-0.045,0.018-0.06,0.04c-0.016,0.021-0.025,0.044-0.03,0.065
			l-0.09,2.316l-0.896-2.139c-0.012-0.02-0.029-0.036-0.051-0.052c-0.022-0.016-0.045-0.021-0.07-0.017l-0.531,0.096
			c-0.058,0.011-0.082,0.045-0.071,0.103l0.756,4.181C49.604,11.597,49.638,11.621,49.697,11.61z M54.598,8.877
			c-0.024-0.059-0.073-0.114-0.146-0.167L53.57,8.167c-0.037-0.031-0.063-0.063-0.079-0.095s-0.028-0.071-0.036-0.117l-0.052-0.573
			c-0.004-0.042,0.008-0.079,0.035-0.111c0.027-0.031,0.062-0.05,0.104-0.054l0.051-0.004c0.042-0.004,0.079,0.008,0.111,0.034
			c0.032,0.026,0.05,0.061,0.054,0.104l0.037,0.408c0.005,0.06,0.035,0.078,0.088,0.057l0.561-0.203
			c0.053-0.021,0.077-0.062,0.072-0.121l-0.021-0.239c-0.01-0.108-0.041-0.21-0.091-0.303s-0.115-0.171-0.193-0.236
			c-0.078-0.064-0.167-0.114-0.268-0.147s-0.206-0.045-0.315-0.035l-0.24,0.021c-0.109,0.01-0.21,0.04-0.303,0.091
			c-0.093,0.051-0.172,0.115-0.237,0.192c-0.065,0.078-0.115,0.167-0.148,0.268c-0.034,0.101-0.045,0.205-0.036,0.314l0.068,0.755
			c0.009,0.097,0.029,0.173,0.062,0.229c0.032,0.057,0.083,0.111,0.151,0.164l0.871,0.551c0.041,0.029,0.07,0.065,0.086,0.105
			c0.017,0.042,0.029,0.089,0.039,0.144l0.075,0.831c0.003,0.042-0.008,0.079-0.035,0.11c-0.026,0.032-0.061,0.05-0.104,0.054
			l-0.05,0.005c-0.042,0.004-0.079-0.008-0.111-0.034c-0.033-0.027-0.05-0.062-0.054-0.104l-0.07-0.774
			c-0.005-0.059-0.035-0.077-0.088-0.056l-0.561,0.203c-0.053,0.021-0.077,0.062-0.072,0.12l0.054,0.604
			c0.01,0.109,0.04,0.21,0.091,0.303c0.051,0.093,0.115,0.172,0.193,0.236c0.078,0.065,0.167,0.114,0.268,0.147
			c0.101,0.034,0.206,0.046,0.315,0.035l0.24-0.021c0.11-0.011,0.21-0.041,0.304-0.091c0.093-0.051,0.172-0.115,0.237-0.193
			c0.065-0.077,0.115-0.166,0.148-0.267c0.034-0.101,0.045-0.205,0.035-0.314l-0.097-1.083C54.643,9.003,54.623,8.937,54.598,8.877z
			 M59.016,7.262C59.02,7.153,59,7.049,58.961,6.951c-0.041-0.098-0.096-0.184-0.164-0.257c-0.07-0.073-0.154-0.133-0.25-0.177
			c-0.096-0.045-0.199-0.069-0.309-0.072L57.288,6.42c-0.06-0.002-0.09,0.027-0.091,0.086l-0.112,4.247
			c-0.001,0.059,0.027,0.089,0.086,0.091l0.951,0.024c0.109,0.003,0.215-0.016,0.313-0.055c0.098-0.04,0.184-0.095,0.258-0.164
			c0.074-0.07,0.133-0.152,0.178-0.248s0.068-0.199,0.072-0.309L59.016,7.262z M58.201,10.042c-0.002,0.042-0.018,0.077-0.049,0.106
			c-0.029,0.028-0.066,0.042-0.109,0.041l-0.202-0.005l0.081-3.071l0.203,0.005c0.043,0.001,0.078,0.018,0.107,0.047
			c0.027,0.031,0.041,0.067,0.041,0.109L58.201,10.042z M62.055,7.493c0.012-0.109,0.002-0.214-0.029-0.315
			c-0.033-0.101-0.08-0.19-0.145-0.27c-0.064-0.078-0.143-0.144-0.234-0.196c-0.092-0.052-0.193-0.084-0.303-0.095l-0.238-0.025
			c-0.109-0.012-0.215-0.002-0.316,0.03c-0.102,0.031-0.191,0.079-0.27,0.143c-0.08,0.063-0.145,0.142-0.197,0.233
			s-0.084,0.192-0.096,0.302l-0.309,2.904c-0.012,0.108-0.002,0.214,0.029,0.314s0.08,0.19,0.145,0.27
			c0.063,0.079,0.141,0.145,0.234,0.196c0.092,0.052,0.191,0.084,0.301,0.096l0.24,0.025c0.109,0.012,0.215,0.001,0.316-0.03
			c0.1-0.032,0.191-0.08,0.27-0.144c0.08-0.063,0.145-0.142,0.197-0.233s0.084-0.192,0.096-0.301L62.055,7.493z M61.012,10.288
			c-0.004,0.042-0.023,0.075-0.055,0.102c-0.033,0.026-0.07,0.037-0.113,0.033l-0.049-0.006c-0.043-0.004-0.078-0.022-0.104-0.055
			c-0.027-0.032-0.037-0.07-0.033-0.112l0.303-2.841c0.004-0.042,0.023-0.076,0.055-0.103c0.033-0.026,0.07-0.037,0.113-0.032
			l0.049,0.005c0.043,0.005,0.076,0.023,0.104,0.056c0.025,0.032,0.037,0.069,0.033,0.111L61.012,10.288z M64.65,11.576l0.797-4.173
			c0.012-0.058-0.014-0.093-0.07-0.104l-0.555-0.105c-0.059-0.011-0.094,0.013-0.104,0.07l-0.381,1.987l-0.266-2.116
			c-0.006-0.022-0.018-0.044-0.037-0.064c-0.02-0.021-0.041-0.034-0.066-0.039l-0.412-0.078c-0.057-0.011-0.092,0.013-0.104,0.07
			l-0.797,4.174c-0.012,0.058,0.012,0.092,0.07,0.103l0.555,0.105c0.059,0.012,0.094-0.012,0.104-0.07l0.393-2.049l0.268,2.181
			c0.004,0.022,0.016,0.044,0.035,0.064c0.02,0.021,0.043,0.034,0.066,0.039l0.4,0.075C64.604,11.658,64.639,11.634,64.65,11.576z
			 M66.602,8.678c-0.072,0.019-0.127,0.023-0.162,0.014c-0.01-0.002-0.021,0.001-0.037,0.011c-0.006,0.007-0.01,0.013-0.01,0.017
			l-0.023,0.092c-0.006,0.021-0.002,0.037,0.014,0.049c0.006,0.007,0.014,0.011,0.021,0.013c0.021,0.001,0.043,0.002,0.066,0.004
			c0.02,0.001,0.033,0.002,0.037,0.003c0.031-0.001,0.061-0.005,0.092-0.013S66.66,8.85,66.688,8.84
			c0.111-0.037,0.203-0.094,0.277-0.171c0.074-0.076,0.133-0.168,0.178-0.274c0.02-0.038,0.033-0.078,0.041-0.12
			c0.008-0.041,0.014-0.083,0.016-0.126c0.014-0.123-0.008-0.234-0.064-0.336s-0.146-0.168-0.27-0.199
			c-0.113-0.03-0.219-0.015-0.313,0.044c-0.082,0.053-0.135,0.124-0.158,0.214c-0.031,0.122-0.02,0.226,0.037,0.31
			c0.029,0.042,0.063,0.078,0.102,0.107c0.037,0.029,0.092,0.053,0.16,0.07c0.014,0.004,0.031,0.005,0.055,0.004
			c0.025,0,0.039,0.005,0.047,0.016c0.01,0.011,0.012,0.028,0.008,0.051c-0.002,0.023-0.008,0.043-0.018,0.058
			C66.736,8.596,66.674,8.66,66.602,8.678z M68.064,12.518l1.088-3.43l0.428,0.136c0.057,0.018,0.094-0.002,0.111-0.058l0.17-0.537
			c0.02-0.056,0-0.093-0.057-0.11l-1.561-0.491c-0.057-0.019-0.094,0.001-0.111,0.058l-0.17,0.536
			c-0.018,0.057,0.002,0.093,0.059,0.111l0.422,0.133l-1.086,3.43c-0.008,0.024-0.006,0.047,0.008,0.069
			c0.012,0.021,0.029,0.035,0.049,0.042l0.539,0.169C68.01,12.594,68.047,12.575,68.064,12.518z M72.482,11.261
			c-0.018-0.044-0.023-0.085-0.021-0.121c0.002-0.035,0.01-0.075,0.025-0.119l0.234-0.526c0.018-0.038,0.045-0.065,0.084-0.08
			s0.078-0.014,0.117,0.003l0.045,0.021c0.039,0.018,0.066,0.046,0.082,0.084c0.014,0.039,0.014,0.078-0.004,0.116l-0.168,0.376
			c-0.023,0.054-0.006,0.084,0.051,0.091l0.588,0.095c0.059,0.007,0.098-0.017,0.123-0.07l0.098-0.22
			c0.045-0.1,0.066-0.203,0.068-0.309c0-0.105-0.018-0.206-0.055-0.301c-0.035-0.094-0.09-0.181-0.162-0.258
			c-0.072-0.078-0.158-0.14-0.258-0.184l-0.221-0.098c-0.1-0.045-0.203-0.067-0.309-0.068c-0.107,0-0.207,0.018-0.303,0.054
			c-0.094,0.036-0.182,0.09-0.258,0.162c-0.078,0.071-0.141,0.157-0.186,0.257l-0.309,0.693c-0.039,0.089-0.059,0.166-0.057,0.23
			c0,0.065,0.018,0.138,0.053,0.217l0.492,0.903c0.021,0.046,0.029,0.091,0.023,0.135s-0.018,0.091-0.037,0.144l-0.34,0.762
			c-0.016,0.039-0.045,0.065-0.084,0.081c-0.039,0.015-0.078,0.014-0.115-0.004l-0.047-0.021c-0.039-0.017-0.066-0.045-0.08-0.084
			c-0.016-0.038-0.016-0.077,0.002-0.116l0.316-0.71c0.025-0.055,0.008-0.085-0.049-0.092l-0.59-0.095
			c-0.057-0.007-0.098,0.017-0.121,0.071l-0.246,0.555c-0.045,0.1-0.068,0.203-0.068,0.309c-0.002,0.105,0.016,0.206,0.053,0.3
			c0.037,0.095,0.09,0.181,0.162,0.259s0.158,0.139,0.258,0.184l0.221,0.098c0.102,0.044,0.203,0.066,0.311,0.067
			c0.105,0.001,0.205-0.017,0.301-0.053c0.094-0.037,0.182-0.091,0.26-0.162s0.139-0.157,0.184-0.258l0.443-0.993
			c0.023-0.073,0.037-0.141,0.045-0.205c0.008-0.063-0.008-0.136-0.045-0.217L72.482,11.261z M75.365,14.025l-0.473-0.339
			c-0.039-0.041-0.074-0.036-0.102,0.017l-0.422,0.779c-0.02,0.037-0.049,0.062-0.09,0.073c-0.039,0.012-0.078,0.008-0.115-0.012
			l-0.045-0.024c-0.037-0.02-0.063-0.05-0.074-0.09s-0.008-0.078,0.012-0.115l1.359-2.516c0.02-0.037,0.051-0.063,0.09-0.074
			c0.041-0.012,0.08-0.008,0.117,0.012l0.043,0.024c0.039,0.02,0.063,0.05,0.074,0.09c0.014,0.04,0.008,0.079-0.012,0.116
			l-0.291,0.539c-0.027,0.053-0.014,0.084,0.043,0.095l0.549,0.195c0.057,0.011,0.1-0.01,0.127-0.062l0.24-0.445
			c0.053-0.097,0.084-0.197,0.092-0.303c0.01-0.105,0-0.206-0.029-0.304c-0.029-0.097-0.078-0.187-0.143-0.27
			c-0.066-0.083-0.146-0.151-0.244-0.203l-0.213-0.113c-0.096-0.053-0.197-0.083-0.303-0.092s-0.207,0.001-0.305,0.03
			s-0.188,0.077-0.271,0.142c-0.082,0.065-0.15,0.146-0.203,0.243l-1.389,2.571c-0.051,0.097-0.082,0.197-0.092,0.303
			c-0.008,0.105,0.002,0.207,0.031,0.304s0.076,0.188,0.143,0.271c0.064,0.083,0.146,0.15,0.242,0.202l0.213,0.114
			c0.098,0.052,0.197,0.082,0.303,0.091c0.107,0.009,0.209-0.001,0.305-0.03c0.098-0.029,0.188-0.076,0.271-0.142
			s0.15-0.146,0.203-0.243l0.377-0.695C75.412,14.113,75.406,14.066,75.365,14.025z M78.932,12.965l-0.703-0.45
			c-0.051-0.032-0.096-0.025-0.135,0.02l-2.703,3.317c-0.039,0.045-0.033,0.084,0.018,0.116l0.484,0.311
			c0.047,0.029,0.09,0.021,0.129-0.023l0.412-0.547l0.33,0.212l-0.326,0.602c-0.025,0.055-0.016,0.096,0.031,0.126l0.486,0.311
			c0.049,0.032,0.086,0.021,0.111-0.033l1.902-3.83C78.994,13.041,78.982,12.998,78.932,12.965z M77.105,15.297l-0.246-0.157
			l1.031-1.377l0.043,0.028L77.105,15.297z M80.432,16.812c0.141-0.05,0.258-0.138,0.352-0.262l0.625-0.82
			c0.066-0.087,0.113-0.182,0.139-0.285c0.025-0.102,0.031-0.203,0.018-0.304s-0.047-0.197-0.1-0.289
			c-0.051-0.093-0.121-0.172-0.209-0.238L80.5,14.041c-0.047-0.036-0.09-0.03-0.125,0.017l-2.58,3.382
			c-0.035,0.047-0.029,0.088,0.018,0.124l0.449,0.34c0.037,0.028,0.074,0.029,0.109,0.004l0.955-1.253l-0.57,1.512
			c-0.01,0.025-0.01,0.052-0.002,0.079c0.01,0.027,0.023,0.049,0.043,0.064l0.459,0.348c0.045,0.033,0.078,0.022,0.105-0.032
			l0.645-1.774C80.15,16.875,80.293,16.863,80.432,16.812z M80.111,16.136c-0.041,0.006-0.078-0.004-0.113-0.029l-0.16-0.123
			l0.771-1.012l0.16,0.123c0.035,0.025,0.055,0.059,0.061,0.101c0.004,0.041-0.006,0.078-0.031,0.112l-0.586,0.77
			C80.188,16.111,80.152,16.13,80.111,16.136z M83.545,17.49c0.045,0.04,0.088,0.037,0.127-0.007l0.375-0.421
			c0.039-0.044,0.037-0.085-0.008-0.125l-1.027-0.911c-0.045-0.039-0.086-0.037-0.127,0.007l-2.832,3.174
			c-0.039,0.045-0.037,0.086,0.008,0.125l1.027,0.912c0.045,0.039,0.086,0.037,0.127-0.008l0.375-0.42
			c0.039-0.044,0.037-0.086-0.008-0.125l-0.541-0.479l0.865-0.969l0.469,0.416c0.045,0.039,0.086,0.037,0.125-0.007l0.375-0.421
			c0.039-0.044,0.037-0.086-0.008-0.125l-0.469-0.416l0.607-0.68L83.545,17.49z M87.379,20.529c0.021-0.008,0.035-0.022,0.041-0.045
			s0-0.042-0.018-0.062l-0.447-0.499c-0.039-0.044-0.084-0.05-0.135-0.017l-1.359,0.873l-0.018-0.019l1.023-1.251
			c0.037-0.045,0.037-0.09-0.002-0.134l-0.447-0.5C86,18.858,85.98,18.85,85.957,18.853c-0.021,0.004-0.039,0.016-0.049,0.035
			l-1.471,2.287l-1.221,1.087c-0.043,0.039-0.045,0.081-0.006,0.125l0.379,0.424c0.041,0.044,0.082,0.046,0.127,0.007l1.219-1.087
			L87.379,20.529z M88.854,22.985c0.051-0.093,0.084-0.188,0.098-0.289s0.008-0.202-0.018-0.305s-0.072-0.197-0.139-0.284
			l-0.145-0.191c-0.066-0.088-0.146-0.156-0.24-0.208c-0.092-0.052-0.188-0.084-0.289-0.098s-0.203-0.009-0.305,0.017
			c-0.104,0.025-0.199,0.071-0.287,0.138l-2.33,1.77c-0.088,0.066-0.158,0.146-0.209,0.238c-0.053,0.092-0.084,0.188-0.098,0.289
			c-0.014,0.1-0.008,0.201,0.018,0.305c0.025,0.103,0.07,0.197,0.137,0.284l0.146,0.191c0.066,0.087,0.146,0.156,0.238,0.208
			c0.094,0.052,0.189,0.084,0.291,0.098c0.1,0.014,0.201,0.008,0.305-0.018s0.199-0.071,0.285-0.138l2.332-1.769
			C88.732,23.157,88.801,23.077,88.854,22.985z M88.17,22.654l-2.281,1.73c-0.033,0.025-0.07,0.036-0.113,0.03
			c-0.041-0.006-0.074-0.025-0.1-0.059l-0.031-0.04c-0.025-0.034-0.035-0.071-0.029-0.112c0.006-0.042,0.025-0.075,0.059-0.101
			l2.281-1.731c0.033-0.025,0.07-0.035,0.111-0.029c0.041,0.005,0.076,0.024,0.102,0.059l0.029,0.04
			c0.027,0.033,0.037,0.071,0.031,0.112S88.203,22.628,88.17,22.654z M90.922,25.27l-0.307-0.473
			c-0.031-0.05-0.072-0.059-0.123-0.026l-2.996,1.924c-0.035,0.022-0.074,0.029-0.113,0.021c-0.041-0.009-0.074-0.031-0.096-0.066
			l-0.029-0.042c-0.021-0.036-0.029-0.074-0.02-0.115c0.008-0.04,0.031-0.072,0.066-0.095l2.996-1.924
			c0.049-0.032,0.059-0.073,0.025-0.122l-0.305-0.474c-0.031-0.05-0.074-0.059-0.123-0.026l-3.023,1.941
			c-0.092,0.059-0.168,0.133-0.227,0.221s-0.098,0.182-0.119,0.28s-0.025,0.2-0.008,0.305s0.057,0.203,0.115,0.295l0.131,0.202
			c0.059,0.092,0.133,0.167,0.221,0.226c0.088,0.06,0.184,0.099,0.281,0.12c0.1,0.021,0.201,0.024,0.307,0.007
			c0.105-0.017,0.203-0.055,0.295-0.114l3.023-1.941C90.943,25.361,90.953,25.32,90.922,25.27z"/>
	</g>
</g>
</svg>
