<?xml version="1.0" encoding="utf-8"?>
<!-- Generator: Adobe Illustrator 16.0.0, SVG Export Plug-In . SVG Version: 6.00 Build 0)  -->
<!DOCTYPE svg PUBLIC "-//W3C//DTD SVG 1.1//EN" "http://www.w3.org/Graphics/SVG/1.1/DTD/svg11.dtd">
<svg version="1.1" id="Layer_1" xmlns="http://www.w3.org/2000/svg" xmlns:xlink="http://www.w3.org/1999/xlink" x="0px" y="0px"
	 width="111.001px" height="89.675px" viewBox="0 0 111.001 89.675" enable-background="new 0 0 111.001 89.675"
	 xml:space="preserve">
<g>
	<g>
		<path fill="#36434d" d="M57.342,70.723c0.023-0.071,0.057-0.134,0.1-0.189c0.016-0.013,0.033-0.028,0.051-0.042
			c0.033-0.026,0.063-0.054,0.096-0.079c0.215-0.1,0.502-0.116,0.85,0.142c0.092,0.068,0.188,0.154,0.285,0.264l0.012,0.012
			l0.006-0.01l0.131-0.23l0.266-0.455l0.264-0.457h0.002l0.096-0.165c-0.646-0.133-0.871-0.421-0.928-0.693
			c-0.008-0.035-0.014-0.068-0.016-0.102c0.012-0.062,0.025-0.122,0.031-0.184c0.027-0.06,0.063-0.117,0.113-0.17
			c0.096-0.11,0.236-0.202,0.449-0.243c0.156-0.028,0.35-0.035,0.588,0l-0.068-0.381l-0.035-0.198l-0.021-0.124l-0.113-0.633
			l-0.029-0.163c-0.084,0.045-0.162,0.083-0.236,0.11c-0.506,0.201-0.809,0.075-0.998-0.114c-0.012-0.018-0.02-0.039-0.033-0.057
			c-0.02-0.036-0.041-0.072-0.063-0.109c-0.074-0.285-0.004-0.669,0.615-1.047l-1.176-0.979c-0.273,0.685-0.646,0.815-0.953,0.786
			c-0.057-0.022-0.113-0.042-0.174-0.063c-0.246-0.172-0.439-0.51-0.209-1.196h-1.537c0.236,0.696,0.033,1.034-0.213,1.205
			c-0.063,0.023-0.125,0.044-0.186,0.068c-0.301,0.021-0.666-0.116-0.932-0.783l-1.174,0.981c0.631,0.384,0.695,0.771,0.615,1.062
			c-0.014,0.02-0.025,0.043-0.037,0.063c-0.021,0.033-0.039,0.068-0.061,0.104c-0.191,0.187-0.512,0.311-1.043,0.08
			c-0.057-0.024-0.115-0.055-0.176-0.088l-0.023,0.126l-0.111,0.633l-0.023,0.141l-0.031,0.181l-0.074,0.421
			c0.186-0.026,0.342-0.029,0.475-0.015c0.262,0.025,0.432,0.12,0.545,0.236c0.061,0.062,0.105,0.131,0.137,0.201
			c0.008,0.063,0.021,0.129,0.035,0.189c-0.002,0.02-0.006,0.042-0.01,0.063c-0.051,0.279-0.268,0.577-0.928,0.713l0.086,0.147
			l0.26,0.445l0.268,0.458l0.133,0.228l0.021,0.038c0.014-0.015,0.027-0.03,0.039-0.043c0.104-0.111,0.203-0.198,0.297-0.264
			c0.336-0.232,0.613-0.206,0.824-0.109c0.02,0.018,0.039,0.034,0.061,0.053c0.029,0.024,0.059,0.049,0.09,0.069
			c0.033,0.049,0.061,0.101,0.084,0.159c0.088,0.243,0.061,0.584-0.303,1.037l1.443,0.519c0.018-0.739,0.328-0.985,0.623-1.063
			c0.061,0.006,0.123,0.004,0.186,0c0.291,0.08,0.588,0.333,0.609,1.054l1.441-0.524C57.293,71.294,57.258,70.964,57.342,70.723z
			 M57.289,69.893c-0.029,0.029-0.059,0.058-0.092,0.086c-0.002,0.004-0.006,0.007-0.01,0.009c-0.027,0.024-0.053,0.047-0.082,0.069
			c-0.027,0.024-0.061,0.049-0.09,0.071c-1.125,0.839-2.727,0.614-3.57-0.505c-0.035-0.047-0.068-0.093-0.1-0.143
			c-0.082-0.126-0.154-0.259-0.211-0.396c-0.016-0.032-0.025-0.063-0.037-0.096c-0.014-0.032-0.025-0.063-0.033-0.096
			c-0.012-0.029-0.02-0.057-0.029-0.087c-0.004-0.016-0.008-0.032-0.014-0.047c-0.002-0.01-0.004-0.018-0.008-0.026
			c-0.006-0.029-0.012-0.059-0.018-0.09c-0.004-0.019-0.008-0.037-0.012-0.057c-0.014-0.061-0.023-0.124-0.031-0.187
			c-0.002-0.035-0.006-0.07-0.008-0.104c-0.008-0.103-0.01-0.204-0.004-0.309c0.002-0.04,0.006-0.081,0.01-0.123
			c0.002-0.051,0.01-0.101,0.018-0.149c0.006-0.033,0.012-0.065,0.02-0.097c0.012-0.061,0.025-0.118,0.041-0.177
			c0.01-0.03,0.02-0.062,0.027-0.093c0.014-0.051,0.033-0.1,0.053-0.151c0.014-0.036,0.029-0.071,0.045-0.105
			c0.043-0.103,0.096-0.203,0.156-0.301c0.02-0.033,0.041-0.067,0.064-0.098c0.021-0.034,0.045-0.065,0.068-0.099
			c0.033-0.045,0.066-0.087,0.104-0.129c0.023-0.027,0.047-0.056,0.074-0.082c0.02-0.022,0.041-0.044,0.063-0.064
			c0.016-0.018,0.033-0.034,0.049-0.05c0.072-0.069,0.148-0.133,0.23-0.192c1.129-0.839,2.721-0.61,3.566,0.509
			c0.035,0.047,0.07,0.095,0.1,0.144c0.027,0.039,0.051,0.078,0.076,0.12c0.018,0.035,0.037,0.069,0.057,0.104
			c0.016,0.033,0.031,0.065,0.047,0.098c0.021,0.047,0.043,0.097,0.061,0.147c0.021,0.05,0.039,0.099,0.055,0.147
			c0.008,0.031,0.018,0.064,0.027,0.095c0.008,0.03,0.016,0.063,0.021,0.092c0.014,0.059,0.025,0.116,0.035,0.175
			c0.002,0.005,0.002,0.01,0.002,0.015c0.01,0.061,0.016,0.123,0.021,0.184c0.008,0.103,0.01,0.205,0.004,0.308
			c0,0.022,0,0.043-0.004,0.065c0.002,0.004,0,0.009,0,0.015c-0.01,0.156-0.037,0.311-0.078,0.462
			c-0.008,0.032-0.018,0.063-0.029,0.095c-0.014,0.052-0.031,0.101-0.053,0.151c-0.002,0.014-0.006,0.025-0.012,0.034
			c-0.02,0.051-0.041,0.099-0.064,0.148c-0.025,0.055-0.055,0.109-0.084,0.161c-0.023,0.044-0.049,0.085-0.076,0.126
			c-0.002,0.002-0.004,0.005-0.004,0.008h-0.002c-0.023,0.039-0.051,0.076-0.078,0.113c-0.029,0.039-0.059,0.078-0.094,0.116
			c-0.027,0.036-0.059,0.072-0.092,0.105c-0.004,0.005-0.008,0.009-0.016,0.015c-0.016,0.019-0.035,0.039-0.053,0.059
			C57.293,69.889,57.293,69.891,57.289,69.893z M56.885,68.804c-0.102-0.075-0.207-0.1-0.309-0.085
			c-0.113-0.001-0.188,0.01-0.301-0.096c0,0-0.25-0.239-0.546-0.523c0.337-0.345,0.667-0.683,0.714-0.726
			c0.051-0.048,0.186-0.031,0.297-0.066c0.154-0.031,0.262-0.152,0.314-0.291c0.043-0.11,0.012-0.225-0.002-0.247
			C57.012,66.707,57,66.739,57,66.739l-0.162,0.263c-0.057,0.063-0.195,0.031-0.266-0.022c-0.094-0.071-0.092-0.2-0.092-0.2
			l0.17-0.261c0.004-0.023-0.027-0.038-0.133-0.009c-0.057,0.016-0.143,0.081-0.219,0.182c-0.074,0.1-0.088,0.249-0.057,0.346
			c0,0.003-0.021,0.053-0.064,0.098l-0.728,0.696c-0.336-0.323-0.658-0.634-0.7-0.679c-0.047-0.052-0.031-0.187-0.066-0.296
			c-0.031-0.152-0.152-0.26-0.293-0.313c-0.111-0.042-0.227-0.01-0.248,0.004c-0.064,0.039-0.031,0.052-0.031,0.052l0.266,0.161
			c0.063,0.056,0.031,0.192-0.023,0.262c-0.072,0.094-0.201,0.093-0.201,0.093l-0.262-0.169c-0.025-0.005-0.039,0.027-0.01,0.132
			c0.016,0.057,0.082,0.142,0.182,0.217c0.102,0.075,0.252,0.088,0.348,0.058c0.004,0,0.055,0.021,0.1,0.063l0.662,0.683
			l-0.428,0.409c0,0-0.199,0.235-0.393,0.2c-0.1-0.021-0.262,0.062-0.322,0.138c-0.076,0.077-0.131,0.181-0.158,0.288
			c-0.037,0.157-0.018,0.226,0,0.254c0.045,0.072,0.064,0.058,0.064,0.058l0.238-0.394c0.055-0.046,0.199,0.009,0.289,0.076
			c0.121,0.091,0.119,0.191,0.119,0.191l-0.232,0.386c-0.006,0.031,0.031,0.04,0.164,0.003c0.074-0.02,0.172-0.085,0.266-0.212
			c0.076-0.102,0.102-0.207,0.086-0.307c0-0.113-0.01-0.188,0.096-0.298c0,0,0.221-0.228,0.491-0.505l0.439,0.453
			c0,0,0.238,0.2,0.201,0.389c-0.02,0.101,0.063,0.261,0.141,0.322c0.074,0.075,0.18,0.13,0.289,0.156
			c0.156,0.038,0.227,0.019,0.256,0c0.07-0.043,0.057-0.063,0.057-0.063l-0.396-0.237c-0.045-0.055,0.01-0.199,0.078-0.287
			C56.607,68.998,56.707,69,56.707,69l0.389,0.229c0.031,0.006,0.041-0.03,0.004-0.162C57.08,68.995,57.014,68.897,56.885,68.804z
			 M41.361,66.465v-0.261h-0.799v1.825h0.799v-0.261h-0.506v-0.534h0.402v-0.261h-0.402v-0.509H41.361z M42.566,67.479v0.111
			c0,0.293,0.15,0.46,0.438,0.46c0.289,0,0.438-0.167,0.438-0.46c0-0.521-0.572-0.592-0.572-0.967c0-0.131,0.053-0.181,0.146-0.181
			s0.146,0.05,0.146,0.181v0.075h0.277v-0.058c0-0.292-0.146-0.459-0.432-0.459s-0.434,0.167-0.434,0.459
			c0,0.521,0.574,0.593,0.574,0.968c0,0.131-0.059,0.178-0.152,0.178s-0.152-0.047-0.152-0.178v-0.13H42.566z M45.193,68.029v-1.564
			H45.5v-0.261h-0.906v0.261H44.9v1.564H45.193z M46.82,68.029v-0.276h-0.283v0.276H46.82z M62.996,68.113v-1.825h-0.197
			c-0.045,0.123-0.096,0.229-0.324,0.229v0.203h0.229v1.393H62.996z M64.395,67.629v0.047c0,0.292,0.15,0.459,0.438,0.459
			c0.305,0,0.449-0.167,0.449-0.475v-0.934c0-0.292-0.158-0.459-0.445-0.459c-0.289,0-0.445,0.167-0.445,0.459v0.333
			c0,0.27,0.109,0.418,0.324,0.418c0.131,0,0.223-0.058,0.273-0.162v0.334c0,0.175-0.059,0.225-0.164,0.225
			c-0.094,0-0.152-0.05-0.152-0.18v-0.065H64.395z M64.836,67.217c-0.094,0-0.152-0.05-0.152-0.181v-0.328
			c0-0.131,0.059-0.178,0.152-0.178s0.152,0.047,0.152,0.178v0.328C64.988,67.167,64.93,67.217,64.836,67.217z M66.508,67.676
			c0,0.292,0.162,0.459,0.457,0.459c0.297,0,0.459-0.167,0.459-0.459v-0.144c0-0.175-0.053-0.311-0.18-0.381
			c0.119-0.065,0.18-0.188,0.18-0.368v-0.057c0-0.292-0.162-0.459-0.459-0.459c-0.295,0-0.457,0.167-0.457,0.459v0.057
			c0,0.181,0.059,0.303,0.18,0.368c-0.127,0.07-0.18,0.206-0.18,0.381V67.676z M66.801,66.736c0-0.164,0.072-0.208,0.164-0.208
			c0.094,0,0.166,0.044,0.166,0.208v0.103c0,0.146-0.072,0.192-0.166,0.192c-0.096,0-0.164-0.047-0.164-0.192V66.736z
			 M66.801,67.498c0-0.144,0.061-0.206,0.164-0.206c0.105,0,0.166,0.063,0.166,0.206v0.17c-0.002,0.161-0.072,0.206-0.166,0.206
			c-0.092,0-0.164-0.045-0.164-0.206V67.498z M68.656,67.524v0.151c0,0.292,0.148,0.459,0.438,0.459
			c0.287,0,0.438-0.167,0.438-0.459v-0.407c0-0.269-0.109-0.417-0.326-0.417c-0.117,0-0.203,0.047-0.256,0.133l0.023-0.436h0.51
			v-0.261h-0.773l-0.053,1.059h0.277v-0.055c0-0.13,0.059-0.18,0.152-0.18s0.152,0.05,0.152,0.18v0.402
			c0,0.13-0.059,0.177-0.152,0.177s-0.152-0.047-0.152-0.177v-0.17H68.656z M42.402,74.641l0.051-0.109l0.023-3.482l-0.324-0.151
			l-2.684,2.239l-0.051,0.108l0.736,0.345l0.348-0.287l1.164,0.544l-0.002,0.449L42.402,74.641z M41.051,72.776l0.697-0.615
			l-0.023,0.93L41.051,72.776z M45.436,72.258l-1.168-0.385l-1.025,3.079l1.168,0.384C46.434,75.991,47.453,72.931,45.436,72.258z
			 M44.82,72.851l0.377,0.124c0.988,0.324,0.439,1.97-0.549,1.645l-0.375-0.124L44.82,72.851z M48.471,74.956l-0.385-1.946
			l-0.787-0.156l-0.023,0.122l0.746,3.363l0.346,0.069l1.982-2.819l0.023-0.123l-0.785-0.156l-1.094,1.651L48.471,74.956z
			 M52.963,74.435c0.021-0.249,0.043-0.498,0.064-0.738c-0.762-0.065-1.277-0.11-2.029-0.175c-0.094,1.07-0.189,2.149-0.283,3.229
			c0.752,0.064,1.311,0.113,2.072,0.179c0.021-0.244,0.043-0.493,0.064-0.733c-0.488-0.042-0.768-0.066-1.246-0.107
			c0.018-0.194,0.033-0.379,0.051-0.567l1.105,0.095c0.021-0.244,0.043-0.488,0.064-0.733l-1.107-0.096l0.041-0.456
			C52.238,74.372,52.48,74.393,52.963,74.435z M56.781,76.902l-0.098-3.245c-0.285,0.008-0.568,0.017-0.854,0.025l0.049,1.588
			l-1.699-1.553l-0.303,0.009l0.098,3.255c0.285-0.009,0.574-0.018,0.863-0.026l-0.049-1.592l1.693,1.548L56.781,76.902z
			 M59.688,73.257l-2.4,0.34c0.035,0.243,0.07,0.486,0.105,0.733l0.793-0.112l0.355,2.475c0.271-0.038,0.545-0.076,0.816-0.115
			l-0.355-2.475l0.789-0.112C59.756,73.743,59.721,73.5,59.688,73.257z M62.166,75.29c-0.236,0.06-0.516-0.004-0.582-0.259
			l-0.533-2.082c-0.254,0.064-0.52,0.132-0.773,0.195l0.537,2.095c0.178,0.691,0.891,0.937,1.535,0.772
			c0.65-0.164,1.148-0.715,0.973-1.406l-0.537-2.095c-0.254,0.064-0.516,0.131-0.773,0.195l0.535,2.082
			C62.611,75.043,62.4,75.23,62.166,75.29z M66.516,74.612l0.871-0.333l-0.045-0.112l-0.967-0.731
			c0.568-0.813-0.201-2.159-1.4-1.707c-0.443,0.17-0.896,0.343-1.336,0.51c0.393,1.012,0.781,2.019,1.172,3.025
			c0.252-0.097,0.518-0.198,0.779-0.298l-0.346-0.89l0.404-0.155L66.516,74.612z M64.979,73.389
			c-0.094-0.242-0.197-0.51-0.293-0.756c0.184-0.07,0.373-0.147,0.557-0.213c0.445-0.165,0.715,0.595,0.293,0.756L64.979,73.389z
			 M70.104,72.911c-0.113-0.218-0.229-0.44-0.34-0.654c-0.434,0.224-0.684,0.351-1.109,0.569c-0.09-0.173-0.176-0.337-0.264-0.506
			l0.986-0.506c-0.113-0.218-0.227-0.437-0.34-0.654l-0.986,0.506l-0.213-0.407c0.428-0.219,0.643-0.329,1.074-0.551
			c-0.115-0.222-0.23-0.444-0.342-0.658c-0.68,0.349-1.141,0.584-1.811,0.929c0.496,0.954,0.996,1.918,1.496,2.881
			C68.928,73.515,69.426,73.26,70.104,72.911z M70.801,19.675l-4.057,2.863L56.605,8.881l-8.736,11.014l-2.313-2.299l2.023,2.739
			l-6.525,7.34c-0.594-3.155,3.35-7.049,3.35-7.049l1.123-3.075l-0.303-0.299l-9.879,9.912l-6.879,5.682l3.768-4.58v-1.472
			l3.111,0.37l-3.352-1.102L19.887,41.041h71.201L70.801,19.675z M70.744,20.187l9.23,9.639l-4.699-3.691l-1.412,1.541
			C70.568,24.962,70.744,20.187,70.744,20.187z M60.395,21.587c-1.115-0.812-7.465,4.695-7.465,4.695
			c1.234-2.571,1.234-12.705,1.234-12.705l2.525-3.965L75.854,34.31C75.416,33.947,61.502,22.38,60.395,21.587z M86.697,65.607
			c0.236-0.507,0.457-1.017,0.666-1.527h-4.223c-5.277,9.898-15.758,16.639-27.822,16.639s-22.545-6.74-27.822-16.639H22.65
			c0.32,0.115,0.588,0.271,0.813,0.465c0.184,0.421,0.373,0.844,0.572,1.26c0.461,1.771-1.348,2.959-1.348,2.959
			s-0.232,0.25-0.861,0.729c-0.539,0.411-0.105,1.751,0.709,1.751c0.094,0,0.199-0.021,0.303-0.063
			c1.229-0.479,2.137-0.682,2.838-0.682c0.541,0,0.961,0.119,1.328,0.322c0.256,0.359,0.523,0.714,0.797,1.068
			c0.861,1.657-0.682,3.215-0.682,3.215s-0.174,0.291-0.688,0.89c-0.42,0.479,0.178,1.578,0.908,1.578
			c0.141,0,0.287-0.042,0.436-0.136c1.457-0.963,2.459-1.327,3.262-1.327c0.262,0,0.504,0.042,0.73,0.114
			c0.34,0.313,0.686,0.62,1.033,0.917c1.143,1.433-0.021,3.245-0.021,3.245s-0.105,0.323-0.488,1.016
			c-0.283,0.516,0.398,1.376,1.064,1.376c0.195,0,0.389-0.072,0.551-0.239c1.506-1.527,2.523-2.027,3.432-2.027
			c0.057,0,0.115,0.006,0.168,0.006c0.445,0.266,0.891,0.515,1.342,0.761c1.307,1.177,0.572,3.11,0.572,3.11
			s-0.031,0.337-0.258,1.094c-0.156,0.515,0.535,1.14,1.154,1.14c0.252,0,0.494-0.104,0.662-0.364
			c1.221-1.901,2.145-2.579,3.078-2.715c0.498,0.173,1.002,0.329,1.512,0.475c1.5,0.887,1.189,2.912,1.189,2.912
			s0.037,0.339-0.025,1.125c-0.037,0.475,0.592,0.897,1.158,0.897c0.332,0,0.641-0.147,0.781-0.517
			c0.799-2.115,1.559-2.964,2.445-3.292c0.525,0.062,1.043,0.119,1.574,0.156c1.652,0.557,1.777,2.6,1.777,2.6
			s0.105,0.322,0.205,1.109c0.057,0.396,0.572,0.667,1.064,0.667c0.43,0,0.844-0.203,0.918-0.693
			c0.33-2.214,0.893-3.209,1.678-3.714c0.557-0.047,1.107-0.104,1.652-0.178c1.689,0.239,2.225,2.168,2.225,2.168
			s0.168,0.296,0.436,1.042c0.109,0.301,0.488,0.458,0.881,0.458c0.529,0,1.086-0.287,1.049-0.896
			c-0.135-2.192,0.195-3.276,0.83-3.938c0.57-0.171,1.137-0.359,1.693-0.558c0.027-0.005,0.053-0.005,0.078-0.005
			c1.602,0,2.471,1.672,2.471,1.672s0.232,0.25,0.646,0.923c0.125,0.208,0.389,0.302,0.67,0.302c0.604,0,1.322-0.422,1.123-1.125
			c-0.588-2.104-0.498-3.235-0.016-4.017c0.525-0.286,1.039-0.589,1.547-0.906c0.189-0.042,0.367-0.063,0.541-0.063
			c1.332,0,2.303,1.172,2.303,1.172s0.273,0.198,0.824,0.771c0.115,0.126,0.293,0.184,0.482,0.184c0.645,0,1.484-0.632,1.102-1.36
			c-1.023-1.943-1.17-3.067-0.855-3.933c0.389-0.334,0.766-0.673,1.139-1.022c0.057-0.056,0.115-0.113,0.172-0.171
			c0.342-0.167,0.688-0.229,1.014-0.229c1.096,0,2.008,0.72,2.008,0.72s0.311,0.14,0.967,0.588c0.1,0.068,0.209,0.099,0.334,0.099
			c0.668,0,1.549-0.88,0.967-1.578c-1.391-1.672-1.773-2.739-1.664-3.642c0.379-0.494,0.74-0.995,1.086-1.5
			c0.473-0.349,0.992-0.458,1.469-0.458c0.846,0,1.543,0.349,1.543,0.349s0.336,0.068,1.064,0.375
			c0.068,0.026,0.143,0.042,0.209,0.042c0.688,0,1.521-1.157,0.762-1.757C87.389,67.456,86.785,66.503,86.697,65.607z
			 M26.064,14.761l-0.73-0.851l0.617-0.523c1.604-1.359-0.521-3.831-2.129-2.477c-0.494,0.418-0.992,0.841-1.475,1.25
			c0.957,1.112,1.908,2.22,2.861,3.327C25.49,15.248,25.777,15.005,26.064,14.761z M23.857,12.194
			c0.197-0.166,0.408-0.354,0.613-0.52c0.502-0.417,1.287,0.553,0.818,0.951l-0.613,0.52C24.443,12.874,24.092,12.466,23.857,12.194
			z M30.01,11.716l-0.723-1.069l0.486-0.324l1.35,0.651l1.045-0.696l-0.092-0.135l-1.494-0.675c0.504-1.239-0.918-2.783-2.359-1.831
			c-0.531,0.355-1.076,0.718-1.604,1.069c0.82,1.215,1.637,2.424,2.455,3.633C29.377,12.137,29.695,11.925,30.01,11.716z
			 M28.115,8.913c0.221-0.146,0.447-0.305,0.67-0.446c0.535-0.35,1.119,0.571,0.613,0.909l-0.67,0.445
			C28.533,9.53,28.316,9.209,28.115,8.913z M35.807,8.36c-0.154-0.294-0.311-0.593-0.463-0.882
			c-0.586,0.304-0.922,0.478-1.496,0.775c-0.123-0.233-0.238-0.455-0.357-0.683l1.328-0.688l-0.463-0.882L33.027,6.69l-0.289-0.55
			c0.576-0.298,0.865-0.448,1.447-0.748c-0.158-0.3-0.314-0.6-0.467-0.888c-0.916,0.475-1.535,0.795-2.439,1.264
			c0.676,1.286,1.355,2.584,2.037,3.881C34.221,9.182,34.891,8.835,35.807,8.36z M38.32,7.279l-0.688-1.826l1.215,0.589l0.119-0.044
			l0.533-1.24l0.689,1.826c0.359-0.133,0.719-0.267,1.078-0.4l-1.549-4.109l-0.377,0.14l-0.975,2.392l-2.285-1.18L35.693,3.57
			l1.549,4.109C37.602,7.547,37.961,7.413,38.32,7.279z M42.313,2.387l0.602,2.345l-0.543,0.138l0.244,0.951l2.166-0.548
			l-0.244-0.951l-0.543,0.138l-0.602-2.346l0.5-0.126L43.65,1.042l-2.08,0.525l0.242,0.945L42.313,2.387z M47.809,4.778
			c0.896-0.136,1.639-0.812,1.492-1.764L48.855,0.13c-0.348,0.053-0.709,0.108-1.064,0.162l0.443,2.866
			c0.053,0.353-0.256,0.576-0.578,0.626c-0.324,0.049-0.693-0.072-0.748-0.424l-0.441-2.867c-0.35,0.054-0.715,0.109-1.064,0.162
			l0.445,2.885C45.994,4.492,46.92,4.914,47.809,4.778z M52.381,4.252l-0.047-1.95l0.955,0.953l0.125-0.003l0.914-0.998l0.047,1.95
			c0.385-0.009,0.77-0.018,1.152-0.027L55.422-0.21L55.02-0.201L53.309,1.74l-1.77-1.858l-0.416,0.01l0.105,4.387
			C51.613,4.27,51.996,4.261,52.381,4.252z M60.949,3.404l0.578,0.093l0.541,1.391l1.242,0.198l0.025-0.16l-0.629-1.507
			c1.221-0.564,1.24-2.658-0.469-2.938c-0.633-0.101-1.279-0.204-1.908-0.305c-0.232,1.445-0.467,2.883-0.699,4.321
			c0.361,0.058,0.74,0.118,1.113,0.178L60.949,3.404z M61.283,1.343c0.262,0.041,0.535,0.079,0.797,0.127
			c0.633,0.107,0.428,1.177-0.176,1.08l-0.795-0.127C61.164,2.077,61.227,1.694,61.283,1.343z M67.553,5.189
			c-0.637-0.176-1.002-0.275-1.625-0.447c0.07-0.253,0.137-0.494,0.205-0.74l1.443,0.396c0.09-0.319,0.178-0.639,0.268-0.958
			L66.4,3.044l0.166-0.597c0.625,0.172,0.939,0.259,1.57,0.432c0.092-0.325,0.182-0.65,0.27-0.964
			c-0.996-0.273-1.668-0.458-2.65-0.729c-0.391,1.397-0.783,2.808-1.176,4.217c0.982,0.271,1.711,0.471,2.705,0.743
			C67.375,5.827,67.465,5.502,67.553,5.189z M70.27,6.022l0.754,0.3c1.961,0.777,3.174-2.243,1.219-3.025
			c-0.604-0.239-1.211-0.48-1.803-0.715c-0.545,1.358-1.09,2.712-1.635,4.065c0.346,0.137,0.697,0.275,1.047,0.415L70.27,6.022z
			 M71.113,3.927c0.24,0.095,0.506,0.193,0.748,0.297c0.605,0.247,0.105,1.389-0.467,1.161l-0.748-0.297
			C70.779,4.757,70.98,4.258,71.113,3.927z M72.656,8.192l0.971,0.516l0.49-0.364l1.531,0.813l-0.033,0.605l0.973,0.516l0.076-0.143
			l0.273-4.698L76.51,5.211l-3.777,2.838L72.656,8.192z M75.877,6.889l-0.096,1.254l-0.889-0.472L75.877,6.889z M79.689,11.167
			l-0.467-0.309l1.352-2.015l0.43,0.284l0.545-0.813l-1.787-1.182l-0.545,0.812l0.43,0.284l-1.352,2.015L77.83,9.936l-0.549,0.817
			l1.861,1.231L79.689,11.167z M81.127,13.473l0.818-0.999l0.455,0.367l-0.232,1.473l0.977,0.789l0.104-0.126l0.213-1.618
			c1.342,0.117,2.412-1.687,1.072-2.776c-0.498-0.402-1.006-0.813-1.5-1.211c-0.93,1.135-1.854,2.266-2.779,3.396
			C80.537,12.995,80.834,13.236,81.127,13.473z M83.273,10.854c0.205,0.166,0.424,0.334,0.625,0.505
			c0.494,0.407-0.223,1.231-0.695,0.849l-0.625-0.505C82.801,11.431,83.047,11.13,83.273,10.854z"/>
	</g>
</g>
<g>
	<g>
		<path fill="#36434d" d="M11.373,43.943H8.801c-0.12,0-0.227,0.045-0.316,0.135c-0.092,0.09-0.156,0.186-0.197,0.285l-2.39,9.252
			l-2.39-9.252c-0.041-0.1-0.105-0.195-0.196-0.285s-0.196-0.135-0.317-0.135H0.423c-0.282,0-0.423,0.14-0.423,0.42v17.183
			c0,0.281,0.141,0.421,0.423,0.421h2.903c0.283,0,0.424-0.14,0.424-0.421v-7.99l1.996,7.149c0.041,0.101,0.092,0.15,0.151,0.15
			c0.061,0,0.11-0.05,0.151-0.15l1.996-7.149v7.99c0,0.281,0.141,0.421,0.424,0.421h2.904c0.281,0,0.423-0.14,0.423-0.421V44.363
			C11.796,44.083,11.654,43.943,11.373,43.943z M20.659,44.844c-0.344-0.34-0.746-0.61-1.211-0.811
			c-0.463-0.2-0.957-0.301-1.48-0.301h-1.151c-0.523,0-1.018,0.101-1.481,0.301s-0.867,0.471-1.21,0.811
			c-0.344,0.341-0.615,0.741-0.816,1.202c-0.202,0.461-0.303,0.951-0.303,1.472v10.874c0,0.521,0.101,1.012,0.303,1.473
			c0.201,0.461,0.473,0.861,0.816,1.201c0.343,0.341,0.746,0.611,1.21,0.812c0.464,0.199,0.958,0.3,1.481,0.3h1.151
			c0.523,0,1.018-0.101,1.48-0.3c0.465-0.2,0.867-0.471,1.211-0.812c0.342-0.34,0.615-0.74,0.816-1.201s0.303-0.951,0.303-1.473
			V47.518c0-0.521-0.102-1.011-0.303-1.472S21,45.185,20.659,44.844z M18.239,58.242c0,0.2-0.07,0.37-0.211,0.511
			c-0.143,0.14-0.314,0.21-0.516,0.21h-0.242c-0.202,0-0.373-0.07-0.515-0.21c-0.141-0.141-0.211-0.311-0.211-0.511V47.668
			c0-0.2,0.07-0.37,0.211-0.511c0.142-0.14,0.313-0.21,0.515-0.21h0.242c0.201,0,0.373,0.07,0.516,0.21
			c0.141,0.141,0.211,0.311,0.211,0.511V58.242z M31.034,43.943H28.34c-0.281,0-0.422,0.14-0.422,0.42v13.879
			c0,0.2-0.072,0.37-0.213,0.511c-0.141,0.14-0.313,0.21-0.514,0.21H26.95c-0.201,0-0.373-0.07-0.514-0.21
			c-0.143-0.141-0.213-0.311-0.213-0.511V44.363c0-0.28-0.141-0.42-0.424-0.42h-2.691c-0.283,0-0.424,0.14-0.424,0.42v14.028
			c0,0.521,0.102,1.012,0.303,1.473s0.475,0.861,0.816,1.201c0.344,0.341,0.746,0.611,1.211,0.812c0.463,0.199,0.957,0.3,1.482,0.3
			h1.148c0.523,0,1.018-0.101,1.482-0.3c0.463-0.2,0.867-0.471,1.209-0.812c0.344-0.34,0.615-0.74,0.818-1.201
			c0.201-0.461,0.301-0.951,0.301-1.473V44.363C31.456,44.083,31.315,43.943,31.034,43.943z M41.922,43.943h-2.693
			c-0.281,0-0.424,0.14-0.424,0.42v8.712l-3.145-8.742c-0.041-0.1-0.117-0.189-0.227-0.27c-0.111-0.08-0.227-0.12-0.348-0.12H33.09
			c-0.283,0-0.424,0.14-0.424,0.42v17.183c0,0.281,0.141,0.421,0.424,0.421h2.691c0.281,0,0.424-0.14,0.424-0.421v-7.81l3.205,7.84
			c0.041,0.101,0.117,0.19,0.227,0.271c0.111,0.08,0.229,0.12,0.348,0.12h1.938c0.281,0,0.422-0.14,0.422-0.421V44.363
			C42.344,44.083,42.204,43.943,41.922,43.943z M51.903,47.037v-2.674c0-0.28-0.141-0.42-0.424-0.42h-7.803
			c-0.283,0-0.424,0.14-0.424,0.42v2.674c0,0.28,0.141,0.421,0.424,0.421h2.117v14.088c0,0.12,0.045,0.221,0.135,0.301
			c0.092,0.08,0.188,0.12,0.289,0.12h2.691c0.281,0,0.424-0.14,0.424-0.421V47.458h2.146C51.762,47.458,51.903,47.317,51.903,47.037
			z M58.406,44.363c-0.041-0.28-0.203-0.42-0.484-0.42H53.93c-0.283,0-0.445,0.14-0.484,0.42l-2.27,17.183
			c-0.039,0.281,0.082,0.421,0.363,0.421h2.754c0.262,0,0.412-0.14,0.453-0.421l0.242-2.943h1.875l0.242,2.943
			c0.039,0.281,0.191,0.421,0.453,0.421h2.752c0.283,0,0.404-0.14,0.363-0.421L58.406,44.363z M55.23,55.238l0.574-6.64h0.242
			l0.574,6.64H55.23z M64.576,43.943h-2.693c-0.281,0-0.422,0.14-0.422,0.42v17.183c0,0.281,0.141,0.421,0.422,0.421h2.693
			c0.281,0,0.424-0.14,0.424-0.421V44.363C65,44.083,64.857,43.943,64.576,43.943z M75.768,43.943h-2.693
			c-0.281,0-0.424,0.14-0.424,0.42v8.712l-3.145-8.742c-0.041-0.1-0.117-0.189-0.227-0.27c-0.111-0.08-0.227-0.12-0.348-0.12h-1.996
			c-0.283,0-0.424,0.14-0.424,0.42v17.183c0,0.281,0.141,0.421,0.424,0.421h2.691c0.281,0,0.424-0.14,0.424-0.421v-7.81l3.205,7.84
			c0.041,0.101,0.117,0.19,0.227,0.271c0.111,0.08,0.229,0.12,0.348,0.12h1.938c0.281,0,0.422-0.14,0.422-0.421V44.363
			C76.189,44.083,76.049,43.943,75.768,43.943z M85.355,45.055c-0.344-0.341-0.746-0.611-1.211-0.812
			c-0.463-0.2-0.957-0.3-1.482-0.3h-4.537c-0.281,0-0.422,0.14-0.422,0.42v17.183c0,0.221,0.055,0.346,0.166,0.376
			c0.109,0.029,0.227,0.045,0.348,0.045h4.445c0.525,0,1.02-0.1,1.482-0.301c0.465-0.199,0.867-0.47,1.211-0.811
			c0.342-0.341,0.615-0.741,0.816-1.202c0.201-0.46,0.303-0.95,0.303-1.472v-2.463c0-0.461-0.072-0.881-0.213-1.262
			s-0.352-0.711-0.635-0.991s-0.645-0.501-1.088-0.661c0.422-0.2,0.785-0.461,1.088-0.781c0.564-0.62,0.848-1.392,0.848-2.313
			v-1.983c0-0.521-0.102-1.011-0.303-1.472C85.971,45.796,85.697,45.396,85.355,45.055z M82.936,58.031
			c0,0.201-0.072,0.371-0.213,0.511c-0.141,0.141-0.313,0.211-0.514,0.211h-0.967v-4.236h0.967c0.201,0,0.373,0.07,0.514,0.211
			c0.141,0.14,0.213,0.311,0.213,0.511V58.031z M82.936,50.521c0,0.2-0.072,0.371-0.213,0.511c-0.141,0.141-0.313,0.21-0.514,0.21
			h-0.967v-4.085h0.967c0.201,0,0.373,0.07,0.514,0.21c0.141,0.141,0.213,0.311,0.213,0.511V50.521z M90.648,43.943h-2.693
			c-0.281,0-0.422,0.14-0.422,0.42v17.183c0,0.281,0.141,0.421,0.422,0.421h2.693c0.281,0,0.424-0.14,0.424-0.421V44.363
			C91.072,44.083,90.93,43.943,90.648,43.943z M102.504,43.943H99.48c-0.283,0-0.475,0.12-0.576,0.36l-2.781,5.316v-5.257
			c0-0.28-0.143-0.42-0.424-0.42h-2.693c-0.281,0-0.422,0.14-0.422,0.42v17.183c0,0.281,0.141,0.421,0.422,0.421h2.693
			c0.281,0,0.424-0.14,0.424-0.421v-3.965l0.514-0.961l2.207,4.986c0.041,0.101,0.111,0.186,0.213,0.255
			c0.1,0.07,0.211,0.105,0.332,0.105h2.994c0.121,0,0.213-0.045,0.273-0.135c0.061-0.091,0.07-0.186,0.029-0.286l-4.053-9.522
			l4.113-7.66c0.041-0.1,0.041-0.195,0-0.285S102.625,43.943,102.504,43.943z M110.551,47.458c0.281,0,0.424-0.141,0.424-0.421
			v-2.674c0-0.28-0.143-0.42-0.424-0.42h-6.564c-0.283,0-0.424,0.14-0.424,0.42v17.183c0,0.281,0.141,0.421,0.424,0.421h6.564
			c0.281,0,0.424-0.14,0.424-0.421v-2.673c0-0.28-0.143-0.421-0.424-0.421h-3.449v-4.056h2.994c0.283,0,0.424-0.14,0.424-0.42
			v-2.674c0-0.28-0.141-0.421-0.424-0.421h-2.994v-3.424H110.551z"/>
	</g>
</g>
</svg>
