<?xml version="1.0" encoding="utf-8"?>
<!-- Generator: Adobe Illustrator 16.0.0, SVG Export Plug-In . SVG Version: 6.00 Build 0)  -->
<!DOCTYPE svg PUBLIC "-//W3C//DTD SVG 1.1//EN" "http://www.w3.org/Graphics/SVG/1.1/DTD/svg11.dtd">
<svg version="1.1" id="Layer_1" xmlns="http://www.w3.org/2000/svg" xmlns:xlink="http://www.w3.org/1999/xlink" x="0px" y="0px"
	 width="136px" height="91px" viewBox="0 0 136 91" enable-background="new 0 0 136 91" xml:space="preserve">
<g>
	<g>
		<path fill="#36434D" d="M55.734,71.833c-0.098-0.08-0.217-0.139-0.358-0.175c-0.142-0.035-0.3-0.054-0.475-0.054h-1.929v0.706
			h0.258v1.936h-0.258v0.706h1.873v-0.706h-0.413v-0.619h0.469c0.174,0,0.333-0.019,0.475-0.054
			c0.142-0.036,0.261-0.094,0.358-0.175c0.097-0.08,0.172-0.184,0.226-0.312c0.053-0.128,0.079-0.285,0.079-0.472
			c0-0.183-0.026-0.34-0.079-0.469C55.906,72.018,55.831,71.913,55.734,71.833z M54.828,72.74c0,0.098-0.021,0.168-0.064,0.211
			s-0.104,0.064-0.185,0.064h-0.146v-0.705h0.146c0.083,0,0.146,0.021,0.187,0.064c0.042,0.043,0.063,0.113,0.063,0.211V72.74z
			 M60.098,73.915c0-0.296-0.138-0.465-0.413-0.508l-0.004-0.043c0.146-0.058,0.257-0.156,0.333-0.297s0.114-0.306,0.114-0.494
			c0-0.178-0.026-0.329-0.079-0.452c-0.053-0.123-0.128-0.223-0.226-0.299c-0.098-0.076-0.217-0.132-0.359-0.166
			s-0.3-0.052-0.475-0.052h-2.014v0.706h0.258v1.936h-0.258v0.706h1.744v-0.706h-0.283v-0.705c0.088,0,0.165,0.005,0.228,0.015
			s0.115,0.028,0.157,0.056s0.071,0.067,0.09,0.121c0.019,0.053,0.028,0.122,0.028,0.208v1.012h1.361v-0.706h-0.202V73.915z
			 M58.917,72.74c0,0.098-0.021,0.168-0.063,0.211s-0.104,0.064-0.187,0.064h-0.232v-0.705h0.232c0.083,0,0.145,0.021,0.187,0.064
			s0.063,0.113,0.063,0.211V72.74z M61.331,72.311h0.257v1.936h-0.257v0.706h2.941v-1.386H63.31v0.68h-0.52V73.48h0.378v-0.49
			h-0.378v-0.68h0.52v0.594h0.962v-1.3h-2.941V72.311z M67.88,73.08l-0.49-1.476h-2.053v0.706h0.258v1.936h-0.258v0.706h1.503
			v-0.706h-0.258v-1.708l0.971,2.414h0.464l0.854-2.405v1.699h-0.258v0.706h1.718v-0.706h-0.258v-1.936h0.258v-0.706h-1.979
			L67.88,73.08z M71.363,72.311h0.258v1.936h-0.258v0.706h1.717v-0.706h-0.258v-1.936h0.258v-0.706h-1.717V72.311z M75.881,72.311
			h0.172v1.66c0,0.098-0.021,0.168-0.063,0.211s-0.104,0.064-0.186,0.064c-0.084,0-0.146-0.021-0.188-0.064
			s-0.063-0.113-0.063-0.211v-1.66h0.172v-0.706h-1.633v0.706h0.258v1.44c0,0.232,0.033,0.429,0.102,0.588
			c0.066,0.159,0.162,0.289,0.283,0.389c0.121,0.101,0.27,0.173,0.443,0.218c0.172,0.044,0.367,0.066,0.582,0.066
			c0.209,0,0.398-0.022,0.568-0.066c0.17-0.045,0.316-0.117,0.436-0.218c0.121-0.1,0.213-0.229,0.277-0.389s0.096-0.355,0.096-0.588
			v-1.44h0.258v-0.706h-1.516V72.311z M80.92,73.08l-0.49-1.476h-2.053v0.706h0.258v1.936h-0.258v0.706h1.502v-0.706h-0.258v-1.708
			l0.971,2.414h0.465l0.855-2.405v1.699h-0.258v0.706h1.717v-0.706h-0.258v-1.936h0.258v-0.706h-1.98L80.92,73.08z M82.871,9.31
			H71.709v0.485h11.162V9.31z M82.871,11.142H71.709v0.486h11.162V11.142z M65.203,9.31H54.04v0.485h11.163V9.31z M65.203,11.142
			H54.04v0.486h11.163V11.142z M67.105,12.548l1.35-0.981l1.35,0.981l-0.517-1.586l1.351-0.982h-1.667l-0.516-1.591L67.94,9.979
			h-1.667l1.349,0.982L67.105,12.548z M52.021,16.778c0,0-0.271-1.196-2.53-0.675C49.929,16.658,50.455,17.504,52.021,16.778z
			 M54.068,16.597c0,0-0.268-1.194-2.531-0.671C51.974,16.477,52.5,17.325,54.068,16.597z M56.451,16.549
			c0,0-0.223-1.477-2.635-1.05C54.25,16.211,54.759,17.289,56.451,16.549z M58.7,16.925c0,0,0.12-1.832-2.333-1.854
			C56.627,16.024,56.878,17.438,58.7,16.925z M61.233,17.119c0,0,0.124-1.858-2.361-1.88C59.136,16.204,59.388,17.637,61.233,17.119
			z M63.626,17.549c0,0,0.236-1.946-2.375-2.113C61.473,16.467,61.659,17.988,63.626,17.549z M49.651,18.577
			c2.317,0.043,2.361-0.965,2.361-0.965C50.337,17.291,49.978,18.061,49.651,18.577z M50.511,17.364l1.956,0.219
			c-0.371,0.204-0.558,0.534-0.736,0.796c1.526,0.073,2.075-0.337,2.273-0.628l0.59,0.066c-0.276,0.258-0.423,0.596-0.566,0.878
			c1.386,0.025,1.988-0.355,2.247-0.69l0.534,0.059c-0.281,0.313-0.408,0.759-0.531,1.119c1.558,0.093,2.074-0.492,2.246-0.931
			l0.601,0.069c-0.261,0.313-0.383,0.74-0.502,1.093c1.527,0.091,2.066-0.463,2.258-0.899l0.64,0.07
			c-0.386,0.35-0.501,0.919-0.627,1.371c1.757,0.026,2.223-0.701,2.344-1.18l3.185,0.353c-4.609-2.565-14.684-1.891-15.947-1.793
			c-1.852-1.059-2.605-0.291-3.211,0.188C49.938,18.517,50.477,17.443,50.511,17.364z M84.16,16.728
			c1.568,0.718,2.092-0.131,2.529-0.685C84.43,15.527,84.16,16.728,84.16,16.728z M82.109,16.549c1.57,0.722,2.094-0.126,2.531-0.68
			C82.381,15.355,82.109,16.549,82.109,16.549z M82.359,15.452c-2.412-0.422-2.629,1.058-2.629,1.058
			C81.422,17.242,81.93,16.162,82.359,15.452z M77.482,16.894c1.822,0.504,2.07-0.912,2.324-1.864
			C77.355,15.063,77.482,16.894,77.482,16.894z M77.305,15.204c-2.486,0.035-2.355,1.889-2.355,1.889
			C76.795,17.606,77.045,16.173,77.305,15.204z M74.926,15.409c-2.611,0.18-2.369,2.123-2.369,2.123
			C74.525,17.964,74.707,16.443,74.926,15.409z M84.174,17.559c0,0,0.045,1.008,2.361,0.958
			C86.207,18.001,85.846,17.231,84.174,17.559z M69.768,19.118l3.186-0.363c0.119,0.478,0.588,1.206,2.344,1.174
			c-0.123-0.448-0.244-1.02-0.631-1.368l0.639-0.072c0.193,0.434,0.734,0.984,2.262,0.89c-0.121-0.348-0.244-0.775-0.506-1.09
			l0.602-0.068c0.172,0.437,0.689,1.021,2.248,0.923c-0.125-0.362-0.254-0.803-0.535-1.117l0.535-0.062
			c0.26,0.335,0.859,0.713,2.248,0.682c-0.143-0.278-0.293-0.617-0.568-0.876l0.588-0.065c0.201,0.289,0.752,0.697,2.275,0.62
			c-0.18-0.264-0.369-0.592-0.738-0.794l1.957-0.223c0.037,0.078,0.574,1.147,3.248,0.149c-0.611-0.478-1.363-1.245-3.211-0.182
			C84.443,17.186,74.369,16.539,69.768,19.118z M116.441,17.632v5.939c1.998-0.597,3.637-1.134,4.865-1.56
			C119.643,20.563,118.012,19.097,116.441,17.632z M130.25,25.03c0.414-0.604,4.125-5.992,5.752-8.359h-18.523
			c1.75,1.635,3.566,3.27,5.432,4.877c0.033,0.03,0.049,0.072,0.078,0.105c0.029,0.014,0.059,0.026,0.086,0.045
			c0.188,0.133,0.299,0.348,0.299,0.578v5.027c0.002,0.023,0.002,0.046,0.002,0.07v6.811h12.627l-5.75-8.357
			C130.086,25.588,130.086,25.272,130.25,25.03z M122.131,22.913c-2.563,0.926-7.719,2.639-14.805,4.285l1.068-27.197H27.743
			l1.004,27.215c-7.123-1.652-12.306-3.373-14.877-4.303v5.046h-0.001v18.166l1.328,0.555c0.16,0.067,5.515,2.247,14.431,4.392
			l0.955,25.877l37.482,14.05l37.3-13.851l1.025-26.08c8.906-2.143,14.256-4.32,14.416-4.388l1.328-0.555V27.959h-0.002V22.913z
			 M101.523,74.355L68.069,86.781l-33.64-12.613L31.838,3.952h72.453L101.523,74.355z M19.558,23.571v-5.939
			c-1.569,1.465-3.199,2.931-4.863,4.38C15.922,22.438,17.562,22.975,19.558,23.571z M-0.001,16.671
			c1.628,2.367,5.339,7.756,5.75,8.359c0.164,0.242,0.164,0.558,0,0.797l-5.75,8.357h12.627v-6.811c0-0.024,0-0.047,0.002-0.07
			v-5.027c0-0.23,0.111-0.445,0.299-0.578c0.027-0.019,0.056-0.031,0.086-0.045c0.026-0.033,0.044-0.075,0.078-0.105
			c1.864-1.607,3.682-3.242,5.431-4.877H-0.001z M77.141,66.92h14.873v-0.409H77.141V66.92z M77.141,65.542h9.004v-0.409h-9.004
			V65.542z M45.536,66.92h14.872v-0.409H45.536V66.92z M51.406,65.542h9.002v-0.409h-9.002V65.542z M63.121,65.435v-0.092
			c0-0.464-0.227-0.729-0.669-0.729s-0.67,0.265-0.67,0.729c0,0.828,0.889,0.94,0.889,1.537c0,0.207-0.091,0.281-0.235,0.281
			s-0.236-0.074-0.236-0.281v-0.207h-0.43v0.178c0,0.464,0.232,0.729,0.678,0.729c0.447,0,0.678-0.265,0.678-0.729
			c0-0.828-0.889-0.94-0.889-1.536c0-0.207,0.083-0.286,0.228-0.286c0.145,0,0.228,0.079,0.228,0.286v0.12H63.121z M63.385,64.647
			v2.898h0.455v-2.898H63.385z M65.609,64.647h-0.405v1.735l-0.467-1.735h-0.57v2.898h0.409v-2.1l0.566,2.1h0.467V64.647z
			 M67.254,65.625v-0.282c0-0.464-0.231-0.729-0.678-0.729c-0.447,0-0.678,0.265-0.678,0.729v1.508c0,0.464,0.231,0.729,0.678,0.729
			c0.446,0,0.678-0.265,0.678-0.729v-0.386h-0.43v0.415c0,0.207-0.091,0.281-0.236,0.281s-0.235-0.074-0.235-0.281v-1.565
			c0-0.207,0.091-0.286,0.235-0.286s0.236,0.079,0.236,0.286v0.311H67.254z M68.771,65.062v-0.414h-1.24v2.898h1.24v-0.414h-0.786
			v-0.849h0.624v-0.414h-0.624v-0.808H68.771z M70.369,64.614c-0.445,0-0.678,0.265-0.678,0.729v0.282h0.43v-0.311
			c0-0.207,0.092-0.286,0.236-0.286s0.236,0.07,0.236,0.331c0,0.837-0.902,0.978-0.902,1.831v0.355h1.314v-0.414h-0.859
			c-0.086-0.509,0.902-0.836,0.902-1.789C71.049,64.879,70.816,64.614,70.369,64.614z M71.982,67.579
			c0.445,0,0.689-0.265,0.689-0.729v-1.508c0-0.464-0.244-0.729-0.689-0.729c-0.447,0-0.691,0.265-0.691,0.729v1.508
			C71.291,67.314,71.535,67.579,71.982,67.579z M71.746,65.314c0-0.207,0.092-0.286,0.236-0.286s0.234,0.079,0.234,0.286v1.565
			c0,0.207-0.09,0.285-0.234,0.285s-0.236-0.078-0.236-0.285V65.314z M73.246,65.012v0.323h0.352v2.211h0.455v-2.898h-0.307
			C73.676,64.842,73.598,65.012,73.246,65.012z M75.816,67.546v-0.525h0.217v-0.414h-0.217v-1.959H75.32l-0.826,1.959v0.414h0.869
			v0.525H75.816z M74.912,66.606l0.451-1.073v1.073H74.912z M48.445,58.388h-1.577V42.179h1.225c0.326,0,0.632,0.093,0.918,0.278
			c0.286,0.185,0.429,0.604,0.429,1.26v12.177c0,0.776,0.14,1.435,0.42,1.975c0.28,0.54,0.715,0.811,1.304,0.811h1.555l-0.125-0.291
			c-0.332,0-0.644-0.09-0.934-0.27c-0.291-0.18-0.436-0.587-0.436-1.224v-12.15c0-1.382-0.567-2.322-1.701-2.819
			c1.134-0.472,1.701-1.316,1.701-2.535v-9.806c0-0.858-0.284-1.612-0.851-2.264c-0.567-0.65-1.321-0.977-2.261-0.977h-4.564v0.291
			h1.535v31.753h-1.535v0.291h4.896V58.388z M46.869,26.635h1.225c0.898,0,1.347,0.485,1.347,1.455v12.385
			c0,0.389-0.123,0.721-0.368,0.997c-0.245,0.277-0.572,0.416-0.979,0.416h-1.225V26.635z M54.295,58.305v0.291h7.967v-8.562H61.93
			c0,3.324-0.187,5.534-0.56,6.629c-0.374,1.095-1.197,1.642-2.469,1.642h-1.286l0.125-17.331c0.636,0,1.113,0.298,1.432,0.894
			c0.317,0.596,0.477,1.767,0.477,3.512h0.332v-9.102h-0.332c0,1.745-0.173,2.916-0.519,3.512c-0.346,0.596-0.851,0.894-1.515,0.894
			V26.635h1.286c1.3,0,2.13,0.54,2.49,1.621c0.359,1.08,0.54,3.298,0.54,6.649h0.332v-8.562h-7.967v0.291h1.535v31.67H54.295z
			 M63.506,34.905h0.291c0-3.324,0.187-5.534,0.56-6.629c0.374-1.094,1.21-1.642,2.51-1.642h0.54v31.67H65.83v0.291h4.938v-0.291
			h-1.576v-31.67h0.514c1.311,0,2.154,0.55,2.531,1.65c0.375,1.1,0.564,3.32,0.564,6.662h0.291v-8.604h-9.585V34.905z
			 M74.418,58.388v0.291h4.896v-0.291h-1.576V42.179h1.225c0.326,0,0.633,0.093,0.918,0.278c0.287,0.185,0.43,0.604,0.43,1.26
			v12.177c0,0.776,0.141,1.435,0.42,1.975c0.281,0.54,0.715,0.811,1.303,0.811h1.555l-0.123-0.291c-0.332,0-0.645-0.09-0.934-0.27
			c-0.291-0.18-0.436-0.587-0.436-1.224v-12.15c0-1.382-0.568-2.322-1.703-2.819c1.135-0.472,1.703-1.316,1.703-2.535v-9.806
			c0-0.858-0.285-1.612-0.852-2.264c-0.566-0.65-1.32-0.977-2.262-0.977h-4.564v0.291h1.535v31.753H74.418z M77.738,26.635h1.225
			c0.898,0,1.348,0.485,1.348,1.455v12.385c0,0.389-0.123,0.721-0.367,0.997c-0.246,0.277-0.572,0.416-0.98,0.416h-1.225V26.635z
			 M85.746,29.087v26.766c0,0.859,0.297,1.572,0.891,2.141c0.596,0.568,1.377,0.852,2.346,0.852c0.967,0,1.729-0.263,2.281-0.79
			c0.553-0.525,0.83-1.205,0.83-2.036V29.295c0-0.858-0.289-1.606-0.871-2.244c-0.58-0.638-1.328-0.956-2.24-0.956
			c-0.969,0-1.75,0.284-2.346,0.852C86.043,27.515,85.746,28.229,85.746,29.087z M87.529,27.836c0-0.414,0.135-0.759,0.402-1.035
			c0.27-0.277,0.619-0.415,1.049-0.415c0.887,0,1.33,0.483,1.33,1.45v29.268c0,0.414-0.121,0.759-0.363,1.036
			c-0.242,0.276-0.564,0.414-0.967,0.414c-0.484,0-0.846-0.138-1.088-0.414c-0.242-0.277-0.363-0.622-0.363-1.036V27.836z"/>
	</g>
</g>
</svg>
