<svg 
 xmlns="http://www.w3.org/2000/svg"
 xmlns:xlink="http://www.w3.org/1999/xlink"
 width="37px" height="37px">
<path fill-rule="evenodd"  stroke-width="1px" stroke="rgb(255, 255, 255)" fill-opacity="0" fill="rgb(240, 85, 114)"
 d="M18.500,3.500 C26.784,3.500 33.500,10.216 33.500,18.500 C33.500,26.784 26.784,33.500 18.500,33.500 C10.216,33.500 3.500,26.784 3.500,18.500 C3.500,10.216 10.216,3.500 18.500,3.500 Z"/>
<path fill-rule="evenodd"  fill="rgb(255, 255, 255)"
 d="M24.500,18.770 C24.275,17.458 23.655,16.265 22.710,15.321 C21.713,14.328 20.450,13.698 19.058,13.503 L19.199,12.500 C20.811,12.724 22.271,13.452 23.425,14.604 C24.519,15.700 25.237,17.080 25.500,18.600 L24.500,18.770 ZM21.612,16.366 C22.271,17.025 22.704,17.856 22.861,18.773 L21.862,18.943 C21.740,18.235 21.407,17.591 20.897,17.082 C20.358,16.544 19.676,16.206 18.925,16.100 L19.066,15.097 C20.036,15.232 20.916,15.670 21.612,16.366 ZM16.731,19.590 C17.424,20.440 18.207,21.194 19.142,21.781 C19.342,21.906 19.565,21.998 19.773,22.111 C19.879,22.170 19.952,22.152 20.039,22.062 C20.356,21.738 20.678,21.419 21.000,21.099 C21.423,20.680 21.954,20.680 22.379,21.099 C22.897,21.613 23.414,22.127 23.929,22.644 C24.359,23.077 24.357,23.607 23.923,24.045 C23.631,24.340 23.319,24.621 23.043,24.930 C22.639,25.381 22.135,25.528 21.556,25.495 C20.713,25.449 19.938,25.171 19.191,24.808 C17.530,24.002 16.110,22.885 14.921,21.472 C14.041,20.428 13.315,19.290 12.838,18.007 C12.605,17.388 12.440,16.752 12.491,16.079 C12.524,15.665 12.678,15.310 12.984,15.021 C13.315,14.707 13.626,14.380 13.951,14.061 C14.374,13.644 14.905,13.644 15.330,14.058 C15.593,14.315 15.850,14.577 16.110,14.837 C16.362,15.091 16.614,15.340 16.866,15.595 C17.311,16.041 17.311,16.560 16.869,17.004 C16.552,17.323 16.238,17.642 15.915,17.953 C15.831,18.037 15.823,18.105 15.867,18.208 C16.081,18.716 16.387,19.168 16.731,19.590 Z"/>
</svg>