<svg 
 xmlns="http://www.w3.org/2000/svg"
 xmlns:xlink="http://www.w3.org/1999/xlink"
 width="1791px" height="13px">
<defs>
<filter id="Filter_0">
    <feFlood flood-color="rgb(112, 112, 112)" flood-opacity="1" result="floodOut" />
    <feComposite operator="atop" in="floodOut" in2="SourceGraphic" result="compOut" />
    <feBlend mode="normal" in="compOut" in2="SourceGraphic" />
</filter>
<filter id="Filter_1">
    <feFlood flood-color="rgb(255, 200, 11)" flood-opacity="1" result="floodOut" />
    <feComposite operator="atop" in="floodOut" in2="SourceGraphic" result="compOut" />
    <feBlend mode="normal" in="compOut" in2="SourceGraphic" />
</filter>

</defs>
<g filter="url(#Filter_0)">
<path fill-rule="evenodd"  fill="rgb(240, 85, 114)"
 d="M1790.000,13.000 L1790.000,5.032 L1791.000,5.032 L1791.000,13.000 L1790.000,13.000 ZM1761.000,5.032 L1762.000,5.032 L1762.000,13.000 L1761.000,13.000 L1761.000,5.032 ZM1702.000,5.032 L1703.000,5.032 L1703.000,13.000 L1702.000,13.000 L1702.000,5.032 ZM1673.000,5.032 L1674.000,5.032 L1674.000,13.000 L1673.000,13.000 L1673.000,5.032 ZM1643.000,5.032 L1644.000,5.032 L1644.000,13.000 L1643.000,13.000 L1643.000,5.032 ZM1614.000,5.032 L1615.000,5.032 L1615.000,13.000 L1614.000,13.000 L1614.000,5.032 ZM1555.000,5.032 L1556.000,5.032 L1556.000,13.000 L1555.000,13.000 L1555.000,5.032 ZM1526.000,5.032 L1527.000,5.032 L1527.000,13.000 L1526.000,13.000 L1526.000,5.032 ZM1497.000,5.032 L1498.000,5.032 L1498.000,13.000 L1497.000,13.000 L1497.000,5.032 ZM1467.000,5.032 L1468.000,5.032 L1468.000,13.000 L1467.000,13.000 L1467.000,5.032 ZM1409.000,5.032 L1410.000,5.032 L1410.000,13.000 L1409.000,13.000 L1409.000,5.032 ZM1379.000,5.032 L1380.000,5.032 L1380.000,13.000 L1379.000,13.000 L1379.000,5.032 ZM1350.000,5.032 L1351.000,5.032 L1351.000,13.000 L1350.000,13.000 L1350.000,5.032 ZM1320.000,5.032 L1321.000,5.032 L1321.000,13.000 L1320.000,13.000 L1320.000,5.032 ZM1262.000,5.032 L1263.000,5.032 L1263.000,13.000 L1262.000,13.000 L1262.000,5.032 ZM1232.000,5.032 L1233.000,5.032 L1233.000,13.000 L1232.000,13.000 L1232.000,5.032 ZM1203.000,5.032 L1204.000,5.032 L1204.000,13.000 L1203.000,13.000 L1203.000,5.032 ZM1174.000,5.032 L1175.000,5.032 L1175.000,13.000 L1174.000,13.000 L1174.000,5.032 ZM1115.000,5.032 L1116.000,5.032 L1116.000,13.000 L1115.000,13.000 L1115.000,5.032 ZM1086.000,5.032 L1087.000,5.032 L1087.000,13.000 L1086.000,13.000 L1086.000,5.032 ZM1056.000,5.032 L1057.000,5.032 L1057.000,13.000 L1056.000,13.000 L1056.000,5.032 ZM1027.000,5.032 L1028.000,5.032 L1028.000,13.000 L1027.000,13.000 L1027.000,5.032 ZM968.000,5.032 L969.000,5.032 L969.000,13.000 L968.000,13.000 L968.000,5.032 ZM939.000,5.032 L940.000,5.032 L940.000,13.000 L939.000,13.000 L939.000,5.032 ZM910.000,5.032 L911.000,5.032 L911.000,13.000 L910.000,13.000 L910.000,5.032 ZM880.000,5.032 L881.000,5.032 L881.000,13.000 L880.000,13.000 L880.000,5.032 ZM822.000,5.032 L823.000,5.032 L823.000,13.000 L822.000,13.000 L822.000,5.032 ZM792.000,5.032 L793.000,5.032 L793.000,13.000 L792.000,13.000 L792.000,5.032 ZM763.000,5.032 L764.000,5.032 L764.000,13.000 L763.000,13.000 L763.000,5.032 ZM734.000,5.032 L735.000,5.032 L735.000,13.000 L734.000,13.000 L734.000,5.032 ZM675.000,5.032 L676.000,5.032 L676.000,13.000 L675.000,13.000 L675.000,5.032 ZM646.000,5.032 L647.000,5.032 L647.000,13.000 L646.000,13.000 L646.000,5.032 ZM616.000,5.032 L617.000,5.032 L617.000,13.000 L616.000,13.000 L616.000,5.032 ZM587.000,5.032 L588.000,5.032 L588.000,13.000 L587.000,13.000 L587.000,5.032 ZM528.000,5.032 L529.000,5.032 L529.000,13.000 L528.000,13.000 L528.000,5.032 ZM499.000,5.032 L500.000,5.032 L500.000,13.000 L499.000,13.000 L499.000,5.032 ZM470.000,5.032 L471.000,5.032 L471.000,13.000 L470.000,13.000 L470.000,5.032 ZM440.000,5.032 L441.000,5.032 L441.000,13.000 L440.000,13.000 L440.000,5.032 ZM381.000,5.032 L382.000,5.032 L382.000,13.000 L381.000,13.000 L381.000,5.032 ZM352.000,5.032 L353.000,5.032 L353.000,13.000 L352.000,13.000 L352.000,5.032 ZM323.000,5.032 L324.000,5.032 L324.000,13.000 L323.000,13.000 L323.000,5.032 ZM293.000,5.032 L294.000,5.032 L294.000,13.000 L293.000,13.000 L293.000,5.032 ZM235.000,5.032 L236.000,5.032 L236.000,13.000 L235.000,13.000 L235.000,5.032 ZM205.000,5.032 L206.000,5.032 L206.000,13.000 L205.000,13.000 L205.000,5.032 ZM176.000,5.032 L177.000,5.032 L177.000,13.000 L176.000,13.000 L176.000,5.032 ZM147.000,5.032 L148.000,5.032 L148.000,13.000 L147.000,13.000 L147.000,5.032 ZM88.000,5.032 L89.000,5.032 L89.000,13.000 L88.000,13.000 L88.000,5.032 ZM59.000,5.032 L60.000,5.032 L60.000,13.000 L59.000,13.000 L59.000,5.032 ZM29.000,5.032 L30.000,5.032 L30.000,13.000 L29.000,13.000 L29.000,5.032 ZM-0.000,5.032 L1.000,5.032 L1.000,13.000 L-0.000,13.000 L-0.000,5.032 Z"/>
</g>
<g filter="url(#Filter_1)">
<path fill-rule="evenodd"  fill="rgb(240, 85, 114)"
 d="M1731.000,13.000 L1731.000,-0.000 L1732.000,-0.000 L1732.000,13.000 L1731.000,13.000 ZM1585.000,-0.000 L1586.000,-0.000 L1586.000,13.000 L1585.000,13.000 L1585.000,-0.000 ZM1438.000,-0.000 L1439.000,-0.000 L1439.000,13.000 L1438.000,13.000 L1438.000,-0.000 ZM1291.000,-0.000 L1292.000,-0.000 L1292.000,13.000 L1291.000,13.000 L1291.000,-0.000 ZM1144.000,-0.000 L1145.000,-0.000 L1145.000,13.000 L1144.000,13.000 L1144.000,-0.000 ZM998.000,-0.000 L999.000,-0.000 L999.000,13.000 L998.000,13.000 L998.000,-0.000 ZM851.000,-0.000 L852.000,-0.000 L852.000,13.000 L851.000,13.000 L851.000,-0.000 ZM704.000,-0.000 L705.000,-0.000 L705.000,13.000 L704.000,13.000 L704.000,-0.000 ZM558.000,-0.000 L559.000,-0.000 L559.000,13.000 L558.000,13.000 L558.000,-0.000 ZM411.000,-0.000 L412.000,-0.000 L412.000,13.000 L411.000,13.000 L411.000,-0.000 ZM264.000,-0.000 L265.000,-0.000 L265.000,13.000 L264.000,13.000 L264.000,-0.000 ZM117.000,-0.000 L118.000,-0.000 L118.000,13.000 L117.000,13.000 L117.000,-0.000 Z"/>
</g>
</svg>