<svg 
 xmlns="http://www.w3.org/2000/svg"
 xmlns:xlink="http://www.w3.org/1999/xlink"
 width="37px" height="37px">
<path fill-rule="evenodd"  stroke-width="1px" stroke="rgb(255, 255, 255)" fill-opacity="0" fill="rgb(240, 85, 114)"
 d="M18.500,3.500 C26.784,3.500 33.500,10.216 33.500,18.500 C33.500,26.784 26.784,33.500 18.500,33.500 C10.216,33.500 3.500,26.784 3.500,18.500 C3.500,10.216 10.216,3.500 18.500,3.500 Z"/>
<path fill-rule="evenodd"  fill="rgb(255, 255, 255)"
 d="M25.498,21.831 C25.498,22.123 25.412,22.394 25.273,22.632 L20.853,17.922 L25.226,14.279 C25.396,14.536 25.498,14.838 25.498,15.164 L25.498,21.831 ZM18.498,18.777 L24.582,13.707 C24.333,13.577 24.051,13.497 23.748,13.497 L13.248,13.497 C12.944,13.497 12.663,13.577 12.415,13.707 L18.498,18.777 ZM20.194,18.470 L18.786,19.645 C18.704,19.713 18.601,19.747 18.498,19.747 C18.395,19.747 18.293,19.713 18.210,19.645 L16.802,18.470 L12.325,23.241 C12.594,23.401 12.908,23.497 13.248,23.497 L23.748,23.497 C24.088,23.497 24.403,23.401 24.671,23.241 L20.194,18.470 ZM11.771,14.279 C11.601,14.536 11.498,14.838 11.498,15.164 L11.498,21.831 C11.498,22.123 11.584,22.394 11.723,22.632 L16.143,17.921 L11.771,14.279 Z"/>
</svg>