<?xml version="1.0" encoding="utf-8"?>
<!-- Generator: Adobe Illustrator 16.0.0, SVG Export Plug-In . SVG Version: 6.00 Build 0)  -->
<!DOCTYPE svg PUBLIC "-//W3C//DTD SVG 1.1//EN" "http://www.w3.org/Graphics/SVG/1.1/DTD/svg11.dtd">
<svg version="1.1" id="Layer_1" xmlns="http://www.w3.org/2000/svg" xmlns:xlink="http://www.w3.org/1999/xlink" x="0px" y="0px"
	 width="78px" height="29.6px" viewBox="0 0 78 29.6" enable-background="new 0 0 78 29.6" xml:space="preserve">
<g>
	<g>
		<path fill="#ffffff" d="M8.1,8.28c0-0.986,0.286-1.853,0.86-2.6c0.573-0.746,1.46-1.12,2.66-1.12c0.96,0,1.906,0.187,2.84,0.56
			c0.933,0.374,1.746,0.867,2.44,1.48l2.12-4c-1.12-0.746-2.314-1.366-3.58-1.86C14.173,0.247,12.779,0,11.26,0
			C9.926,0,8.732,0.227,7.68,0.68C6.625,1.134,5.732,1.74,5,2.5c-0.734,0.76-1.294,1.66-1.68,2.7C2.933,6.24,2.74,7.333,2.74,8.48
			v1.28h-2.76v4.08h2.76V29.6H8.1V13.84h5.88V29.6h5.36V9.76H8.1V8.28z M43.02,8.64H37.5l-4.48,6.56l-0.4,0.72l-0.32-0.72
			l-4.52-6.56h-5.48l7.441,10.52L22.18,29.6h5.52l4.6-6.521l0.32-0.68l0.36,0.68l4.64,6.521h5.521l-7.601-10.44L43.02,8.64z
			 M76.939,23.92c-0.32,0.133-0.747,0.293-1.279,0.479c-0.535,0.187-1.08,0.28-1.641,0.28s-1.033-0.153-1.42-0.461
			c-0.387-0.306-0.58-0.832-0.58-1.579v-10.24h4.4v-4.12h-4.4v-6.8H66.66v6.8h-2.761v4.12h2.761v12.04
			c0,0.934,0.146,1.727,0.439,2.38c0.293,0.653,0.686,1.187,1.18,1.601c0.493,0.413,1.066,0.713,1.721,0.899
			c0.652,0.187,1.353,0.28,2.1,0.28c1.146,0,2.24-0.16,3.279-0.48c1.041-0.32,1.92-0.64,2.641-0.959L76.939,23.92z"/>
	</g>
</g>
<path fill-rule="evenodd" clip-rule="evenodd" fill="#18B870" d="M58.899,7.665h-4l-2.001-3.534l2.001-3.534h4l2,3.534L58.899,7.665
	z M56.911,1.352c-1.484,0-2.691,1.212-2.691,2.704c0,1.491,1.207,2.704,2.691,2.704s2.691-1.213,2.691-2.704
	C59.603,2.564,58.396,1.352,56.911,1.352z M56.911,6.465c-1.322,0-2.398-1.081-2.398-2.409c0-1.329,1.076-2.41,2.398-2.41
	s2.398,1.081,2.398,2.41C59.31,5.384,58.233,6.465,56.911,6.465z M56.911,2.258c-0.988,0-1.789,0.805-1.789,1.798
	c0,0.992,0.801,1.797,1.789,1.797S58.7,5.048,58.7,4.056C58.7,3.063,57.899,2.258,56.911,2.258z M60.838,11.633h-2.269v1.986
	l1.135-0.457v0.381l-1.135,0.459v1.146l1.135-0.459v0.382l-1.135,0.458v1.146l1.135-0.459V16.6l-1.135,0.459v1.145l1.135-0.457
	v0.381l-1.135,0.459v1.146l1.135-0.459v0.383l-1.135,0.459v1.145l1.135-0.457v0.381l-1.135,0.459v1.146l1.135-0.459v0.383
	l-1.135,0.459v4.697l-1.654,1.73l-1.748-1.73v-3.322l-1.135,0.457v-0.381l1.135-0.459v-1.146l-1.135,0.459v-0.383l1.135-0.459V21.49
	l-1.135,0.457v-0.381l1.135-0.459v-1.145l-1.135,0.457v-0.383l1.135-0.459v-1.145l-1.135,0.457V18.51l1.135-0.459v-1.145
	l-1.135,0.457v-0.381l1.135-0.459v-1.146l-1.135,0.459v-0.383l1.135-0.458v-3.362h-2.269v-1.528h7.939V11.633z"/>
</svg>
