<?xml version="1.0" encoding="utf-8"?>
<!-- Generator: Adobe Illustrator 16.0.0, SVG Export Plug-In . SVG Version: 6.00 Build 0)  -->
<!DOCTYPE svg PUBLIC "-//W3C//DTD SVG 1.1//EN" "http://www.w3.org/Graphics/SVG/1.1/DTD/svg11.dtd">
<svg version="1.1" id="Layer_1" xmlns="http://www.w3.org/2000/svg" xmlns:xlink="http://www.w3.org/1999/xlink" x="0px" y="0px"
	 width="176px" height="175px" viewBox="0 0 176 175" enable-background="new 0 0 176 175" xml:space="preserve">
<path fill="#FFFFFF" d="M171.849,91h-5.812V30.729c0-10.448-2.553-18.412-7.586-23.669
	C153.966,2.376,147.771,0,140.041,0c-13.783,0-25.071,10.93-25.73,24.612c-7.803,1.381-14.273,6.689-16.734,14.073
	c-0.9,2.697-0.604,5.371,0.809,7.332c1.006,1.396,3.018,3.057,6.891,3.057h27.371c3.33,0,5.061-1.703,5.797-2.72
	c2.009-2.778,1.182-6.245,0.733-7.606c-2.424-7.355-8.812-12.66-16.548-14.102c0.629-9.119,8.195-16.344,17.412-16.344
	c11.906,0,17.694,7.336,17.694,22.426v60.271H4.151C1.859,90.999,0,92.859,0,95.151s1.859,4.151,4.151,4.151h4.981v29.971
	c0,12.88,9.32,23.637,21.62,25.996c-0.93,1.84-1.458,3.918-1.458,6.117c0,7.506,6.107,13.613,13.613,13.613
	c7.507,0,13.614-6.107,13.614-13.613c0-2.008-0.44-3.914-1.224-5.632h64.96c-0.784,1.718-1.224,3.625-1.224,5.632
	c0,7.506,6.106,13.613,13.612,13.613c7.507,0,13.613-6.107,13.613-13.613c0-2.207-0.531-4.291-1.468-6.137
	c12.096-2.402,21.246-13.134,21.246-25.975v-29.144v-0.829h5.813c2.291,0,4.15-1.858,4.15-4.15C176,92.859,174.141,91,171.849,91z
	 M131.086,40.773h-25.44c1.911-4.938,6.948-8.217,12.721-8.217C124.051,32.557,129.189,35.906,131.086,40.773z M42.907,166.697
	c-2.928,0-5.311-2.383-5.311-5.311c0-2.929,2.383-5.313,5.311-5.313c2.929,0,5.312,2.384,5.312,5.313
	C48.218,164.314,45.836,166.697,42.907,166.697z M132.646,166.697c-2.929,0-5.312-2.383-5.312-5.311
	c0-2.929,2.383-5.313,5.312-5.313s5.312,2.384,5.312,5.313C137.957,164.314,135.574,166.697,132.646,166.697z M157.735,100.132
	v29.144c0,10.022-8.104,18.178-18.067,18.178H35.828c-10.143,0-18.394-8.155-18.394-18.178V99.303h140.301V100.132z"/>
<path fill="#FFFFFF" d="M117.679,63.396c2.179,0,3.943-1.766,3.943-3.943v-1.66c0-2.178-1.765-3.943-3.943-3.943
	c-2.178,0-3.943,1.766-3.943,3.943v1.66C113.735,61.631,115.501,63.396,117.679,63.396z"/>
<path fill="#FFFFFF" d="M113.735,71.076c0,2.178,1.766,3.943,3.943,3.943c2.179,0,3.943-1.766,3.943-3.943v-1.661
	c0-2.178-1.765-3.942-3.943-3.942c-2.178,0-3.943,1.765-3.943,3.942V71.076z"/>
<path fill="#FFFFFF" d="M113.735,83.529c0,2.178,1.766,3.943,3.943,3.943c2.179,0,3.943-1.766,3.943-3.943v-2.076
	c0-2.178-1.765-3.943-3.943-3.943c-2.178,0-3.943,1.766-3.943,3.943V83.529z"/>
<path fill="#FFFFFF" d="M105.023,63.769c0.443,0.161,0.896,0.237,1.342,0.237c1.614,0,3.127-0.998,3.709-2.602
	l0.497-1.373c0.741-2.048-0.317-4.309-2.364-5.051c-2.049-0.74-4.309,0.318-5.051,2.364l-0.498,1.373
	C101.917,60.766,102.977,63.027,105.023,63.769z"/>
<path fill="#FFFFFF" d="M99.18,68.322l-0.498,1.371c-0.742,2.048,0.316,4.309,2.363,5.051
	c0.443,0.161,0.897,0.238,1.344,0.238c1.612,0,3.126-0.997,3.707-2.602l0.498-1.37c0.742-2.05-0.316-4.311-2.363-5.054
	C102.183,65.216,99.922,66.273,99.18,68.322z"/>
<path fill="#FFFFFF" d="M96.902,86.179c0.443,0.16,0.897,0.236,1.344,0.236c1.612,0,3.127-0.997,3.707-2.602
	l0.497-1.372c0.741-2.047-0.316-4.309-2.364-5.05c-2.049-0.743-4.309,0.316-5.051,2.363l-0.496,1.372
	C93.797,83.175,94.855,85.437,96.902,86.179z"/>
<path fill="#FFFFFF" d="M133.086,57.346c-0.741-2.047-3-3.106-5.051-2.365c-2.047,0.742-3.105,3.003-2.364,5.052
	l0.497,1.372c0.58,1.604,2.095,2.602,3.708,2.602c0.445,0,0.899-0.076,1.343-0.237c2.047-0.741,3.105-3.002,2.364-5.05
	L133.086,57.346z"/>
<path fill="#FFFFFF" d="M137.063,68.322c-0.741-2.047-3.003-3.107-5.051-2.365c-2.048,0.743-3.106,3.003-2.364,5.053
	l0.497,1.371c0.581,1.604,2.095,2.602,3.708,2.602c0.445,0,0.899-0.076,1.343-0.236c2.048-0.742,3.105-3.003,2.364-5.052
	L137.063,68.322z"/>
<path fill="#FFFFFF" d="M133.791,82.442l0.498,1.372c0.581,1.604,2.094,2.602,3.707,2.602
	c0.446,0,0.9-0.078,1.344-0.237c2.048-0.742,3.105-3.005,2.363-5.052l-0.498-1.372c-0.742-2.047-3.002-3.105-5.051-2.362
	C134.107,78.134,133.049,80.396,133.791,82.442z"/>
</svg>
