<?xml version="1.0" encoding="utf-8"?>
<!-- Generator: Adobe Illustrator 16.0.0, SVG Export Plug-In . SVG Version: 6.00 Build 0)  -->
<!DOCTYPE svg PUBLIC "-//W3C//DTD SVG 1.1//EN" "http://www.w3.org/Graphics/SVG/1.1/DTD/svg11.dtd">
<svg version="1.1" id="Layer_1" xmlns="http://www.w3.org/2000/svg" xmlns:xlink="http://www.w3.org/1999/xlink" x="0px" y="0px"
	 width="176px" height="175px" viewBox="0 0 176 175" enable-background="new 0 0 176 175" xml:space="preserve">
<path fill="#FFFFFF" d="M135.148,90.657l-31.43-82.159C101.744,3.336,96.908,0,91.401,0S81.06,3.336,79.084,8.498
	l-31.43,82.159c-0.419,1.095-0.274,2.327,0.387,3.295c0.662,0.966,1.755,1.543,2.923,1.543h36.891v17.329H75.737
	c-1.959,0-3.547,1.594-3.547,3.562v39.481c0,10.55,8.548,19.133,19.055,19.133h0.313c10.506,0,19.055-8.583,19.055-19.133v-11.955
	v-14.468v-13.059c0-1.968-1.588-3.562-3.547-3.562H94.948V95.496h6.068c1.959,0,3.547-1.595,3.547-3.562
	c0-1.966-1.588-3.562-3.547-3.562H56.126l29.58-77.32c1.109-2.897,3.669-3.93,5.696-3.93s4.587,1.032,5.696,3.93l31.43,82.159
	c0.543,1.416,1.887,2.284,3.313,2.284c0.422,0,0.852-0.075,1.271-0.236C134.938,94.554,135.852,92.493,135.148,90.657z
	 M91.559,167.878h-0.313c-6.596,0-11.961-5.388-11.961-12.011v-8.393h24.236v8.393C103.52,162.49,98.153,167.878,91.559,167.878z
	 M103.52,125.882H90.299c-1.959,0-3.547,1.595-3.547,3.563c0,1.966,1.588,3.56,3.547,3.56h13.221v7.348H79.284v-20.404h24.236
	V125.882z"/>
</svg>
