<?xml version="1.0" encoding="utf-8"?>
<!-- Generator: Adobe Illustrator 16.0.0, SVG Export Plug-In . SVG Version: 6.00 Build 0)  -->
<!DOCTYPE svg PUBLIC "-//W3C//DTD SVG 1.1//EN" "http://www.w3.org/Graphics/SVG/1.1/DTD/svg11.dtd">
<svg version="1.1" id="Layer_1" xmlns="http://www.w3.org/2000/svg" xmlns:xlink="http://www.w3.org/1999/xlink" x="0px" y="0px"
	 width="10px" height="12px" viewBox="0 0 10 12" enable-background="new 0 0 10 12" xml:space="preserve">
<g>
	<g>
		<path fill="#949494" d="M5,6.393c1.849,0,2.514-1.778,2.688-3.238C7.902,1.354,7.017,0,5,0S2.098,1.354,2.313,3.154
			C2.486,4.614,3.151,6.393,5,6.393z M9.808,8.933C9.683,8.257,9.524,7.266,8.91,6.825C8.555,6.57,8.095,6.486,7.688,6.333
			C7.49,6.258,7.313,6.184,7.146,6.1C6.585,6.691,5.853,7.001,5,7.001S3.415,6.691,2.854,6.1C2.687,6.184,2.51,6.258,2.312,6.333
			C1.905,6.486,1.445,6.57,1.09,6.825c-0.614,0.44-0.772,1.432-0.897,2.107C0.089,9.49,0.021,10.06,0,10.626
			c-0.016,0.439,0.21,0.5,0.592,0.634c0.479,0.166,0.974,0.288,1.471,0.39C3.023,11.844,4.014,11.994,5,12.001
			c0.986-0.007,1.977-0.157,2.938-0.352c0.497-0.102,0.991-0.224,1.47-0.39c0.383-0.134,0.608-0.194,0.593-0.634
			C9.979,10.06,9.911,9.49,9.808,8.933z"/>
	</g>
</g>
</svg>
