<?xml version="1.0" encoding="utf-8"?>
<!-- Generator: Adobe Illustrator 16.0.0, SVG Export Plug-In . SVG Version: 6.00 Build 0)  -->
<!DOCTYPE svg PUBLIC "-//W3C//DTD SVG 1.1//EN" "http://www.w3.org/Graphics/SVG/1.1/DTD/svg11.dtd">
<svg version="1.1" id="Layer_1" xmlns="http://www.w3.org/2000/svg" xmlns:xlink="http://www.w3.org/1999/xlink" x="0px" y="0px"
	 width="13px" height="12px" viewBox="0 0 13 12" enable-background="new 0 0 13 12" xml:space="preserve">
<g>
	<g>
		<path fill="#949494" d="M7.198,10.645c-0.294,0.053-0.596,0.08-0.904,0.08c-2.733,0-4.955-2.121-4.955-4.725
			c0-2.604,2.222-4.724,4.955-4.724c2.732,0,4.954,2.119,4.954,4.724c0,0.038,0,0.076-0.001,0.113
			c0.022-0.003,0.044-0.004,0.067-0.004c0.303,0,0.563,0.18,0.668,0.434h0.008c0.198,0,0.388,0.038,0.561,0.107
			c0.023-0.214,0.037-0.431,0.037-0.65c0-3.308-2.824-6-6.294-6C2.823,0,0,2.692,0,6c0,3.309,2.823,6,6.294,6
			c0.458,0,0.903-0.047,1.334-0.137c-0.266-0.252-0.43-0.6-0.43-0.984V10.645z M5.624,2.962V5.6H3.883
			c-0.369,0-0.669,0.285-0.669,0.639c0,0.352,0.3,0.638,0.669,0.638h2.411c0.37,0,0.669-0.286,0.669-0.638V2.962
			c0-0.354-0.299-0.639-0.669-0.639S5.624,2.609,5.624,2.962z M9.697,7.604c0-0.084-0.031-0.168-0.088-0.232V6.794
			c0-0.154-0.132-0.28-0.295-0.28H9.309c-0.162,0-0.293,0.126-0.293,0.28v0.577c-0.059,0.066-0.09,0.148-0.09,0.232
			c0,0.201,0.172,0.365,0.387,0.365h0.002C9.525,7.969,9.697,7.805,9.697,7.604z M10.597,7.371V6.794c0-0.154-0.132-0.28-0.294-0.28
			s-0.295,0.126-0.295,0.28v0.577C9.951,7.438,9.92,7.52,9.92,7.604c0,0.201,0.172,0.365,0.383,0.365s0.383-0.164,0.383-0.365
			C10.686,7.52,10.654,7.438,10.597,7.371z M11.29,6.514c-0.162,0-0.294,0.126-0.294,0.28v0.577
			c-0.058,0.064-0.089,0.148-0.089,0.232c0,0.201,0.172,0.365,0.383,0.365s0.382-0.164,0.382-0.365c0-0.084-0.031-0.166-0.088-0.232
			V6.794C11.584,6.64,11.452,6.514,11.29,6.514z M11.965,6.947h-0.108v0.561h0.108c0.246,0,0.447,0.191,0.447,0.426v2.945
			c0,0.236-0.201,0.426-0.447,0.426H8.633c-0.246,0-0.445-0.189-0.445-0.426V7.934c0-0.234,0.199-0.426,0.445-0.426h0.109V6.947
			H8.633c-0.57,0-1.034,0.443-1.034,0.986v2.945c0,0.545,0.464,0.986,1.034,0.986h3.332c0.57,0,1.035-0.441,1.035-0.986V7.934
			C13,7.391,12.535,6.947,11.965,6.947z M9.019,9.264c-0.212,0-0.384,0.164-0.384,0.365s0.172,0.367,0.384,0.367
			S9.402,9.83,9.402,9.629S9.23,9.264,9.019,9.264z M10.299,9.264c-0.211,0-0.383,0.164-0.383,0.365s0.172,0.367,0.383,0.367
			c0.213,0,0.385-0.166,0.385-0.367S10.512,9.264,10.299,9.264z M11.58,9.264c-0.211,0-0.383,0.164-0.383,0.365
			s0.172,0.367,0.383,0.367c0.212,0,0.385-0.166,0.385-0.367S11.792,9.264,11.58,9.264z M9.019,10.244
			c-0.212,0-0.384,0.164-0.384,0.365c0,0.203,0.172,0.367,0.384,0.367s0.384-0.164,0.384-0.367
			C9.402,10.408,9.23,10.244,9.019,10.244z M10.299,10.244c-0.211,0-0.383,0.164-0.383,0.365c0,0.203,0.172,0.367,0.383,0.367
			c0.213,0,0.385-0.164,0.385-0.367C10.684,10.408,10.512,10.244,10.299,10.244z M11.58,10.244c-0.211,0-0.383,0.164-0.383,0.365
			c0,0.203,0.172,0.367,0.383,0.367c0.212,0,0.385-0.164,0.385-0.367C11.965,10.408,11.792,10.244,11.58,10.244z M11.58,8.281
			c-0.211,0-0.383,0.164-0.383,0.367c0,0.201,0.172,0.365,0.383,0.365c0.212,0,0.385-0.164,0.385-0.365
			C11.965,8.445,11.792,8.281,11.58,8.281z"/>
	</g>
</g>
</svg>
