<?xml version="1.0" encoding="utf-8"?>
<!-- Generator: Adobe Illustrator 16.0.0, SVG Export Plug-In . SVG Version: 6.00 Build 0)  -->
<!DOCTYPE svg PUBLIC "-//W3C//DTD SVG 1.1//EN" "http://www.w3.org/Graphics/SVG/1.1/DTD/svg11.dtd">
<svg version="1.1" id="Layer_1" xmlns="http://www.w3.org/2000/svg" xmlns:xlink="http://www.w3.org/1999/xlink" x="0px" y="0px"
	 width="22px" height="23px" viewBox="0 0 22 23" enable-background="new 0 0 22 23" xml:space="preserve">
<g>
	<g>
		<path fill="#36434D" d="M7.74,0.741c-0.234,0-0.454,0.115-0.592,0.307C6.855,1.455,0,11.053,0,15.164C0,19.484,3.473,23,7.74,23
			c4.27,0,7.742-3.516,7.742-7.836c0-4.111-6.856-13.709-7.148-14.117C8.196,0.856,7.976,0.741,7.74,0.741z M7.74,21.516
			c-3.459,0-6.274-2.85-6.274-6.352c0-2.74,4.095-9.24,6.274-12.4c2.182,3.16,6.276,9.66,6.276,12.4
			C14.017,18.666,11.201,21.516,7.74,21.516z M4.076,15.09c0-0.41-0.328-0.742-0.733-0.742S2.609,14.68,2.609,15.09
			c0,2.84,2.283,5.148,5.088,5.148c0.404,0,0.732-0.332,0.732-0.742c0-0.408-0.328-0.742-0.732-0.742
			C5.7,18.754,4.076,17.111,4.076,15.09z M18.557,0.305C18.418,0.114,18.197,0,17.963,0s-0.455,0.113-0.592,0.305
			c-0.576,0.801-3.443,4.896-3.443,6.885c0,2.252,1.81,4.085,4.035,4.085S22,9.442,22,7.19C22,5.202,19.131,1.106,18.557,0.305z
			 M17.963,9.792c-1.416,0-2.57-1.168-2.57-2.602c0-0.992,1.399-3.406,2.57-5.154c1.172,1.748,2.57,4.162,2.57,5.154
			C20.533,8.624,19.381,9.792,17.963,9.792z"/>
	</g>
</g>
</svg>
