<?xml version="1.0" encoding="utf-8"?>
<!-- Generator: Adobe Illustrator 16.0.0, SVG Export Plug-In . SVG Version: 6.00 Build 0)  -->
<!DOCTYPE svg PUBLIC "-//W3C//DTD SVG 1.1//EN" "http://www.w3.org/Graphics/SVG/1.1/DTD/svg11.dtd">
<svg version="1.1" id="Layer_1" xmlns="http://www.w3.org/2000/svg" xmlns:xlink="http://www.w3.org/1999/xlink" x="0px" y="0px"
	 width="29px" height="22.968px" viewBox="0 0 29 22.968" enable-background="new 0 0 29 22.968" xml:space="preserve">
<path fill="#36434D" d="M28.702,5.736c-0.265-0.194-0.627-0.192-0.888,0.004l-7.631,5.699L15.176,0.368
	c-0.238-0.522-1.111-0.522-1.349,0L8.76,11.566L1.195,5.746c-0.261-0.2-0.627-0.206-0.893-0.014C0.035,5.925-0.066,6.27,0.054,6.57
	L5.31,19.857c0.109,0.277,0.382,0.46,0.686,0.46h17.009c0.306,0,0.577-0.181,0.687-0.46L28.947,6.57
	C29.065,6.27,28.965,5.929,28.702,5.736z M22.5,18.876h-16L2.396,8.503l6.198,4.768c0.178,0.139,0.41,0.188,0.633,0.133
	c0.221-0.053,0.404-0.203,0.497-0.408l4.777-10.557l4.713,10.42c0.092,0.201,0.271,0.352,0.49,0.405
	c0.219,0.057,0.451,0.009,0.631-0.126l6.297-4.703L22.5,18.876z M23.665,22.249c0,0.398-0.33,0.72-0.737,0.72H6.071
	c-0.406,0-0.736-0.321-0.736-0.72c0-0.397,0.33-0.72,0.736-0.72h16.856C23.336,21.529,23.665,21.851,23.665,22.249z"/>
</svg>
