<?xml version="1.0" encoding="utf-8"?>
<!-- Generator: Adobe Illustrator 16.0.0, SVG Export Plug-In . SVG Version: 6.00 Build 0)  -->
<!DOCTYPE svg PUBLIC "-//W3C//DTD SVG 1.1//EN" "http://www.w3.org/Graphics/SVG/1.1/DTD/svg11.dtd">
<svg version="1.1" id="Layer_1" xmlns="http://www.w3.org/2000/svg" xmlns:xlink="http://www.w3.org/1999/xlink" x="0px" y="0px"
	 width="29px" height="22.968px" viewBox="0 0 29 22.968" enable-background="new 0 0 29 22.968" xml:space="preserve">
<path fill="#36434D" d="M25.879,4.77c-1.205-1.473-2.842-2.636-4.912-3.49C18.898,0.426,16.639,0,14.188,0s-4.711,0.426-6.78,1.28
	C5.338,2.134,3.701,3.296,2.495,4.77C1.29,6.243,0.688,7.847,0.688,9.584c0,1.497,0.454,2.901,1.363,4.208
	c0.909,1.309,2.152,2.406,3.729,3.295c-0.11,0.399-0.241,0.779-0.392,1.139c-0.151,0.359-0.287,0.654-0.407,0.884
	s-0.284,0.483-0.489,0.763c-0.207,0.28-0.362,0.478-0.468,0.592c-0.104,0.115-0.278,0.305-0.52,0.57
	c-0.241,0.264-0.397,0.436-0.468,0.517c-0.01,0.005-0.05,0.049-0.119,0.134c-0.07,0.085-0.106,0.127-0.106,0.127l-0.091,0.136
	c-0.049,0.075-0.072,0.122-0.067,0.142c0.005,0.021-0.005,0.07-0.03,0.15s-0.021,0.139,0.008,0.18v0.015
	c0.041,0.169,0.121,0.307,0.241,0.411c0.12,0.105,0.257,0.158,0.407,0.158h0.075c0.653-0.08,1.226-0.191,1.718-0.33
	c2.631-0.668,4.941-1.877,6.931-3.625c0.753,0.08,1.481,0.121,2.185,0.121c2.451,0,4.711-0.428,6.779-1.281
	c2.07-0.854,3.707-2.017,4.912-3.489c1.205-1.472,1.809-3.077,1.809-4.814S27.084,6.243,25.879,4.77z M24.184,13.404
	c-1.049,1.178-2.466,2.113-4.248,2.808c-1.783,0.693-3.699,1.04-5.748,1.04c-0.613,0-1.266-0.039-1.959-0.119l-0.859-0.09
	l-0.647,0.568c-1.235,1.079-2.616,1.934-4.144,2.563c0.462-0.809,0.814-1.668,1.055-2.576l0.407-1.438l-1.312-0.748
	c-1.305-0.739-2.317-1.615-3.035-2.628c-0.719-1.014-1.078-2.08-1.078-3.198c0-1.368,0.525-2.64,1.575-3.819
	c1.05-1.178,2.466-2.114,4.249-2.808c1.783-0.694,3.699-1.042,5.748-1.042s3.965,0.348,5.748,1.042
	c1.782,0.694,3.199,1.63,4.248,2.808c1.051,1.178,1.575,2.451,1.575,3.819C25.759,10.953,25.234,12.225,24.184,13.404z"/>
</svg>
