<?xml version="1.0" encoding="utf-8"?>
<!-- Generator: Adobe Illustrator 16.0.0, SVG Export Plug-In . SVG Version: 6.00 Build 0)  -->
<!DOCTYPE svg PUBLIC "-//W3C//DTD SVG 1.1//EN" "http://www.w3.org/Graphics/SVG/1.1/DTD/svg11.dtd">
<svg version="1.1" id="Layer_1" xmlns="http://www.w3.org/2000/svg" xmlns:xlink="http://www.w3.org/1999/xlink" x="0px" y="0px"
	 width="29px" height="22.968px" viewBox="0 0 29 22.968" enable-background="new 0 0 29 22.968" xml:space="preserve">
<path fill="#36434D" d="M26.023,7.574c-0.337-0.295-0.751-0.486-1.199-0.551l-5.479-0.793l-2.451-4.955
	c-0.2-0.405-0.51-0.739-0.896-0.967c-0.357-0.212-0.768-0.324-1.186-0.324s-0.828,0.112-1.187,0.324
	C13.24,0.536,12.931,0.87,12.73,1.275l-2.45,4.955L4.8,7.023C4.353,7.088,3.938,7.279,3.602,7.574
	C3.289,7.848,3.056,8.203,2.926,8.6C2.797,8.997,2.777,9.42,2.868,9.825c0.099,0.436,0.321,0.834,0.646,1.148l3.965,3.856
	l-0.936,5.445c-0.116,0.676,0.07,1.361,0.511,1.882c0.444,0.526,1.092,0.827,1.777,0.827c0.373,0,0.746-0.093,1.08-0.268l4.901-2.57
	l4.901,2.57c0.333,0.175,0.707,0.268,1.08,0.268c0.686,0,1.333-0.301,1.777-0.827c0.44-0.521,0.626-1.206,0.511-1.882l-0.937-5.445
	l3.966-3.856c0.323-0.313,0.547-0.712,0.646-1.148c0.091-0.405,0.071-0.829-0.059-1.226C26.569,8.203,26.336,7.848,26.023,7.574z
	 M24.917,9.752l-4.379,4.259c-0.145,0.139-0.21,0.341-0.176,0.539l1.034,6.014c0.067,0.394-0.246,0.713-0.603,0.713
	c-0.094,0-0.19-0.021-0.284-0.07l-5.413-2.84c-0.089-0.047-0.187-0.07-0.284-0.07s-0.195,0.023-0.284,0.07l-5.413,2.84
	c-0.094,0.049-0.19,0.07-0.284,0.07c-0.356,0-0.67-0.319-0.603-0.713l1.034-6.014c0.034-0.198-0.032-0.4-0.176-0.539l-4.38-4.259
	c-0.362-0.353-0.162-0.968,0.339-1.04l6.052-0.877c0.199-0.028,0.371-0.153,0.461-0.333l2.706-5.471
	c0.112-0.227,0.33-0.339,0.548-0.339s0.436,0.113,0.548,0.339l2.706,5.471c0.089,0.18,0.261,0.305,0.46,0.333l6.052,0.877
	C25.08,8.784,25.279,9.399,24.917,9.752z"/>
</svg>
