<?xml version="1.0" encoding="utf-8"?>
<!-- Generator: Adobe Illustrator 16.0.0, SVG Export Plug-In . SVG Version: 6.00 Build 0)  -->
<!DOCTYPE svg PUBLIC "-//W3C//DTD SVG 1.1//EN" "http://www.w3.org/Graphics/SVG/1.1/DTD/svg11.dtd">
<svg version="1.1" id="Layer_1" xmlns="http://www.w3.org/2000/svg" xmlns:xlink="http://www.w3.org/1999/xlink" x="0px" y="0px"
	 width="29px" height="22.968px" viewBox="0 0 29 22.968" enable-background="new 0 0 29 22.968" xml:space="preserve">
<path fill="#36434D" d="M26.086,1.839c-1.275-1.238-3.037-1.857-5.287-1.857c-0.623,0-1.26,0.107-1.906,0.322
	c-0.648,0.214-1.252,0.504-1.809,0.869c-0.557,0.364-1.037,0.706-1.439,1.026c-0.4,0.319-0.783,0.659-1.144,1.018
	c-0.362-0.359-0.743-0.699-1.146-1.018c-0.402-0.32-0.881-0.662-1.439-1.026c-0.558-0.365-1.16-0.654-1.809-0.869
	C9.46,0.089,8.824-0.018,8.201-0.018c-2.25,0-4.012,0.619-5.288,1.857C1.638,3.077,1,4.794,1,6.99c0,0.669,0.118,1.358,0.354,2.067
	C1.59,9.766,1.858,10.37,2.16,10.869c0.301,0.499,0.643,0.986,1.024,1.46c0.382,0.475,0.661,0.801,0.836,0.981
	c0.176,0.18,0.314,0.311,0.415,0.391l9.402,9.014c0.181,0.182,0.401,0.271,0.663,0.271c0.261,0,0.482-0.09,0.664-0.271l9.387-8.984
	C26.85,11.443,28,9.197,28,6.989C28,4.793,27.363,3.077,26.086,1.839z M23.238,12.322L14.5,20.693l-8.754-8.386
	c-1.879-1.866-2.817-3.64-2.817-5.317c0-0.808,0.108-1.521,0.323-2.14c0.217-0.62,0.492-1.111,0.829-1.476s0.746-0.661,1.228-0.892
	c0.482-0.229,0.955-0.384,1.417-0.464c0.462-0.079,0.954-0.12,1.477-0.12S9.287,2.026,9.89,2.281
	c0.603,0.254,1.157,0.574,1.665,0.958c0.507,0.385,0.941,0.744,1.303,1.078c0.362,0.335,0.664,0.642,0.905,0.921
	c0.181,0.22,0.427,0.329,0.738,0.329c0.311,0,0.556-0.109,0.738-0.329c0.242-0.28,0.543-0.586,0.904-0.921
	c0.361-0.334,0.797-0.693,1.303-1.078c0.508-0.385,1.063-0.704,1.666-0.958c0.602-0.255,1.164-0.382,1.688-0.382
	c0.521,0,1.014,0.041,1.477,0.12c0.461,0.08,0.934,0.235,1.416,0.464c0.482,0.23,0.891,0.527,1.229,0.892
	c0.336,0.365,0.611,0.856,0.828,1.476c0.215,0.619,0.324,1.333,0.324,2.14C26.072,8.667,25.127,10.445,23.238,12.322z"/>
</svg>
