<?xml version="1.0" encoding="utf-8"?>
<!-- Generator: Adobe Illustrator 16.0.0, SVG Export Plug-In . SVG Version: 6.00 Build 0)  -->
<!DOCTYPE svg PUBLIC "-//W3C//DTD SVG 1.1//EN" "http://www.w3.org/Graphics/SVG/1.1/DTD/svg11.dtd">
<svg version="1.1" id="Layer_1" xmlns="http://www.w3.org/2000/svg" xmlns:xlink="http://www.w3.org/1999/xlink" x="0px" y="0px"
	 width="31.25px" height="22.968px" viewBox="0 0 31.25 22.968" enable-background="new 0 0 31.25 22.968" xml:space="preserve">
<path fill="#36434D" d="M31,0.714c-0.003-0.122-0.038-0.228-0.098-0.336c-0.018-0.033-0.004-0.076-0.029-0.108
	c-0.013-0.014-0.029-0.011-0.042-0.022c-0.015-0.018-0.015-0.039-0.026-0.054c-0.115-0.111-0.257-0.18-0.408-0.206
	c-0.016-0.002-0.023,0.006-0.039,0.004c-0.136-0.018-0.278-0.01-0.406,0.047L0.457,12.744c-0.3,0.129-0.483,0.434-0.454,0.754
	c0.026,0.322,0.261,0.591,0.583,0.668l6.672,1.587l3.244,6.797c0.022,0.044,0.064,0.065,0.095,0.104
	c0.015,0.023,0.006,0.053,0.026,0.074c0.029,0.037,0.077,0.055,0.115,0.082c0.03,0.025,0.056,0.051,0.096,0.068
	c0.115,0.063,0.234,0.105,0.364,0.105c0.029,0,0.056-0.002,0.086-0.006c0.146-0.016,0.269-0.084,0.377-0.166
	c0.013-0.012,0.033-0.006,0.048-0.018l5.111-4.428l5.058,1.629c0.377,0.115,0.789-0.061,0.946-0.418l8.144-18.551
	c0.017-0.045,0.004-0.094,0.013-0.143C30.997,0.826,31,0.777,31,0.714z M12.034,15.628c-0.015,0.01-0.009,0.029-0.022,0.039
	c-0.102,0.102-0.188,0.221-0.219,0.365l-0.86,3.861l-2.151-4.515L22.06,6.88L12.034,15.628z M22.027,5.097L7.658,14.294l-4.5-1.07
	L22.027,5.097z M12.449,20.142l0.661-2.971l2.017,0.648L12.449,20.142z M21.693,18.348l-7.641-2.464L28.19,3.546L21.693,18.348z"/>
</svg>
